<svg width="125" height="90" viewBox="0 0 125 90" fill="none" xmlns="http://www.w3.org/2000/svg">
<path d="M28.2832 12.6007C28.2071 7.42039 26.0623 4.17708 21.8103 2.7437C13.0576 -0.119745 7.1769 0.920741 4.0096 5.77585C1.33221 9.87997 0.676292 12.694 1.50627 15.6203C1.76912 16.5471 2.18418 17.5184 2.79639 18.6739L2.9115 18.8892C3.30653 19.6233 3.60377 20.135 4.48113 21.5911L5.02799 22.4971C7.56969 26.7034 8.27256 30.4618 7.08914 33.7385C11.6532 35.3224 15.0891 36.1795 17.3761 36.312L17.4656 36.3168C18.5469 36.3711 19.3358 36.2565 19.8233 35.9971C20.2356 35.7777 20.4257 35.46 20.4317 34.9647L20.432 34.8973C20.4393 33.4849 20.8074 32.5578 21.5756 32.0095C21.909 31.7715 22.2999 31.617 22.776 31.5133L22.8208 31.5037C23.1109 31.4426 23.3898 31.4051 23.8629 31.3576L24.2947 31.3154C25.1535 31.2301 25.5482 31.1706 26.0301 31.0361L26.0909 31.0188C26.5049 30.8997 26.8798 30.7403 27.2285 30.5282L27.2903 30.4901C27.9913 30.0548 28.3456 29.678 28.4679 29.3346C28.5504 29.1029 28.5412 28.9067 28.4404 28.447L28.399 28.2605L28.3882 28.211C28.3595 28.077 28.3445 27.9931 28.3301 27.886L28.3263 27.8569C28.2611 27.3355 28.3476 26.8821 28.6542 26.4414L28.6891 26.3921C28.787 26.2529 28.8556 26.1356 28.8985 26.0393C28.9281 25.9729 28.9419 25.9253 28.9457 25.8933L28.9464 25.8866C28.9476 25.8719 28.9468 25.8661 28.9227 25.8239L28.8734 25.7395L28.854 25.7056C28.6297 25.3069 28.6368 24.9137 28.9484 24.4634L28.9675 24.4361L28.9758 24.4237C29.0491 24.3093 29.0207 24.2229 28.7881 23.9022L28.6608 23.7276L28.6194 23.67C28.577 23.6101 28.5524 23.5728 28.5222 23.5236L28.4873 23.4655C28.3865 23.2933 28.3208 23.1281 28.2957 22.9477C28.2888 22.8986 28.2853 22.8491 28.2853 22.7995C28.2853 22.4281 28.5013 22.1768 28.8262 21.9977C28.9918 21.9065 29.1833 21.8336 29.4612 21.7472L29.5642 21.7158C29.6561 21.6885 29.8478 21.6322 29.9831 21.592L30.1045 21.5555L30.1608 21.538C30.7427 21.3545 31.0397 21.1877 31.0918 21.0556C31.0934 21.0514 31.0953 21.0397 31.0948 21.0165C31.0932 20.9756 31.0832 20.9211 31.0626 20.8543C31.0158 20.7026 30.9223 20.5112 30.7819 20.2823L30.7384 20.2125C30.5413 19.8991 30.3512 19.6404 29.8799 19.043L29.3485 18.3731L29.2447 18.2414L29.1553 18.1273C28.8452 17.7297 28.6149 17.4173 28.4154 17.1174L28.3812 17.0658C27.573 15.8349 27.5448 14.3929 28.2629 12.8064L28.2849 12.7582L28.2832 12.6007Z" fill="white"/>
<path d="M29.922 25.2178C30.2387 25.7717 30.1909 26.3027 29.6223 27.0979C29.4887 27.2847 29.4543 27.4523 29.4855 27.707L29.4885 27.7304C29.4987 27.8059 29.5106 27.8711 29.5357 27.9875L29.5943 28.2523L29.6129 28.3396C29.6514 28.5246 29.6716 28.654 29.6831 28.8022L29.6859 28.842C29.706 29.1488 29.672 29.439 29.569 29.7279C29.3459 30.3544 28.8152 30.9197 27.9075 31.4839L27.8361 31.5278C27.3946 31.7964 26.9243 31.9965 26.4142 32.1432L26.3349 32.1656C25.7681 32.3236 25.3236 32.3895 24.3764 32.4829L24.0363 32.5161C23.023 32.6181 22.5961 32.7183 22.2547 32.962L22.2412 32.9718C21.8329 33.2719 21.6105 33.8354 21.6011 34.8721L21.6007 34.9709C21.5918 35.8926 21.1694 36.6059 20.3725 37.03C19.6486 37.4153 18.6307 37.5565 17.3087 37.4799C14.792 37.3341 11.0724 36.3869 6.12624 34.6407L5.53302 34.4313L5.7855 33.855C7.109 30.8337 6.54204 27.2631 4.02806 23.1027L3.29926 21.8945C2.57337 20.6872 2.28067 20.1813 1.92151 19.5162L1.79711 19.2845L1.72898 19.1559C1.10008 17.9618 0.665059 16.9376 0.382201 15.9403C-0.550504 12.6517 0.183404 9.50313 3.03111 5.13794C6.53843 -0.238381 12.9723 -1.37674 22.1788 1.63519C27.0139 3.2651 29.4543 7.06174 29.4543 12.8893V13.0232L29.396 13.1437C28.7642 14.4509 28.7642 15.5201 29.3583 16.425C29.5572 16.7279 29.7963 17.0514 30.1386 17.4878L30.2653 17.6487L30.7629 18.2757C31.2811 18.9316 31.4899 19.214 31.7148 19.5701L31.7748 19.6663L31.8091 19.7226C32.2247 20.4134 32.3824 20.9705 32.1792 21.4856C32.0423 21.8326 31.7717 22.0912 31.3976 22.2973C31.139 22.4397 30.8463 22.5514 30.4482 22.6738L30.3588 22.7008C30.2314 22.7388 30.0363 22.7961 29.9299 22.8276L29.8386 22.8551L29.7886 22.8706C29.6915 22.9011 29.6115 22.9284 29.5461 22.9533L29.5728 22.9922C29.5985 23.029 29.6293 23.0722 29.6661 23.1229L29.7264 23.2056L29.765 23.2592C29.9587 23.53 30.0605 23.7107 30.1296 23.9502C30.2421 24.3409 30.1812 24.735 29.9311 25.0988L29.9162 25.1202C29.9108 25.1278 29.9058 25.135 29.9013 25.1418L29.8888 25.161L29.922 25.2178ZM28.2835 12.6016C28.2074 7.42131 26.0626 4.17799 21.8105 2.74461C13.0578 -0.118829 7.17717 0.921657 4.00986 5.77676C1.33247 9.88089 0.676553 12.6949 1.50653 15.6212C1.76938 16.548 2.18445 17.5193 2.79665 18.6748L2.91176 18.8901C3.30679 19.6242 3.60403 20.1359 4.48139 21.592L5.02825 22.4981C7.56995 26.7043 8.27283 30.4627 7.08941 33.7394C11.6534 35.3233 15.0894 36.1804 17.3763 36.3129L17.4659 36.3178C18.5471 36.3721 19.3361 36.2575 19.8235 35.998C20.2359 35.7786 20.426 35.4609 20.432 34.9656L20.4322 34.8982C20.4395 33.4858 20.8077 32.5587 21.5758 32.0104C21.9093 31.7724 22.3002 31.6179 22.7763 31.5142L22.821 31.5046C23.1112 31.4435 23.3901 31.406 23.8631 31.3585L24.2949 31.3163C25.1537 31.231 25.5485 31.1715 26.0304 31.037L26.0912 31.0197C26.5052 30.9006 26.8801 30.7412 27.2287 30.5291L27.2906 30.4911C27.9916 30.0557 28.3458 29.6789 28.4681 29.3355C28.5507 29.1038 28.5415 28.9076 28.4407 28.4479L28.3992 28.2614L28.3885 28.2119C28.3598 28.0779 28.3448 27.994 28.3303 27.8869L28.3265 27.8578C28.2614 27.3364 28.3478 26.883 28.6545 26.4423L28.6893 26.393C28.7873 26.2538 28.8559 26.1365 28.8988 26.0402C28.9284 25.9738 28.9422 25.9262 28.946 25.8942L28.9467 25.8876C28.9478 25.8728 28.947 25.867 28.923 25.8248L28.8737 25.7404L28.8542 25.7065C28.6299 25.3078 28.6371 24.9146 28.9486 24.4643L28.9678 24.437L28.976 24.4246C29.0493 24.3103 29.021 24.2238 28.7884 23.9031L28.6611 23.7285L28.6197 23.6709C28.5772 23.611 28.5527 23.5737 28.5225 23.5245L28.4875 23.4664C28.3868 23.2942 28.321 23.1291 28.2959 22.9486C28.2891 22.8995 28.2856 22.85 28.2856 22.8004C28.2856 22.429 28.5015 22.1777 28.8265 21.9986C28.9921 21.9074 29.1836 21.8345 29.4614 21.7481L29.5644 21.7168C29.6563 21.6894 29.8481 21.6331 29.9834 21.5929L30.1048 21.5564L30.161 21.5389C30.7429 21.3554 31.0399 21.1887 31.092 21.0566C31.0937 21.0523 31.0955 21.0406 31.0951 21.0174C31.0935 20.9765 31.0834 20.9221 31.0628 20.8552C31.0161 20.7035 30.9226 20.5121 30.7821 20.2832L30.7387 20.2134C30.5415 19.9 30.3515 19.6413 29.8802 19.0439L29.3487 18.374L29.245 18.2423L29.1556 18.1282C28.8455 17.7306 28.6151 17.4182 28.4156 17.1184L28.3815 17.0667C27.5733 15.8358 27.5451 14.3939 28.2632 12.8073L28.2851 12.7592L28.2835 12.6016Z" fill="#FF9900"/>
<path d="M28.2832 65.1007C28.2071 59.9204 26.0623 56.6771 21.8103 55.2437C13.0576 52.3803 7.1769 53.4207 4.0096 58.2758C1.33221 62.38 0.676292 65.194 1.50627 68.1203C1.76912 69.0471 2.18418 70.0184 2.79639 71.1739L2.9115 71.3892C3.30653 72.1233 3.60377 72.635 4.48113 74.0911L5.02799 74.9971C7.56969 79.2034 8.27256 82.9618 7.08914 86.2385C11.6532 87.8224 15.0891 88.6795 17.3761 88.812L17.4656 88.8168C18.5469 88.8711 19.3358 88.7565 19.8233 88.4971C20.2356 88.2777 20.4257 87.96 20.4317 87.4647L20.432 87.3973C20.4393 85.9849 20.8074 85.0578 21.5756 84.5095C21.909 84.2715 22.2999 84.117 22.776 84.0133L22.8208 84.0037C23.1109 83.9426 23.3898 83.9051 23.8629 83.8576L24.2947 83.8154C25.1535 83.7301 25.5482 83.6706 26.0301 83.5361L26.0909 83.5188C26.5049 83.3997 26.8798 83.2403 27.2285 83.0282L27.2903 82.9901C27.9913 82.5548 28.3456 82.178 28.4679 81.8346C28.5504 81.6029 28.5412 81.4067 28.4404 80.947L28.399 80.7605L28.3882 80.711C28.3595 80.577 28.3445 80.4931 28.3301 80.386L28.3263 80.3569C28.2611 79.8355 28.3476 79.3821 28.6542 78.9414L28.6891 78.8921C28.787 78.7529 28.8556 78.6356 28.8985 78.5393C28.9281 78.4729 28.9419 78.4253 28.9457 78.3933L28.9464 78.3866C28.9476 78.3719 28.9468 78.3661 28.9227 78.3239L28.8734 78.2395L28.854 78.2056C28.6297 77.8069 28.6368 77.4137 28.9484 76.9634L28.9675 76.9361L28.9758 76.9237C29.0491 76.8093 29.0207 76.7229 28.7881 76.4022L28.6608 76.2276L28.6194 76.17C28.577 76.1101 28.5524 76.0728 28.5222 76.0236L28.4873 75.9655C28.3865 75.7933 28.3208 75.6281 28.2957 75.4477C28.2888 75.3986 28.2853 75.3491 28.2853 75.2995C28.2853 74.9281 28.5013 74.6768 28.8262 74.4977C28.9918 74.4065 29.1833 74.3336 29.4612 74.2472L29.5642 74.2158C29.6561 74.1885 29.8478 74.1322 29.9831 74.092L30.1045 74.0555L30.1608 74.038C30.7427 73.8545 31.0397 73.6877 31.0918 73.5556C31.0934 73.5514 31.0953 73.5397 31.0948 73.5165C31.0932 73.4756 31.0832 73.4211 31.0626 73.3543C31.0158 73.2026 30.9223 73.0112 30.7819 72.7823L30.7384 72.7125C30.5413 72.3991 30.3512 72.1404 29.8799 71.543L29.3485 70.8731L29.2447 70.7414L29.1553 70.6273C28.8452 70.2297 28.6149 69.9173 28.4154 69.6174L28.3812 69.5658C27.573 68.3349 27.5448 66.8929 28.2629 65.3064L28.2849 65.2582L28.2832 65.1007Z" fill="white"/>
<path d="M29.922 77.7178C30.2387 78.2717 30.1909 78.8027 29.6223 79.5979C29.4887 79.7847 29.4543 79.9523 29.4855 80.207L29.4885 80.2304C29.4987 80.3059 29.5106 80.3711 29.5357 80.4875L29.5943 80.7523L29.6129 80.8396C29.6514 81.0246 29.6716 81.154 29.6831 81.3022L29.6859 81.342C29.706 81.6488 29.672 81.939 29.569 82.2279C29.3459 82.8544 28.8152 83.4197 27.9075 83.9839L27.8361 84.0278C27.3946 84.2964 26.9243 84.4965 26.4142 84.6432L26.3349 84.6656C25.7681 84.8236 25.3236 84.8895 24.3764 84.9829L24.0363 85.0161C23.023 85.1181 22.5961 85.2183 22.2547 85.462L22.2412 85.4718C21.8329 85.7719 21.6105 86.3354 21.6011 87.3721L21.6007 87.4709C21.5918 88.3926 21.1694 89.1059 20.3725 89.53C19.6486 89.9153 18.6307 90.0565 17.3087 89.9799C14.792 89.8341 11.0724 88.8869 6.12624 87.1407L5.53302 86.9313L5.7855 86.355C7.109 83.3337 6.54204 79.7631 4.02806 75.6027L3.29926 74.3945C2.57337 73.1872 2.28067 72.6813 1.92151 72.0162L1.79711 71.7845L1.72898 71.6559C1.10008 70.4618 0.665059 69.4376 0.382201 68.4403C-0.550504 65.1517 0.183404 62.0031 3.03111 57.6379C6.53843 52.2616 12.9723 51.1233 22.1788 54.1352C27.0139 55.7651 29.4543 59.5617 29.4543 65.3893V65.5232L29.396 65.6437C28.7642 66.9509 28.7642 68.0201 29.3583 68.925C29.5572 69.2279 29.7963 69.5514 30.1386 69.9878L30.2653 70.1487L30.7629 70.7757C31.2811 71.4316 31.4899 71.714 31.7148 72.0701L31.7748 72.1663L31.8091 72.2226C32.2247 72.9134 32.3824 73.4705 32.1792 73.9856C32.0423 74.3326 31.7717 74.5912 31.3976 74.7973C31.139 74.9397 30.8463 75.0514 30.4482 75.1738L30.3588 75.2008C30.2314 75.2388 30.0363 75.2961 29.9299 75.3276L29.8386 75.3551L29.7886 75.3706C29.6915 75.4011 29.6115 75.4284 29.5461 75.4533L29.5728 75.4922C29.5985 75.529 29.6293 75.5722 29.6661 75.6229L29.7264 75.7056L29.765 75.7592C29.9587 76.03 30.0605 76.2107 30.1296 76.4502C30.2421 76.8409 30.1812 77.235 29.9311 77.5988L29.9162 77.6202C29.9108 77.6278 29.9058 77.635 29.9013 77.6418L29.8888 77.661L29.922 77.7178ZM28.2835 65.1016C28.2074 59.9213 26.0626 56.678 21.8105 55.2446C13.0578 52.3812 7.17717 53.4217 4.00986 58.2768C1.33247 62.3809 0.676553 65.1949 1.50653 68.1212C1.76938 69.048 2.18445 70.0193 2.79665 71.1748L2.91176 71.3901C3.30679 72.1242 3.60403 72.6359 4.48139 74.092L5.02825 74.9981C7.56995 79.2043 8.27283 82.9627 7.08941 86.2394C11.6534 87.8233 15.0894 88.6804 17.3763 88.8129L17.4659 88.8178C18.5471 88.8721 19.3361 88.7575 19.8235 88.498C20.2359 88.2786 20.426 87.9609 20.432 87.4656L20.4322 87.3982C20.4395 85.9858 20.8077 85.0587 21.5758 84.5104C21.9093 84.2724 22.3002 84.1179 22.7763 84.0142L22.821 84.0046C23.1112 83.9435 23.3901 83.906 23.8631 83.8585L24.2949 83.8163C25.1537 83.731 25.5485 83.6715 26.0304 83.537L26.0912 83.5197C26.5052 83.4006 26.8801 83.2412 27.2287 83.0291L27.2906 82.9911C27.9916 82.5557 28.3458 82.1789 28.4681 81.8355C28.5507 81.6038 28.5415 81.4076 28.4407 80.9479L28.3992 80.7614L28.3885 80.7119C28.3598 80.5779 28.3448 80.494 28.3303 80.3869L28.3265 80.3578C28.2614 79.8364 28.3478 79.383 28.6545 78.9423L28.6893 78.893C28.7873 78.7538 28.8559 78.6365 28.8988 78.5402C28.9284 78.4738 28.9422 78.4262 28.946 78.3942L28.9467 78.3876C28.9478 78.3728 28.947 78.367 28.923 78.3248L28.8737 78.2404L28.8542 78.2065C28.6299 77.8078 28.6371 77.4146 28.9486 76.9643L28.9678 76.937L28.976 76.9246C29.0493 76.8103 29.021 76.7238 28.7884 76.4031L28.6611 76.2285L28.6197 76.1709C28.5772 76.111 28.5527 76.0737 28.5225 76.0245L28.4875 75.9664C28.3868 75.7942 28.321 75.6291 28.2959 75.4486C28.2891 75.3995 28.2856 75.35 28.2856 75.3004C28.2856 74.929 28.5015 74.6777 28.8265 74.4986C28.9921 74.4074 29.1836 74.3345 29.4614 74.2481L29.5644 74.2168C29.6563 74.1894 29.8481 74.1331 29.9834 74.0929L30.1048 74.0564L30.161 74.0389C30.7429 73.8554 31.0399 73.6887 31.092 73.5566C31.0937 73.5523 31.0955 73.5406 31.0951 73.5174C31.0935 73.4765 31.0834 73.4221 31.0628 73.3552C31.0161 73.2035 30.9226 73.0121 30.7821 72.7832L30.7387 72.7134C30.5415 72.4 30.3515 72.1413 29.8802 71.5439L29.3487 70.874L29.245 70.7423L29.1556 70.6282C28.8455 70.2306 28.6151 69.9182 28.4156 69.6184L28.3815 69.5667C27.5733 68.3358 27.5451 66.8939 28.2632 65.3073L28.2851 65.2592L28.2835 65.1016Z" fill="#FF9900"/>
<path d="M74.0908 12.6007C74.0147 7.42039 71.8699 4.17708 67.6179 2.7437C58.8652 -0.119745 52.9845 0.920741 49.8172 5.77585C47.1398 9.87997 46.4839 12.694 47.3139 15.6203C47.5767 16.5471 47.9918 17.5184 48.604 18.6739L48.7191 18.8892C49.1141 19.6233 49.4114 20.135 50.2887 21.5911L50.8356 22.4971C53.3773 26.7034 54.0802 30.4618 52.8968 33.7385C57.4608 35.3224 60.8967 36.1795 63.1837 36.312L63.2732 36.3168C64.3545 36.3711 65.1434 36.2565 65.6309 35.9971C66.0433 35.7777 66.2333 35.46 66.2393 34.9647L66.2396 34.8973C66.2469 33.4849 66.6151 32.5578 67.3832 32.0095C67.7167 31.7715 68.1075 31.617 68.5836 31.5133L68.6284 31.5037C68.9186 31.4426 69.1975 31.4051 69.6705 31.3576L70.1023 31.3154C70.9611 31.2301 71.3558 31.1706 71.8377 31.0361L71.8985 31.0188C72.3125 30.8997 72.6875 30.7403 73.0361 30.5282L73.0979 30.4901C73.7989 30.0548 74.1532 29.678 74.2755 29.3346C74.358 29.1029 74.3488 28.9067 74.248 28.447L74.2066 28.2605L74.1959 28.211C74.1672 28.077 74.1521 27.9931 74.1377 27.886L74.1339 27.8569C74.0687 27.3355 74.1552 26.8821 74.4618 26.4414L74.4967 26.3921C74.5946 26.2529 74.6632 26.1356 74.7061 26.0393C74.7357 25.9729 74.7496 25.9253 74.7534 25.8933L74.754 25.8866C74.7552 25.8719 74.7544 25.8661 74.7303 25.8239L74.681 25.7395L74.6616 25.7056C74.4373 25.3069 74.4444 24.9137 74.756 24.4634L74.7751 24.4361L74.7834 24.4237C74.8567 24.3093 74.8283 24.2229 74.5958 23.9022L74.4684 23.7276L74.4271 23.67C74.3846 23.6101 74.36 23.5728 74.3298 23.5236L74.2949 23.4655C74.1941 23.2933 74.1284 23.1281 74.1033 22.9477C74.0964 22.8986 74.0929 22.8491 74.0929 22.7995C74.0929 22.4281 74.3089 22.1768 74.6338 21.9977C74.7995 21.9065 74.9909 21.8336 75.2688 21.7472L75.3718 21.7158C75.4637 21.6885 75.6554 21.6322 75.7907 21.592L75.9121 21.5555L75.9684 21.538C76.5503 21.3545 76.8473 21.1877 76.8994 21.0556C76.9011 21.0514 76.9029 21.0397 76.9024 21.0165C76.9008 20.9756 76.8908 20.9211 76.8702 20.8543C76.8234 20.7026 76.7299 20.5112 76.5895 20.2823L76.546 20.2125C76.3489 19.8991 76.1588 19.6404 75.6875 19.043L75.1561 18.3731L75.0523 18.2414L74.9629 18.1273C74.6528 17.7297 74.4225 17.4173 74.223 17.1174L74.1888 17.0658C73.3806 15.8349 73.3525 14.3929 74.0705 12.8064L74.0925 12.7582L74.0908 12.6007Z" fill="white"/>
<path d="M75.7296 25.2178C76.0463 25.7717 75.9985 26.3027 75.4299 27.0979C75.2964 27.2847 75.2619 27.4523 75.2931 27.707L75.2961 27.7304C75.3063 27.8059 75.3182 27.8711 75.3433 27.9875L75.4019 28.2523L75.4205 28.3396C75.459 28.5246 75.4792 28.654 75.4907 28.8022L75.4935 28.842C75.5136 29.1488 75.4796 29.439 75.3767 29.7279C75.1535 30.3544 74.6228 30.9197 73.7152 31.4839L73.6437 31.5278C73.2022 31.7964 72.7319 31.9965 72.2218 32.1432L72.1425 32.1656C71.5757 32.3236 71.1312 32.3895 70.184 32.4829L69.844 32.5161C68.8306 32.6181 68.4037 32.7183 68.0623 32.962L68.0488 32.9718C67.6405 33.2719 67.4181 33.8354 67.4088 34.8721L67.4083 34.9709C67.3994 35.8926 66.977 36.6059 66.1801 37.03C65.4562 37.4153 64.4383 37.5565 63.1164 37.4799C60.5997 37.3341 56.8801 36.3869 51.9339 34.6407L51.3406 34.4313L51.5931 33.855C52.9166 30.8337 52.3497 27.2631 49.8357 23.1027L49.1069 21.8945C48.381 20.6872 48.0883 20.1813 47.7291 19.5162L47.6047 19.2845L47.5366 19.1559C46.9077 17.9618 46.4727 16.9376 46.1898 15.9403C45.2571 12.6517 45.991 9.50313 48.8387 5.13794C52.3461 -0.238381 58.7799 -1.37674 67.9864 1.63519C72.8215 3.2651 75.2619 7.06174 75.2619 12.8893V13.0232L75.2036 13.1437C74.5718 14.4509 74.5718 15.5201 75.166 16.425C75.3648 16.7279 75.6039 17.0514 75.9462 17.4878L76.073 17.6487L76.5705 18.2757C77.0887 18.9316 77.2975 19.214 77.5224 19.5701L77.5824 19.6663L77.6167 19.7226C78.0324 20.4134 78.19 20.9705 77.9868 21.4856C77.8499 21.8326 77.5793 22.0912 77.2052 22.2973C76.9466 22.4397 76.6539 22.5514 76.2558 22.6738L76.1664 22.7008C76.039 22.7388 75.8439 22.7961 75.7376 22.8276L75.6462 22.8551L75.5962 22.8706C75.4991 22.9011 75.4191 22.9284 75.3537 22.9533L75.3805 22.9922C75.4061 23.029 75.4369 23.0722 75.4737 23.1229L75.534 23.2056L75.5726 23.2592C75.7663 23.53 75.8682 23.7107 75.9372 23.9502C76.0497 24.3409 75.9888 24.735 75.7387 25.0988L75.7238 25.1202C75.7184 25.1278 75.7134 25.135 75.7089 25.1418L75.6964 25.161L75.7296 25.2178ZM74.0911 12.6016C74.015 7.42131 71.8702 4.17799 67.6182 2.74461C58.8654 -0.118829 52.9848 0.921657 49.8175 5.77676C47.1401 9.88089 46.4842 12.6949 47.3141 15.6212C47.577 16.548 47.9921 17.5193 48.6043 18.6748L48.7194 18.8901C49.1144 19.6242 49.4117 20.1359 50.289 21.592L50.8359 22.4981C53.3776 26.7043 54.0804 30.4627 52.897 33.7394C57.461 35.3233 60.897 36.1804 63.184 36.3129L63.2735 36.3178C64.3547 36.3721 65.1437 36.2575 65.6311 35.998C66.0435 35.7786 66.2336 35.4609 66.2396 34.9656L66.2399 34.8982C66.2472 33.4858 66.6153 32.5587 67.3835 32.0104C67.7169 31.7724 68.1078 31.6179 68.5839 31.5142L68.6286 31.5046C68.9188 31.4435 69.1977 31.406 69.6707 31.3585L70.1025 31.3163C70.9614 31.231 71.3561 31.1715 71.838 31.037L71.8988 31.0197C72.3128 30.9006 72.6877 30.7412 73.0364 30.5291L73.0982 30.4911C73.7992 30.0557 74.1535 29.6789 74.2758 29.3355C74.3583 29.1038 74.3491 28.9076 74.2483 28.4479L74.2069 28.2614L74.1961 28.2119C74.1674 28.0779 74.1524 27.994 74.1379 27.8869L74.1342 27.8578C74.069 27.3364 74.1555 26.883 74.4621 26.4423L74.4969 26.393C74.5949 26.2538 74.6635 26.1365 74.7064 26.0402C74.736 25.9738 74.7498 25.9262 74.7536 25.8942L74.7543 25.8876C74.7555 25.8728 74.7547 25.867 74.7306 25.8248L74.6813 25.7404L74.6619 25.7065C74.4376 25.3078 74.4447 24.9146 74.7562 24.4643L74.7754 24.437L74.7836 24.4246C74.8569 24.3103 74.8286 24.2238 74.596 23.9031L74.4687 23.7285L74.4273 23.6709C74.3848 23.611 74.3603 23.5737 74.3301 23.5245L74.2951 23.4664C74.1944 23.2942 74.1286 23.1291 74.1035 22.9486C74.0967 22.8995 74.0932 22.85 74.0932 22.8004C74.0932 22.429 74.3091 22.1777 74.6341 21.9986C74.7997 21.9074 74.9912 21.8345 75.2691 21.7481L75.372 21.7168C75.464 21.6894 75.6557 21.6331 75.791 21.5929L75.9124 21.5564L75.9687 21.5389C76.5505 21.3554 76.8475 21.1887 76.8997 21.0566C76.9013 21.0523 76.9032 21.0406 76.9027 21.0174C76.9011 20.9765 76.891 20.9221 76.8704 20.8552C76.8237 20.7035 76.7302 20.5121 76.5898 20.2832L76.5463 20.2134C76.3492 19.9 76.1591 19.6413 75.6878 19.0439L75.1564 18.374L75.0526 18.2423L74.9632 18.1282C74.6531 17.7306 74.4227 17.4182 74.2233 17.1184L74.1891 17.0667C73.3809 15.8358 73.3527 14.3939 74.0708 12.8073L74.0928 12.7592L74.0911 12.6016Z" fill="#FF9900"/>
<path d="M74.0908 65.1007C74.0147 59.9204 71.8699 56.6771 67.6179 55.2437C58.8652 52.3803 52.9845 53.4207 49.8172 58.2758C47.1398 62.38 46.4839 65.194 47.3139 68.1203C47.5767 69.0471 47.9918 70.0184 48.604 71.1739L48.7191 71.3892C49.1141 72.1233 49.4114 72.635 50.2887 74.0911L50.8356 74.9971C53.3773 79.2034 54.0802 82.9618 52.8968 86.2385C57.4608 87.8224 60.8967 88.6795 63.1837 88.812L63.2732 88.8168C64.3545 88.8711 65.1434 88.7565 65.6309 88.4971C66.0433 88.2777 66.2333 87.96 66.2393 87.4647L66.2396 87.3973C66.2469 85.9849 66.6151 85.0578 67.3832 84.5095C67.7167 84.2715 68.1075 84.117 68.5836 84.0133L68.6284 84.0037C68.9186 83.9426 69.1975 83.9051 69.6705 83.8576L70.1023 83.8154C70.9611 83.7301 71.3558 83.6706 71.8377 83.5361L71.8985 83.5188C72.3125 83.3997 72.6875 83.2403 73.0361 83.0282L73.0979 82.9901C73.7989 82.5548 74.1532 82.178 74.2755 81.8346C74.358 81.6029 74.3488 81.4067 74.248 80.947L74.2066 80.7605L74.1959 80.711C74.1672 80.577 74.1521 80.4931 74.1377 80.386L74.1339 80.3569C74.0687 79.8355 74.1552 79.3821 74.4618 78.9414L74.4967 78.8921C74.5946 78.7529 74.6632 78.6356 74.7061 78.5393C74.7357 78.4729 74.7496 78.4253 74.7534 78.3933L74.754 78.3866C74.7552 78.3719 74.7544 78.3661 74.7303 78.3239L74.681 78.2395L74.6616 78.2056C74.4373 77.8069 74.4444 77.4137 74.756 76.9634L74.7751 76.9361L74.7834 76.9237C74.8567 76.8093 74.8283 76.7229 74.5958 76.4022L74.4684 76.2276L74.4271 76.17C74.3846 76.1101 74.36 76.0728 74.3298 76.0236L74.2949 75.9655C74.1941 75.7933 74.1284 75.6281 74.1033 75.4477C74.0964 75.3986 74.0929 75.3491 74.0929 75.2995C74.0929 74.9281 74.3089 74.6768 74.6338 74.4977C74.7995 74.4065 74.9909 74.3336 75.2688 74.2472L75.3718 74.2158C75.4637 74.1885 75.6554 74.1322 75.7907 74.092L75.9121 74.0555L75.9684 74.038C76.5503 73.8545 76.8473 73.6877 76.8994 73.5556C76.9011 73.5514 76.9029 73.5397 76.9024 73.5165C76.9008 73.4756 76.8908 73.4211 76.8702 73.3543C76.8234 73.2026 76.7299 73.0112 76.5895 72.7823L76.546 72.7125C76.3489 72.3991 76.1588 72.1404 75.6875 71.543L75.1561 70.8731L75.0523 70.7414L74.9629 70.6273C74.6528 70.2297 74.4225 69.9173 74.223 69.6174L74.1888 69.5658C73.3806 68.3349 73.3525 66.8929 74.0705 65.3064L74.0925 65.2582L74.0908 65.1007Z" fill="white"/>
<path d="M75.7296 77.7178C76.0463 78.2717 75.9985 78.8027 75.4299 79.5979C75.2964 79.7847 75.2619 79.9523 75.2931 80.207L75.2961 80.2304C75.3063 80.3059 75.3182 80.3711 75.3433 80.4875L75.4019 80.7523L75.4205 80.8396C75.459 81.0246 75.4792 81.154 75.4907 81.3022L75.4935 81.342C75.5136 81.6488 75.4796 81.939 75.3767 82.2279C75.1535 82.8544 74.6228 83.4197 73.7152 83.9839L73.6437 84.0278C73.2022 84.2964 72.7319 84.4965 72.2218 84.6432L72.1425 84.6656C71.5757 84.8236 71.1312 84.8895 70.184 84.9829L69.844 85.0161C68.8306 85.1181 68.4037 85.2183 68.0623 85.462L68.0488 85.4718C67.6405 85.7719 67.4181 86.3354 67.4088 87.3721L67.4083 87.4709C67.3994 88.3926 66.977 89.1059 66.1801 89.53C65.4562 89.9153 64.4383 90.0565 63.1164 89.9799C60.5997 89.8341 56.8801 88.8869 51.9339 87.1407L51.3406 86.9313L51.5931 86.355C52.9166 83.3337 52.3497 79.7631 49.8357 75.6027L49.1069 74.3945C48.381 73.1872 48.0883 72.6813 47.7291 72.0162L47.6047 71.7845L47.5366 71.6559C46.9077 70.4618 46.4727 69.4376 46.1898 68.4403C45.2571 65.1517 45.991 62.0031 48.8387 57.6379C52.3461 52.2616 58.7799 51.1233 67.9864 54.1352C72.8215 55.7651 75.2619 59.5617 75.2619 65.3893V65.5232L75.2036 65.6437C74.5718 66.9509 74.5718 68.0201 75.166 68.925C75.3648 69.2279 75.6039 69.5514 75.9462 69.9878L76.073 70.1487L76.5705 70.7757C77.0887 71.4316 77.2975 71.714 77.5224 72.0701L77.5824 72.1663L77.6167 72.2226C78.0324 72.9134 78.19 73.4705 77.9868 73.9856C77.8499 74.3326 77.5793 74.5912 77.2052 74.7973C76.9466 74.9397 76.6539 75.0514 76.2558 75.1738L76.1664 75.2008C76.039 75.2388 75.8439 75.2961 75.7376 75.3276L75.6462 75.3551L75.5962 75.3706C75.4991 75.4011 75.4191 75.4284 75.3537 75.4533L75.3805 75.4922C75.4061 75.529 75.4369 75.5722 75.4737 75.6229L75.534 75.7056L75.5726 75.7592C75.7663 76.03 75.8682 76.2107 75.9372 76.4502C76.0497 76.8409 75.9888 77.235 75.7387 77.5988L75.7238 77.6202C75.7184 77.6278 75.7134 77.635 75.7089 77.6418L75.6964 77.661L75.7296 77.7178ZM74.0911 65.1016C74.015 59.9213 71.8702 56.678 67.6182 55.2446C58.8654 52.3812 52.9848 53.4217 49.8175 58.2768C47.1401 62.3809 46.4842 65.1949 47.3141 68.1212C47.577 69.048 47.9921 70.0193 48.6043 71.1748L48.7194 71.3901C49.1144 72.1242 49.4117 72.6359 50.289 74.092L50.8359 74.9981C53.3776 79.2043 54.0804 82.9627 52.897 86.2394C57.461 87.8233 60.897 88.6804 63.184 88.8129L63.2735 88.8178C64.3547 88.8721 65.1437 88.7575 65.6311 88.498C66.0435 88.2786 66.2336 87.9609 66.2396 87.4656L66.2399 87.3982C66.2472 85.9858 66.6153 85.0587 67.3835 84.5104C67.7169 84.2724 68.1078 84.1179 68.5839 84.0142L68.6286 84.0046C68.9188 83.9435 69.1977 83.906 69.6707 83.8585L70.1025 83.8163C70.9614 83.731 71.3561 83.6715 71.838 83.537L71.8988 83.5197C72.3128 83.4006 72.6877 83.2412 73.0364 83.0291L73.0982 82.9911C73.7992 82.5557 74.1535 82.1789 74.2758 81.8355C74.3583 81.6038 74.3491 81.4076 74.2483 80.9479L74.2069 80.7614L74.1961 80.7119C74.1674 80.5779 74.1524 80.494 74.1379 80.3869L74.1342 80.3578C74.069 79.8364 74.1555 79.383 74.4621 78.9423L74.4969 78.893C74.5949 78.7538 74.6635 78.6365 74.7064 78.5402C74.736 78.4738 74.7498 78.4262 74.7536 78.3942L74.7543 78.3876C74.7555 78.3728 74.7547 78.367 74.7306 78.3248L74.6813 78.2404L74.6619 78.2065C74.4376 77.8078 74.4447 77.4146 74.7562 76.9643L74.7754 76.937L74.7836 76.9246C74.8569 76.8103 74.8286 76.7238 74.596 76.4031L74.4687 76.2285L74.4273 76.1709C74.3848 76.111 74.3603 76.0737 74.3301 76.0245L74.2951 75.9664C74.1944 75.7942 74.1286 75.6291 74.1035 75.4486C74.0967 75.3995 74.0932 75.35 74.0932 75.3004C74.0932 74.929 74.3091 74.6777 74.6341 74.4986C74.7997 74.4074 74.9912 74.3345 75.2691 74.2481L75.372 74.2168C75.464 74.1894 75.6557 74.1331 75.791 74.0929L75.9124 74.0564L75.9687 74.0389C76.5505 73.8554 76.8475 73.6887 76.8997 73.5566C76.9013 73.5523 76.9032 73.5406 76.9027 73.5174C76.9011 73.4765 76.891 73.4221 76.8704 73.3552C76.8237 73.2035 76.7302 73.0121 76.5898 72.7832L76.5463 72.7134C76.3492 72.4 76.1591 72.1413 75.6878 71.5439L75.1564 70.874L75.0526 70.7423L74.9632 70.6282C74.6531 70.2306 74.4227 69.9182 74.2233 69.6184L74.1891 69.5667C73.3809 68.3358 73.3527 66.8939 74.0708 65.3073L74.0928 65.2592L74.0911 65.1016Z" fill="#FF9900"/>
<path d="M120.028 12.6007C119.952 7.42039 117.807 4.17708 113.555 2.7437C104.803 -0.119745 98.922 0.920741 95.7547 5.77585C93.0773 9.87997 92.4214 12.694 93.2514 15.6203C93.5142 16.5471 93.9293 17.5184 94.5415 18.6739L94.6566 18.8892C95.0516 19.6233 95.3489 20.135 96.2262 21.5911L96.7731 22.4971C99.3148 26.7034 100.018 30.4618 98.8343 33.7385C103.398 35.3224 106.834 36.1795 109.121 36.312L109.211 36.3168C110.292 36.3711 111.081 36.2565 111.568 35.9971C111.981 35.7777 112.171 35.46 112.177 34.9647L112.177 34.8973C112.184 33.4849 112.553 32.5578 113.321 32.0095C113.654 31.7715 114.045 31.617 114.521 31.5133L114.566 31.5037C114.856 31.4426 115.135 31.4051 115.608 31.3576L116.04 31.3154C116.899 31.2301 117.293 31.1706 117.775 31.0361L117.836 31.0188C118.25 30.8997 118.625 30.7403 118.974 30.5282L119.035 30.4901C119.736 30.0548 120.091 29.678 120.213 29.3346C120.296 29.1029 120.286 28.9067 120.186 28.447L120.144 28.2605L120.133 28.211C120.105 28.077 120.09 27.9931 120.075 27.886L120.071 27.8569C120.006 27.3355 120.093 26.8821 120.399 26.4414L120.434 26.3921C120.532 26.2529 120.601 26.1356 120.644 26.0393C120.673 25.9729 120.687 25.9253 120.691 25.8933L120.692 25.8866C120.693 25.8719 120.692 25.8661 120.668 25.8239L120.619 25.7395L120.599 25.7056C120.375 25.3069 120.382 24.9137 120.693 24.4634L120.713 24.4361L120.721 24.4237C120.794 24.3093 120.766 24.2229 120.533 23.9022L120.406 23.7276L120.365 23.67C120.322 23.6101 120.298 23.5728 120.267 23.5236L120.232 23.4655C120.132 23.2933 120.066 23.1281 120.041 22.9477C120.034 22.8986 120.03 22.8491 120.03 22.7995C120.03 22.4281 120.246 22.1768 120.571 21.9977C120.737 21.9065 120.928 21.8336 121.206 21.7472L121.309 21.7158C121.401 21.6885 121.593 21.6322 121.728 21.592L121.85 21.5555L121.906 21.538C122.488 21.3545 122.785 21.1877 122.837 21.0556C122.839 21.0514 122.84 21.0397 122.84 21.0165C122.838 20.9756 122.828 20.9211 122.808 20.8543C122.761 20.7026 122.667 20.5112 122.527 20.2823L122.484 20.2125C122.286 19.8991 122.096 19.6404 121.625 19.043L121.094 18.3731L120.99 18.2414L120.9 18.1273C120.59 17.7297 120.36 17.4173 120.16 17.1174L120.126 17.0658C119.318 15.8349 119.29 14.3929 120.008 12.8064L120.03 12.7582L120.028 12.6007Z" fill="white"/>
<path d="M121.667 25.2178C121.984 25.7717 121.936 26.3027 121.367 27.0979C121.234 27.2847 121.199 27.4523 121.231 27.707L121.234 27.7304C121.244 27.8059 121.256 27.8711 121.281 27.9875L121.339 28.2523L121.358 28.3396C121.397 28.5246 121.417 28.654 121.428 28.8022L121.431 28.842C121.451 29.1488 121.417 29.439 121.314 29.7279C121.091 30.3544 120.56 30.9197 119.653 31.4839L119.581 31.5278C119.14 31.7964 118.669 31.9965 118.159 32.1432L118.08 32.1656C117.513 32.3236 117.069 32.3895 116.122 32.4829L115.781 32.5161C114.768 32.6181 114.341 32.7183 114 32.962L113.986 32.9718C113.578 33.2719 113.356 33.8354 113.346 34.8721L113.346 34.9709C113.337 35.8926 112.915 36.6059 112.118 37.03C111.394 37.4153 110.376 37.5565 109.054 37.4799C106.537 37.3341 102.818 36.3869 97.8714 34.6407L97.2781 34.4313L97.5306 33.855C98.8541 30.8337 98.2872 27.2631 95.7732 23.1027L95.0444 21.8945C94.3185 20.6872 94.0258 20.1813 93.6666 19.5162L93.5422 19.2845L93.4741 19.1559C92.8452 17.9618 92.4102 16.9376 92.1273 15.9403C91.1946 12.6517 91.9285 9.50313 94.7762 5.13794C98.2836 -0.238381 104.717 -1.37674 113.924 1.63519C118.759 3.2651 121.199 7.06174 121.199 12.8893V13.0232L121.141 13.1437C120.509 14.4509 120.509 15.5201 121.103 16.425C121.302 16.7279 121.541 17.0514 121.884 17.4878L122.01 17.6487L122.508 18.2757C123.026 18.9316 123.235 19.214 123.46 19.5701L123.52 19.6663L123.554 19.7226C123.97 20.4134 124.127 20.9705 123.924 21.4856C123.787 21.8326 123.517 22.0912 123.143 22.2973C122.884 22.4397 122.591 22.5514 122.193 22.6738L122.104 22.7008C121.977 22.7388 121.781 22.7961 121.675 22.8276L121.584 22.8551L121.534 22.8706C121.437 22.9011 121.357 22.9284 121.291 22.9533L121.318 22.9922C121.344 23.029 121.374 23.0722 121.411 23.1229L121.471 23.2056L121.51 23.2592C121.704 23.53 121.806 23.7107 121.875 23.9502C121.987 24.3409 121.926 24.735 121.676 25.0988L121.661 25.1202C121.656 25.1278 121.651 25.135 121.646 25.1418L121.634 25.161L121.667 25.2178ZM120.029 12.6016C119.953 7.42131 117.808 4.17799 113.556 2.74461C104.803 -0.118829 98.9223 0.921657 95.755 5.77676C93.0776 9.88089 92.4217 12.6949 93.2516 15.6212C93.5145 16.548 93.9296 17.5193 94.5418 18.6748L94.6569 18.8901C95.0519 19.6242 95.3492 20.1359 96.2265 21.592L96.7734 22.4981C99.3151 26.7043 100.018 30.4627 98.8345 33.7394C103.399 35.3233 106.835 36.1804 109.121 36.3129L109.211 36.3178C110.292 36.3721 111.081 36.2575 111.569 35.998C111.981 35.7786 112.171 35.4609 112.177 34.9656L112.177 34.8982C112.185 33.4858 112.553 32.5587 113.321 32.0104C113.654 31.7724 114.045 31.6179 114.521 31.5142L114.566 31.5046C114.856 31.4435 115.135 31.406 115.608 31.3585L116.04 31.3163C116.899 31.231 117.294 31.1715 117.775 31.037L117.836 31.0197C118.25 30.9006 118.625 30.7412 118.974 30.5291L119.036 30.4911C119.737 30.0557 120.091 29.6789 120.213 29.3355C120.296 29.1038 120.287 28.9076 120.186 28.4479L120.144 28.2614L120.134 28.2119C120.105 28.0779 120.09 27.994 120.075 27.8869L120.072 27.8578C120.006 27.3364 120.093 26.883 120.4 26.4423L120.434 26.393C120.532 26.2538 120.601 26.1365 120.644 26.0402C120.673 25.9738 120.687 25.9262 120.691 25.8942L120.692 25.8876C120.693 25.8728 120.692 25.867 120.668 25.8248L120.619 25.7404L120.599 25.7065C120.375 25.3078 120.382 24.9146 120.694 24.4643L120.713 24.437L120.721 24.4246C120.794 24.3103 120.766 24.2238 120.534 23.9031L120.406 23.7285L120.365 23.6709C120.322 23.611 120.298 23.5737 120.268 23.5245L120.233 23.4664C120.132 23.2942 120.066 23.1291 120.041 22.9486C120.034 22.8995 120.031 22.85 120.031 22.8004C120.031 22.429 120.247 22.1777 120.572 21.9986C120.737 21.9074 120.929 21.8345 121.207 21.7481L121.31 21.7168C121.401 21.6894 121.593 21.6331 121.728 21.5929L121.85 21.5564L121.906 21.5389C122.488 21.3554 122.785 21.1887 122.837 21.0566C122.839 21.0523 122.841 21.0406 122.84 21.0174C122.839 20.9765 122.829 20.9221 122.808 20.8552C122.761 20.7035 122.668 20.5121 122.527 20.2832L122.484 20.2134C122.287 19.9 122.097 19.6413 121.625 19.0439L121.094 18.374L120.99 18.2423L120.901 18.1282C120.591 17.7306 120.36 17.4182 120.161 17.1184L120.127 17.0667C119.318 15.8358 119.29 14.3939 120.008 12.8073L120.03 12.7592L120.029 12.6016Z" fill="#FF9900"/>
<path d="M120.028 65.1007C119.952 59.9204 117.807 56.6771 113.555 55.2437C104.803 52.3803 98.922 53.4207 95.7547 58.2758C93.0773 62.38 92.4214 65.194 93.2514 68.1203C93.5142 69.0471 93.9293 70.0184 94.5415 71.1739L94.6566 71.3892C95.0516 72.1233 95.3489 72.635 96.2262 74.0911L96.7731 74.9971C99.3148 79.2034 100.018 82.9618 98.8343 86.2385C103.398 87.8224 106.834 88.6795 109.121 88.812L109.211 88.8168C110.292 88.8711 111.081 88.7565 111.568 88.4971C111.981 88.2777 112.171 87.96 112.177 87.4647L112.177 87.3973C112.184 85.9849 112.553 85.0578 113.321 84.5095C113.654 84.2715 114.045 84.117 114.521 84.0133L114.566 84.0037C114.856 83.9426 115.135 83.9051 115.608 83.8576L116.04 83.8154C116.899 83.7301 117.293 83.6706 117.775 83.5361L117.836 83.5188C118.25 83.3997 118.625 83.2403 118.974 83.0282L119.035 82.9901C119.736 82.5548 120.091 82.178 120.213 81.8346C120.296 81.6029 120.286 81.4067 120.186 80.947L120.144 80.7605L120.133 80.711C120.105 80.577 120.09 80.4931 120.075 80.386L120.071 80.3569C120.006 79.8355 120.093 79.3821 120.399 78.9414L120.434 78.8921C120.532 78.7529 120.601 78.6356 120.644 78.5393C120.673 78.4729 120.687 78.4253 120.691 78.3933L120.692 78.3866C120.693 78.3719 120.692 78.3661 120.668 78.3239L120.619 78.2395L120.599 78.2056C120.375 77.8069 120.382 77.4137 120.693 76.9634L120.713 76.9361L120.721 76.9237C120.794 76.8093 120.766 76.7229 120.533 76.4022L120.406 76.2276L120.365 76.17C120.322 76.1101 120.298 76.0728 120.267 76.0236L120.232 75.9655C120.132 75.7933 120.066 75.6281 120.041 75.4477C120.034 75.3986 120.03 75.3491 120.03 75.2995C120.03 74.9281 120.246 74.6768 120.571 74.4977C120.737 74.4065 120.928 74.3336 121.206 74.2472L121.309 74.2158C121.401 74.1885 121.593 74.1322 121.728 74.092L121.85 74.0555L121.906 74.038C122.488 73.8545 122.785 73.6877 122.837 73.5556C122.839 73.5514 122.84 73.5397 122.84 73.5165C122.838 73.4756 122.828 73.4211 122.808 73.3543C122.761 73.2026 122.667 73.0112 122.527 72.7823L122.484 72.7125C122.286 72.3991 122.096 72.1404 121.625 71.543L121.094 70.8731L120.99 70.7414L120.9 70.6273C120.59 70.2297 120.36 69.9173 120.16 69.6174L120.126 69.5658C119.318 68.3349 119.29 66.8929 120.008 65.3064L120.03 65.2582L120.028 65.1007Z" fill="white"/>
<path d="M121.667 77.7178C121.984 78.2717 121.936 78.8027 121.367 79.5979C121.234 79.7847 121.199 79.9523 121.231 80.207L121.234 80.2304C121.244 80.3059 121.256 80.3711 121.281 80.4875L121.339 80.7523L121.358 80.8396C121.397 81.0246 121.417 81.154 121.428 81.3022L121.431 81.342C121.451 81.6488 121.417 81.939 121.314 82.2279C121.091 82.8544 120.56 83.4197 119.653 83.9839L119.581 84.0278C119.14 84.2964 118.669 84.4965 118.159 84.6432L118.08 84.6656C117.513 84.8236 117.069 84.8895 116.122 84.9829L115.781 85.0161C114.768 85.1181 114.341 85.2183 114 85.462L113.986 85.4718C113.578 85.7719 113.356 86.3354 113.346 87.3721L113.346 87.4709C113.337 88.3926 112.915 89.1059 112.118 89.53C111.394 89.9153 110.376 90.0565 109.054 89.9799C106.537 89.8341 102.818 88.8869 97.8714 87.1407L97.2781 86.9313L97.5306 86.355C98.8541 83.3337 98.2872 79.7631 95.7732 75.6027L95.0444 74.3945C94.3185 73.1872 94.0258 72.6813 93.6666 72.0162L93.5422 71.7845L93.4741 71.6559C92.8452 70.4618 92.4102 69.4376 92.1273 68.4403C91.1946 65.1517 91.9285 62.0031 94.7762 57.6379C98.2836 52.2616 104.717 51.1233 113.924 54.1352C118.759 55.7651 121.199 59.5617 121.199 65.3893V65.5232L121.141 65.6437C120.509 66.9509 120.509 68.0201 121.103 68.925C121.302 69.2279 121.541 69.5514 121.884 69.9878L122.01 70.1487L122.508 70.7757C123.026 71.4316 123.235 71.714 123.46 72.0701L123.52 72.1663L123.554 72.2226C123.97 72.9134 124.127 73.4705 123.924 73.9856C123.787 74.3326 123.517 74.5912 123.143 74.7973C122.884 74.9397 122.591 75.0514 122.193 75.1738L122.104 75.2008C121.977 75.2388 121.781 75.2961 121.675 75.3276L121.584 75.3551L121.534 75.3706C121.437 75.4011 121.357 75.4284 121.291 75.4533L121.318 75.4922C121.344 75.529 121.374 75.5722 121.411 75.6229L121.471 75.7056L121.51 75.7592C121.704 76.03 121.806 76.2107 121.875 76.4502C121.987 76.8409 121.926 77.235 121.676 77.5988L121.661 77.6202C121.656 77.6278 121.651 77.635 121.646 77.6418L121.634 77.661L121.667 77.7178ZM120.029 65.1016C119.953 59.9213 117.808 56.678 113.556 55.2446C104.803 52.3812 98.9223 53.4217 95.755 58.2768C93.0776 62.3809 92.4217 65.1949 93.2516 68.1212C93.5145 69.048 93.9296 70.0193 94.5418 71.1748L94.6569 71.3901C95.0519 72.1242 95.3492 72.6359 96.2265 74.092L96.7734 74.9981C99.3151 79.2043 100.018 82.9627 98.8345 86.2394C103.399 87.8233 106.835 88.6804 109.121 88.8129L109.211 88.8178C110.292 88.8721 111.081 88.7575 111.569 88.498C111.981 88.2786 112.171 87.9609 112.177 87.4656L112.177 87.3982C112.185 85.9858 112.553 85.0587 113.321 84.5104C113.654 84.2724 114.045 84.1179 114.521 84.0142L114.566 84.0046C114.856 83.9435 115.135 83.906 115.608 83.8585L116.04 83.8163C116.899 83.731 117.294 83.6715 117.775 83.537L117.836 83.5197C118.25 83.4006 118.625 83.2412 118.974 83.0291L119.036 82.9911C119.737 82.5557 120.091 82.1789 120.213 81.8355C120.296 81.6038 120.287 81.4076 120.186 80.9479L120.144 80.7614L120.134 80.7119C120.105 80.5779 120.09 80.494 120.075 80.3869L120.072 80.3578C120.006 79.8364 120.093 79.383 120.4 78.9423L120.434 78.893C120.532 78.7538 120.601 78.6365 120.644 78.5402C120.673 78.4738 120.687 78.4262 120.691 78.3942L120.692 78.3876C120.693 78.3728 120.692 78.367 120.668 78.3248L120.619 78.2404L120.599 78.2065C120.375 77.8078 120.382 77.4146 120.694 76.9643L120.713 76.937L120.721 76.9246C120.794 76.8103 120.766 76.7238 120.534 76.4031L120.406 76.2285L120.365 76.1709C120.322 76.111 120.298 76.0737 120.268 76.0245L120.233 75.9664C120.132 75.7942 120.066 75.6291 120.041 75.4486C120.034 75.3995 120.031 75.35 120.031 75.3004C120.031 74.929 120.247 74.6777 120.572 74.4986C120.737 74.4074 120.929 74.3345 121.207 74.2481L121.31 74.2168C121.401 74.1894 121.593 74.1331 121.728 74.0929L121.85 74.0564L121.906 74.0389C122.488 73.8554 122.785 73.6887 122.837 73.5566C122.839 73.5523 122.841 73.5406 122.84 73.5174C122.839 73.4765 122.829 73.4221 122.808 73.3552C122.761 73.2035 122.668 73.0121 122.527 72.7832L122.484 72.7134C122.287 72.4 122.097 72.1413 121.625 71.5439L121.094 70.874L120.99 70.7423L120.901 70.6282C120.591 70.2306 120.36 69.9182 120.161 69.6184L120.127 69.5667C119.318 68.3358 119.29 66.8939 120.008 65.3073L120.03 65.2592L120.029 65.1016Z" fill="#FF9900"/>
</svg>
