<svg width="77" height="77" viewBox="0 0 77 77" fill="none" xmlns="http://www.w3.org/2000/svg">
<rect width="77" height="77" fill="white"/>
<path fill-rule="evenodd" clip-rule="evenodd" d="M75.6609 1.33913H1.33913V75.6609H75.6609V1.33913ZM0 0V77H77V0H0Z" fill="#FF9900"/>
<rect width="8.03478" height="8.03478" fill="#FF9900"/>
<rect x="8.03467" y="8.03516" width="30.8" height="30.8" fill="#FF9900"/>
<rect x="38.835" y="38.834" width="15.4" height="15.4" fill="#FF9900"/>
<rect x="54.2349" y="54.2344" width="22.7652" height="22.7652" fill="#FF9900"/>
<path fill-rule="evenodd" clip-rule="evenodd" d="M8.03502 75.6609L8.03502 -2.92676e-08L8.70459 0L8.70459 75.6609L8.03502 75.6609Z" fill="#FF9900"/>
<path fill-rule="evenodd" clip-rule="evenodd" d="M38.8348 75.6609L38.8348 -2.92676e-08L39.5044 0L39.5044 75.6609L38.8348 75.6609Z" fill="#FF9900"/>
<path fill-rule="evenodd" clip-rule="evenodd" d="M54.2347 75.6609L54.2347 -2.92676e-08L54.9043 0L54.9043 75.6609L54.2347 75.6609Z" fill="#FF9900"/>
<path fill-rule="evenodd" clip-rule="evenodd" d="M1.33913 8.03551L77 8.03551L77 8.70508L1.33913 8.70507L1.33913 8.03551Z" fill="#FF9900"/>
<path fill-rule="evenodd" clip-rule="evenodd" d="M1.33913 38.1644L77 38.1644L77 38.834L1.33913 38.834L1.33913 38.1644Z" fill="#FF9900"/>
<path fill-rule="evenodd" clip-rule="evenodd" d="M1.33913 54.2347L77 54.2347L77 54.9043L1.33913 54.9043L1.33913 54.2347Z" fill="#FF9900"/>
</svg>
