<svg width="57" height="86" viewBox="0 0 57 86" fill="none" xmlns="http://www.w3.org/2000/svg">
<rect width="57" height="85.1724" fill="white"/>
<path fill-rule="evenodd" clip-rule="evenodd" d="M55.6897 1.31034H1.31034V83.8621H55.6897V1.31034ZM0 0V85.1724H57V0H0Z" fill="#FF9900"/>
<path fill-rule="evenodd" clip-rule="evenodd" d="M49.7931 32.7587H6.55176V32.1035H49.7931V32.7587Z" fill="#FF9900"/>
<path fill-rule="evenodd" clip-rule="evenodd" d="M49.7931 38.6552H6.55176V38H49.7931V38.6552Z" fill="#FF9900"/>
<path fill-rule="evenodd" clip-rule="evenodd" d="M49.7931 44.5517H6.55176V43.8965H49.7931V44.5517Z" fill="#FF9900"/>
<path fill-rule="evenodd" clip-rule="evenodd" d="M49.7931 50.4481H6.55176V49.793H49.7931V50.4481Z" fill="#FF9900"/>
<path fill-rule="evenodd" clip-rule="evenodd" d="M49.7931 56.3446H6.55176V55.6895H49.7931V56.3446Z" fill="#FF9900"/>
<path fill-rule="evenodd" clip-rule="evenodd" d="M49.7931 68.1376H6.55176V67.4824H49.7931V68.1376Z" fill="#FF9900"/>
<path fill-rule="evenodd" clip-rule="evenodd" d="M49.7931 74.0341H6.55176V73.3789H49.7931V74.0341Z" fill="#FF9900"/>
<path fill-rule="evenodd" clip-rule="evenodd" d="M49.7931 62.2411H6.55176V61.5859H49.7931V62.2411Z" fill="#FF9900"/>
<path fill-rule="evenodd" clip-rule="evenodd" d="M19 16.3794C19 11.3141 23.1071 7.20703 28.1724 7.20703C33.2377 7.20703 37.3448 11.3141 37.3448 16.3794C37.3448 21.4447 33.2377 25.5519 28.1724 25.5519C23.1071 25.5519 19 21.4447 19 16.3794ZM20.556 16.3794C20.556 20.5848 23.967 23.9958 28.1724 23.9958C32.3778 23.9958 35.7888 20.5848 35.7888 16.3794C35.7888 12.1741 32.3778 8.76307 28.1724 8.76307C23.967 8.76307 20.556 12.1741 20.556 16.3794ZM31.0408 13.123H32.0011C32.1341 13.123 32.212 13.2746 32.1321 13.3831L27.8202 19.3615C27.76 19.4456 27.6805 19.5142 27.5885 19.5615C27.4965 19.6087 27.3945 19.6334 27.291 19.6334C27.1875 19.6334 27.0855 19.6087 26.9935 19.5615C26.9014 19.5142 26.822 19.4456 26.7617 19.3615L24.2107 15.8236C24.1329 15.7151 24.2107 15.5636 24.3437 15.5636H25.304C25.5149 15.5636 25.7114 15.6659 25.8343 15.8359L27.292 17.8587L30.5106 13.3954C30.6334 13.2234 30.832 13.123 31.0408 13.123Z" fill="#FF9900"/>
</svg>
