<svg width="84" height="90" viewBox="0 0 84 90" fill="none" xmlns="http://www.w3.org/2000/svg">
<path d="M19.121 20.5619C19.0695 17.0597 17.6195 14.867 14.7449 13.898C8.82757 11.9622 4.85192 12.6656 2.71064 15.9479C0.900573 18.7225 0.457136 20.625 1.01825 22.6033C1.19595 23.2299 1.47656 23.8866 1.89044 24.6677L1.96826 24.8133C2.23532 25.3096 2.43628 25.6555 3.02942 26.6399L3.39913 27.2524C5.11746 30.0961 5.59264 32.637 4.79259 34.8522C7.87812 35.923 10.201 36.5025 11.7471 36.5921L11.8077 36.5953C12.5386 36.632 13.072 36.5546 13.4016 36.3792C13.6804 36.2308 13.8089 36.0161 13.8129 35.6812L13.8131 35.6356C13.818 34.6808 14.0669 34.054 14.5862 33.6833C14.8117 33.5224 15.0759 33.418 15.3978 33.3479L15.428 33.3414C15.6242 33.3001 15.8128 33.2747 16.1326 33.2426L16.4245 33.2141C17.0051 33.1564 17.272 33.1162 17.5977 33.0252L17.6389 33.0136C17.9187 32.9331 18.1722 32.8252 18.4079 32.6819L18.4497 32.6562C18.9236 32.3618 19.1631 32.1071 19.2458 31.875C19.3016 31.7183 19.2954 31.5857 19.2272 31.2749L19.1992 31.1488L19.192 31.1153C19.1726 31.0247 19.1624 30.968 19.1526 30.8956L19.1501 30.876C19.106 30.5234 19.1645 30.2169 19.3718 29.919L19.3953 29.8857C19.4616 29.7915 19.508 29.7122 19.537 29.6472C19.557 29.6023 19.5663 29.5701 19.5689 29.5484L19.5693 29.5439C19.5701 29.534 19.5696 29.5301 19.5533 29.5015L19.52 29.4445L19.5068 29.4215C19.3552 29.152 19.36 28.8862 19.5706 28.5817L19.5836 28.5633L19.5892 28.5549C19.6387 28.4776 19.6195 28.4192 19.4623 28.2023L19.3762 28.0843L19.3483 28.0453C19.3196 28.0049 19.303 27.9797 19.2826 27.9464L19.2589 27.9071C19.1908 27.7907 19.1464 27.679 19.1294 27.5571C19.1248 27.5238 19.1224 27.4904 19.1224 27.4568C19.1224 27.2058 19.2684 27.0359 19.4881 26.9148C19.6 26.8531 19.7295 26.8038 19.9173 26.7454L19.987 26.7242C20.0491 26.7058 20.1787 26.6677 20.2702 26.6405L20.3523 26.6158L20.3903 26.604C20.7837 26.48 20.9845 26.3672 21.0197 26.2779C21.0208 26.275 21.0221 26.2671 21.0218 26.2514C21.0207 26.2238 21.0139 26.187 21 26.1418C20.9684 26.0392 20.9051 25.9098 20.8102 25.7551L20.7808 25.7079C20.6476 25.496 20.519 25.3211 20.2004 24.9172L19.8412 24.4643L19.771 24.3753L19.7106 24.2982C19.5009 24.0294 19.3452 23.8182 19.2103 23.6155L19.1872 23.5805C18.6408 22.7484 18.6218 21.7735 19.1072 20.7009L19.1221 20.6684L19.121 20.5619Z" fill="white"/>
<path d="M20.229 29.0917C20.443 29.4661 20.4108 29.825 20.0264 30.3627C19.9361 30.489 19.9128 30.6022 19.9338 30.7744L19.9359 30.7903C19.9428 30.8413 19.9508 30.8854 19.9678 30.9641L20.0074 31.1431L20.02 31.2021C20.046 31.3272 20.0597 31.4147 20.0674 31.5149L20.0693 31.5418C20.0829 31.7492 20.0599 31.9454 19.9903 32.1407C19.8395 32.5642 19.4807 32.9464 18.8671 33.3278L18.8187 33.3576C18.5203 33.5391 18.2023 33.6744 17.8575 33.7736L17.8039 33.7888C17.4207 33.8955 17.1202 33.9401 16.4798 34.0033L16.2499 34.0257C15.5648 34.0946 15.2762 34.1624 15.0454 34.3271L15.0363 34.3337C14.7603 34.5366 14.6099 34.9176 14.6036 35.6185L14.6033 35.6853C14.5973 36.3084 14.3117 36.7906 13.7729 37.0774C13.2836 37.3378 12.5954 37.4333 11.7017 37.3815C10.0003 37.2829 7.48559 36.6425 4.14168 35.4621L3.74064 35.3205L3.91132 34.9308C4.80609 32.8883 4.42279 30.4744 2.72319 27.6617L2.23048 26.8449C1.73975 26.0287 1.54186 25.6866 1.29905 25.237L1.21495 25.0804L1.16889 24.9934C0.743718 24.1861 0.449617 23.4937 0.258389 22.8195C-0.372172 20.5963 0.123992 18.4676 2.0492 15.5165C4.42035 11.8818 8.76998 11.1122 14.9941 13.1485C18.2629 14.2504 19.9127 16.8171 19.9127 20.7569V20.8474L19.8734 20.9289C19.4462 21.8126 19.4462 22.5354 19.8479 23.1472C19.9824 23.3519 20.144 23.5707 20.3754 23.8657L20.4611 23.9745L20.7974 24.3984C21.1478 24.8418 21.2889 25.0327 21.441 25.2735L21.4816 25.3385L21.5047 25.3765C21.7857 25.8436 21.8923 26.2202 21.7549 26.5685C21.6624 26.8031 21.4795 26.9779 21.2266 27.1172C21.0517 27.2135 20.8538 27.289 20.5847 27.3717L20.5243 27.39C20.4381 27.4157 20.3062 27.4544 20.2343 27.4757L20.1726 27.4943L20.1388 27.5048C20.0731 27.5254 20.019 27.5439 19.9748 27.5607L19.9929 27.587C20.0102 27.6119 20.0311 27.641 20.0559 27.6753L20.0967 27.7313L20.1228 27.7675C20.2538 27.9506 20.3226 28.0727 20.3693 28.2346C20.4454 28.4988 20.4042 28.7652 20.2351 29.0112L20.225 29.0256C20.2214 29.0308 20.218 29.0356 20.2149 29.0402L20.2065 29.0533L20.229 29.0917ZM19.1212 20.5623C19.0698 17.0602 17.6198 14.8675 14.7452 13.8985C8.82782 11.9626 4.85217 12.6661 2.71089 15.9484C0.900825 18.723 0.457388 20.6254 1.0185 22.6038C1.1962 23.2303 1.47681 23.887 1.89069 24.6682L1.96851 24.8137C2.23558 25.31 2.43653 25.656 3.02967 26.6404L3.39938 27.2529C5.11771 30.0966 5.5929 32.6375 4.79284 34.8527C7.87837 35.9235 10.2013 36.5029 11.7474 36.5925L11.8079 36.5958C12.5389 36.6325 13.0723 36.5551 13.4018 36.3797C13.6806 36.2313 13.8091 36.0166 13.8132 35.6817L13.8134 35.6361C13.8183 34.6812 14.0672 34.0545 14.5865 33.6838C14.8119 33.5229 15.0762 33.4184 15.398 33.3483L15.4283 33.3419C15.6245 33.3006 15.813 33.2752 16.1328 33.2431L16.4247 33.2145C17.0053 33.1569 17.2722 33.1167 17.598 33.0257L17.6391 33.0141C17.919 32.9335 18.1725 32.8257 18.4082 32.6823L18.45 32.6566C18.9239 32.3623 19.1634 32.1076 19.2461 31.8754C19.3019 31.7188 19.2956 31.5861 19.2275 31.2754L19.1995 31.1493L19.1922 31.1158C19.1728 31.0252 19.1627 30.9685 19.1529 30.8961L19.1503 30.8764C19.1063 30.5239 19.1647 30.2174 19.372 29.9195L19.3956 29.8861C19.4618 29.792 19.5082 29.7127 19.5372 29.6476C19.5572 29.6028 19.5666 29.5705 19.5691 29.5489L19.5696 29.5444C19.5704 29.5344 19.5698 29.5305 19.5535 29.502L19.5202 29.4449L19.5071 29.422C19.3555 29.1525 19.3603 28.8866 19.5709 28.5822L19.5838 28.5637L19.5894 28.5554C19.639 28.4781 19.6198 28.4196 19.4626 28.2028L19.3765 28.0848L19.3485 28.0458C19.3198 28.0054 19.3032 27.9801 19.2828 27.9469L19.2592 27.9076C19.1911 27.7912 19.1466 27.6795 19.1296 27.5575C19.125 27.5243 19.1226 27.4909 19.1226 27.4573C19.1226 27.2063 19.2686 27.0364 19.4883 26.9153C19.6003 26.8536 19.7297 26.8043 19.9176 26.7459L19.9872 26.7247C20.0494 26.7062 20.179 26.6682 20.2704 26.641L20.3525 26.6163L20.3906 26.6045C20.7839 26.4804 20.9847 26.3677 21.02 26.2784C21.0211 26.2755 21.0223 26.2676 21.022 26.2519C21.0209 26.2243 21.0141 26.1875 21.0002 26.1423C20.9686 26.0397 20.9054 25.9103 20.8105 25.7556L20.7811 25.7084C20.6478 25.4965 20.5193 25.3216 20.2007 24.9177L19.8414 24.4648L19.7712 24.3758L19.7108 24.2987C19.5012 24.0299 19.3454 23.8187 19.2106 23.6159L19.1875 23.581C18.6411 22.7488 18.622 21.774 19.1075 20.7014L19.1223 20.6689L19.1212 20.5623Z" fill="#FF9900"/>
<path d="M19.121 56.0541C19.0695 52.5519 17.6195 50.3592 14.7449 49.3902C8.82757 47.4543 4.85192 48.1578 2.71064 51.4401C0.900573 54.2147 0.457136 56.1171 1.01825 58.0955C1.19595 58.7221 1.47656 59.3787 1.89044 60.1599L1.96826 60.3054C2.23532 60.8017 2.43628 61.1477 3.02942 62.1321L3.39913 62.7446C5.11746 65.5883 5.59264 68.1292 4.79259 70.3444C7.87812 71.4152 10.201 71.9947 11.7471 72.0842L11.8077 72.0875C12.5386 72.1242 13.072 72.0468 13.4016 71.8714C13.6804 71.723 13.8089 71.5083 13.8129 71.1734L13.8131 71.1278C13.818 70.1729 14.0669 69.5462 14.5862 69.1755C14.8117 69.0146 15.0759 68.9101 15.3978 68.84L15.428 68.8336C15.6242 68.7923 15.8128 68.7669 16.1326 68.7348L16.4245 68.7062C17.0051 68.6486 17.272 68.6084 17.5977 68.5174L17.6389 68.5058C17.9187 68.4252 18.1722 68.3174 18.4079 68.174L18.4497 68.1483C18.9236 67.854 19.1631 67.5993 19.2458 67.3672C19.3016 67.2105 19.2954 67.0778 19.2272 66.7671L19.1992 66.641L19.192 66.6075C19.1726 66.5169 19.1624 66.4602 19.1526 66.3878L19.1501 66.3681C19.106 66.0156 19.1645 65.7091 19.3718 65.4112L19.3953 65.3779C19.4616 65.2837 19.508 65.2044 19.537 65.1393C19.557 65.0945 19.5663 65.0623 19.5689 65.0406L19.5693 65.0361C19.5701 65.0261 19.5696 65.0222 19.5533 64.9937L19.52 64.9366L19.5068 64.9137C19.3552 64.6442 19.36 64.3784 19.5706 64.0739L19.5836 64.0554L19.5892 64.0471C19.6387 63.9698 19.6195 63.9114 19.4623 63.6945L19.3762 63.5765L19.3483 63.5375C19.3196 63.4971 19.303 63.4719 19.2826 63.4386L19.2589 63.3993C19.1908 63.2829 19.1464 63.1712 19.1294 63.0492C19.1248 63.016 19.1224 62.9826 19.1224 62.949C19.1224 62.698 19.2684 62.5281 19.4881 62.407C19.6 62.3453 19.7295 62.296 19.9173 62.2376L19.987 62.2164C20.0491 62.1979 20.1787 62.1599 20.2702 62.1327L20.3523 62.108L20.3903 62.0962C20.7837 61.9722 20.9845 61.8594 21.0197 61.7701C21.0208 61.7672 21.0221 61.7593 21.0218 61.7436C21.0207 61.716 21.0139 61.6792 21 61.634C20.9684 61.5314 20.9051 61.402 20.8102 61.2473L20.7808 61.2001C20.6476 60.9882 20.519 60.8133 20.2004 60.4094L19.8412 59.9565L19.771 59.8675L19.7106 59.7904C19.5009 59.5216 19.3452 59.3104 19.2103 59.1076L19.1872 59.0727C18.6408 58.2405 18.6218 57.2657 19.1072 56.1931L19.1221 56.1606L19.121 56.0541Z" fill="white"/>
<path d="M20.229 64.5838C20.443 64.9583 20.4108 65.3172 20.0264 65.8548C19.9361 65.9811 19.9128 66.0944 19.9338 66.2666L19.9359 66.2825C19.9428 66.3335 19.9508 66.3776 19.9678 66.4563L20.0074 66.6353L20.02 66.6943C20.046 66.8194 20.0597 66.9068 20.0674 67.0071L20.0693 67.034C20.0829 67.2414 20.0599 67.4376 19.9903 67.6329C19.8395 68.0564 19.4807 68.4386 18.8671 68.82L18.8187 68.8497C18.5203 69.0313 18.2023 69.1666 17.8575 69.2658L17.8039 69.2809C17.4207 69.3877 17.1202 69.4323 16.4798 69.4954L16.2499 69.5179C15.5648 69.5868 15.2762 69.6546 15.0454 69.8193L15.0363 69.8259C14.7603 70.0288 14.6099 70.4098 14.6036 71.1106L14.6033 71.1775C14.5973 71.8006 14.3117 72.2828 13.7729 72.5695C13.2836 72.83 12.5954 72.9255 11.7017 72.8737C10.0003 72.7751 7.48559 72.1347 4.14168 70.9542L3.74064 70.8127L3.91132 70.423C4.80609 68.3805 4.42279 65.9666 2.72319 63.1539L2.23048 62.3371C1.73975 61.5209 1.54186 61.1788 1.29905 60.7292L1.21495 60.5726L1.16889 60.4856C0.743718 59.6783 0.449617 58.9859 0.258389 58.3117C-0.372172 56.0884 0.123992 53.9598 2.0492 51.0087C4.42035 47.374 8.76998 46.6044 14.9941 48.6406C18.2629 49.7425 19.9127 52.3093 19.9127 56.2491V56.3396L19.8734 56.4211C19.4462 57.3048 19.4462 58.0276 19.8479 58.6394C19.9824 58.8441 20.144 59.0629 20.3754 59.3579L20.4611 59.4667L20.7974 59.8906C21.1478 60.334 21.2889 60.5249 21.441 60.7656L21.4816 60.8307L21.5047 60.8687C21.7857 61.3358 21.8923 61.7124 21.7549 62.0606C21.6624 62.2952 21.4795 62.4701 21.2266 62.6094C21.0517 62.7057 20.8538 62.7812 20.5847 62.8639L20.5243 62.8822C20.4381 62.9079 20.3062 62.9466 20.2343 62.9679L20.1726 62.9865L20.1388 62.997C20.0731 63.0176 20.019 63.036 19.9748 63.0529L19.9929 63.0791C20.0102 63.104 20.0311 63.1332 20.0559 63.1675L20.0967 63.2235L20.1228 63.2597C20.2538 63.4428 20.3226 63.5649 20.3693 63.7268C20.4454 63.991 20.4042 64.2574 20.2351 64.5034L20.225 64.5178C20.2214 64.5229 20.218 64.5278 20.2149 64.5324L20.2065 64.5454L20.229 64.5838ZM19.1212 56.0545C19.0698 52.5524 17.6198 50.3597 14.7452 49.3907C8.82782 47.4548 4.85217 48.1582 2.71089 51.4406C0.900825 54.2152 0.457388 56.1176 1.0185 58.096C1.1962 58.7225 1.47681 59.3792 1.89069 60.1604L1.96851 60.3059C2.23558 60.8022 2.43653 61.1482 3.02967 62.1326L3.39938 62.7451C5.11771 65.5888 5.5929 68.1297 4.79284 70.3449C7.87837 71.4157 10.2013 71.9951 11.7474 72.0847L11.8079 72.088C12.5389 72.1247 13.0723 72.0472 13.4018 71.8719C13.6806 71.7235 13.8091 71.5087 13.8132 71.1739L13.8134 71.1283C13.8183 70.1734 14.0672 69.5467 14.5865 69.176C14.8119 69.0151 15.0762 68.9106 15.398 68.8405L15.4283 68.834C15.6245 68.7928 15.813 68.7674 16.1328 68.7353L16.4247 68.7067C17.0053 68.6491 17.2722 68.6089 17.598 68.5179L17.6391 68.5062C17.919 68.4257 18.1725 68.3179 18.4082 68.1745L18.45 68.1488C18.9239 67.8545 19.1634 67.5997 19.2461 67.3676C19.3019 67.211 19.2956 67.0783 19.2275 66.7676L19.1995 66.6415L19.1922 66.608C19.1728 66.5174 19.1627 66.4607 19.1529 66.3883L19.1503 66.3686C19.1063 66.0161 19.1647 65.7096 19.372 65.4116L19.3956 65.3783C19.4618 65.2842 19.5082 65.2049 19.5372 65.1398C19.5572 65.0949 19.5666 65.0627 19.5691 65.0411L19.5696 65.0366C19.5704 65.0266 19.5698 65.0227 19.5535 64.9942L19.5202 64.9371L19.5071 64.9142C19.3555 64.6446 19.3603 64.3788 19.5709 64.0744L19.5838 64.0559L19.5894 64.0476C19.639 63.9703 19.6198 63.9118 19.4626 63.695L19.3765 63.5769L19.3485 63.538C19.3198 63.4976 19.3032 63.4723 19.2828 63.4391L19.2592 63.3998C19.1911 63.2834 19.1466 63.1717 19.1296 63.0497C19.125 63.0165 19.1226 62.9831 19.1226 62.9495C19.1226 62.6984 19.2686 62.5285 19.4883 62.4075C19.6003 62.3458 19.7297 62.2965 19.9176 62.2381L19.9872 62.2169C20.0494 62.1984 20.179 62.1603 20.2704 62.1332L20.3525 62.1085L20.3906 62.0967C20.7839 61.9726 20.9847 61.8599 21.02 61.7706C21.0211 61.7677 21.0223 61.7598 21.022 61.7441C21.0209 61.7164 21.0141 61.6796 21.0002 61.6345C20.9686 61.5319 20.9054 61.4025 20.8105 61.2478L20.7811 61.2006C20.6478 60.9887 20.5193 60.8138 20.2007 60.4099L19.8414 59.957L19.7712 59.868L19.7108 59.7909C19.5012 59.5221 19.3454 59.3109 19.2106 59.1081L19.1875 59.0732C18.6411 58.241 18.622 57.2662 19.1075 56.1936L19.1223 56.1611L19.1212 56.0545Z" fill="#FF9900"/>
<path d="M50.0897 8.5189C50.0383 5.01674 48.5883 2.82408 45.7137 1.85503C39.7963 -0.0808166 35.8207 0.62261 33.6794 3.90494C31.8693 6.67956 31.4259 8.58198 31.987 10.5604C32.1647 11.1869 32.4453 11.8436 32.8592 12.6247L32.937 12.7703C33.2041 13.2666 33.405 13.6125 33.9982 14.597L34.3679 15.2095C36.0862 18.0531 36.5614 20.594 35.7613 22.8093C38.8469 23.8801 41.1698 24.4595 42.7159 24.5491L42.7764 24.5524C43.5074 24.5891 44.0408 24.5116 44.3703 24.3362C44.6491 24.1878 44.7776 23.9731 44.7817 23.6382L44.7818 23.5926C44.7868 22.6378 45.0357 22.011 45.555 21.6404C45.7804 21.4795 46.0447 21.375 46.3665 21.3049L46.3968 21.2984C46.593 21.2571 46.7815 21.2317 47.1013 21.1996L47.3932 21.1711C47.9738 21.1134 48.2407 21.0732 48.5665 20.9823L48.6076 20.9706C48.8875 20.8901 49.141 20.7823 49.3767 20.6389L49.4185 20.6132C49.8924 20.3189 50.1319 20.0641 50.2146 19.832C50.2704 19.6753 50.2641 19.5427 50.196 19.2319L50.168 19.1058L50.1607 19.0724C50.1413 18.9818 50.1312 18.9251 50.1214 18.8526L50.1188 18.833C50.0748 18.4804 50.1332 18.174 50.3405 17.876L50.3641 17.8427C50.4303 17.7486 50.4767 17.6693 50.5057 17.6042C50.5257 17.5593 50.5351 17.5271 50.5376 17.5054L50.5381 17.501C50.5389 17.491 50.5383 17.4871 50.522 17.4586L50.4887 17.4015L50.4756 17.3785C50.324 17.109 50.3288 16.8432 50.5394 16.5388L50.5523 16.5203L50.5579 16.5119C50.6075 16.4346 50.5883 16.3762 50.4311 16.1594L50.345 16.0413L50.317 16.0024C50.2883 15.9619 50.2717 15.9367 50.2513 15.9034L50.2277 15.8641C50.1596 15.7477 50.1151 15.6361 50.0981 15.5141C50.0935 15.4809 50.0911 15.4474 50.0911 15.4139C50.0911 15.1628 50.2371 14.9929 50.4568 14.8718C50.5688 14.8101 50.6982 14.7609 50.8861 14.7025L50.9557 14.6813C51.0179 14.6628 51.1475 14.6247 51.2389 14.5975L51.321 14.5729L51.3591 14.561C51.7524 14.437 51.9532 14.3242 51.9885 14.2349C51.9896 14.2321 51.9908 14.2242 51.9905 14.2085C51.9894 14.1808 51.9826 14.144 51.9687 14.0988C51.9371 13.9963 51.8739 13.8669 51.779 13.7121L51.7496 13.6649C51.6163 13.4531 51.4878 13.2782 51.1692 12.8743L50.8099 12.4214L50.7397 12.3324L50.6793 12.2552C50.4697 11.9864 50.3139 11.7752 50.1791 11.5725L50.156 11.5376C49.6096 10.7054 49.5905 9.73058 50.076 8.65796L50.0908 8.62543L50.0897 8.5189Z" fill="white"/>
<path d="M51.1977 17.0487C51.4118 17.4232 51.3795 17.7821 50.9951 18.3197C50.9048 18.446 50.8815 18.5593 50.9026 18.7315L50.9046 18.7473C50.9115 18.7984 50.9196 18.8425 50.9365 18.9211L50.9762 19.1001L50.9887 19.1592C51.0148 19.2843 51.0284 19.3717 51.0362 19.4719L51.0381 19.4988C51.0517 19.7062 51.0287 19.9024 50.9591 20.0977C50.8082 20.5213 50.4495 20.9035 49.8358 21.2849L49.7875 21.3146C49.489 21.4962 49.1711 21.6314 48.8263 21.7306L48.7726 21.7458C48.3894 21.8526 48.0889 21.8971 47.4486 21.9603L47.2187 21.9827C46.5336 22.0517 46.245 22.1194 46.0142 22.2842L46.005 22.2908C45.729 22.4937 45.5787 22.8747 45.5723 23.5755L45.572 23.6423C45.566 24.2654 45.2805 24.7477 44.7417 25.0344C44.2523 25.2948 43.5642 25.3903 42.6704 25.3386C40.969 25.24 38.4543 24.5996 35.1104 23.4191L34.7094 23.2775L34.8801 22.8879C35.7748 20.8453 35.3915 18.4314 33.6919 15.6188L33.1992 14.8019C32.7085 13.9857 32.5106 13.6437 32.2678 13.1941L32.1837 13.0374L32.1376 12.9505C31.7125 12.1432 31.4184 11.4508 31.2271 10.7765C30.5966 8.55328 31.0927 6.42465 33.0179 3.47353C35.3891 -0.161159 39.7387 -0.930756 45.9629 1.10548C49.2317 2.20739 50.8815 4.77414 50.8815 8.7139V8.80441L50.8421 8.8859C50.415 9.76963 50.415 10.4924 50.8166 11.1042C50.9511 11.309 51.1127 11.5277 51.3441 11.8228L51.4298 11.9315L51.7662 12.3554C52.1166 12.7988 52.2577 12.9897 52.4097 13.2305L52.4503 13.2955L52.4735 13.3336C52.7545 13.8006 52.8611 14.1772 52.7237 14.5255C52.6311 14.7601 52.4482 14.9349 52.1953 15.0742C52.0205 15.1705 51.8226 15.246 51.5535 15.3288L51.493 15.347C51.4069 15.3727 51.275 15.4115 51.2031 15.4328L51.1413 15.4513L51.1075 15.4618C51.0419 15.4824 50.9878 15.5009 50.9436 15.5177L50.9617 15.544C50.979 15.5689 50.9998 15.5981 51.0247 15.6324L51.0655 15.6883L51.0916 15.7245C51.2225 15.9076 51.2914 16.0297 51.338 16.1917C51.4141 16.4559 51.373 16.7223 51.2039 16.9682L51.1938 16.9826C51.1901 16.9878 51.1868 16.9927 51.1837 16.9973L51.1753 17.0103L51.1977 17.0487ZM50.09 8.51938C50.0385 5.01722 48.5885 2.82456 45.7139 1.85551C39.7966 -0.0803352 35.8209 0.623092 33.6796 3.90542C31.8696 6.68004 31.4261 8.58246 31.9872 10.5608C32.1649 11.1874 32.4456 11.8441 32.8594 12.6252L32.9373 12.7708C33.2043 13.2671 33.4053 13.613 33.9984 14.5974L34.3681 15.21C36.0865 18.0536 36.5616 20.5945 35.7616 22.8097C38.8471 23.8805 41.17 24.46 42.7161 24.5496L42.7767 24.5528C43.5076 24.5896 44.041 24.5121 44.3706 24.3367C44.6494 24.1883 44.7779 23.9736 44.7819 23.6387L44.7821 23.5931C44.787 22.6383 45.0359 22.0115 45.5552 21.6409C45.7807 21.4799 46.0449 21.3755 46.3668 21.3054L46.397 21.2989C46.5932 21.2576 46.7818 21.2322 47.1016 21.2001L47.3935 21.1716C47.9741 21.1139 48.241 21.0737 48.5667 20.9827L48.6079 20.9711C48.8877 20.8906 49.1412 20.7828 49.3769 20.6394L49.4187 20.6137C49.8926 20.3194 50.1321 20.0646 50.2148 19.8325C50.2706 19.6758 50.2644 19.5432 50.1962 19.2324L50.1682 19.1063L50.161 19.0729C50.1416 18.9822 50.1314 18.9255 50.1216 18.8531L50.1191 18.8335C50.075 18.4809 50.1335 18.1744 50.3408 17.8765L50.3643 17.8432C50.4306 17.7491 50.477 17.6697 50.506 17.6047C50.526 17.5598 50.5353 17.5276 50.5379 17.5059L50.5383 17.5014C50.5391 17.4915 50.5386 17.4876 50.5223 17.459L50.489 17.402L50.4758 17.379C50.3242 17.1095 50.329 16.8437 50.5396 16.5392L50.5526 16.5208L50.5582 16.5124C50.6077 16.4351 50.5885 16.3767 50.4313 16.1598L50.3452 16.0418L50.3173 16.0028C50.2886 15.9624 50.272 15.9372 50.2516 15.9039L50.2279 15.8646C50.1598 15.7482 50.1154 15.6365 50.0984 15.5146C50.0938 15.4813 50.0914 15.4479 50.0914 15.4144C50.0914 15.1633 50.2374 14.9934 50.4571 14.8723C50.569 14.8106 50.6985 14.7613 50.8863 14.703L50.956 14.6818C51.0181 14.6633 51.1477 14.6252 51.2392 14.598L51.3213 14.5734L51.3593 14.5615C51.7527 14.4375 51.9535 14.3247 51.9887 14.2354C51.9898 14.2326 51.9911 14.2247 51.9908 14.2089C51.9897 14.1813 51.9829 14.1445 51.969 14.0993C51.9374 13.9968 51.8741 13.8673 51.7792 13.7126L51.7498 13.6654C51.6166 13.4535 51.488 13.2787 51.1694 12.8748L50.8102 12.4218L50.74 12.3329L50.6796 12.2557C50.4699 11.9869 50.3142 11.7757 50.1793 11.573L50.1562 11.538C49.6098 10.7059 49.5908 9.73106 50.0762 8.65844L50.0911 8.62591L50.09 8.51938Z" fill="#FF9900"/>
<path d="M50.0897 73.1673C50.0383 69.6652 48.5883 67.4725 45.7137 66.5035C39.7963 64.5676 35.8207 65.271 33.6794 68.5534C31.8693 71.328 31.4259 73.2304 31.987 75.2088C32.1647 75.8353 32.4453 76.492 32.8592 77.2732L32.937 77.4187C33.2041 77.915 33.405 78.261 33.9982 79.2454L34.3679 79.8579C36.0862 82.7016 36.5614 85.2425 35.7613 87.4577C38.8469 88.5285 41.1698 89.1079 42.7159 89.1975L42.7764 89.2008C43.5074 89.2375 44.0408 89.16 44.3703 88.9847C44.6491 88.8363 44.7776 88.6215 44.7817 88.2867L44.7818 88.2411C44.7868 87.2862 45.0357 86.6595 45.555 86.2888C45.7804 86.1279 46.0447 86.0234 46.3665 85.9533L46.3968 85.9468C46.593 85.9056 46.7815 85.8802 47.1013 85.8481L47.3932 85.8195C47.9738 85.7619 48.2407 85.7217 48.5665 85.6307L48.6076 85.619C48.8875 85.5385 49.141 85.4307 49.3767 85.2873L49.4185 85.2616C49.8924 84.9673 50.1319 84.7125 50.2146 84.4804C50.2704 84.3238 50.2641 84.1911 50.196 83.8804L50.168 83.7543L50.1607 83.7208C50.1413 83.6302 50.1312 83.5735 50.1214 83.5011L50.1188 83.4814C50.0748 83.1289 50.1332 82.8224 50.3405 82.5244L50.3641 82.4911C50.4303 82.397 50.4767 82.3177 50.5057 82.2526C50.5257 82.2077 50.5351 82.1755 50.5376 82.1539L50.5381 82.1494C50.5389 82.1394 50.5383 82.1355 50.522 82.107L50.4887 82.0499L50.4756 82.027C50.324 81.7574 50.3288 81.4916 50.5394 81.1872L50.5523 81.1687L50.5579 81.1604C50.6075 81.0831 50.5883 81.0246 50.4311 80.8078L50.345 80.6897L50.317 80.6508C50.2883 80.6104 50.2717 80.5851 50.2513 80.5519L50.2277 80.5126C50.1596 80.3962 50.1151 80.2845 50.0981 80.1625C50.0935 80.1293 50.0911 80.0959 50.0911 80.0623C50.0911 79.8112 50.2371 79.6413 50.4568 79.5203C50.5688 79.4586 50.6982 79.4093 50.8861 79.3509L50.9557 79.3297C51.0179 79.3112 51.1475 79.2731 51.2389 79.246L51.321 79.2213L51.3591 79.2095C51.7524 79.0854 51.9532 78.9727 51.9885 78.8834C51.9896 78.8805 51.9908 78.8726 51.9905 78.8569C51.9894 78.8292 51.9826 78.7924 51.9687 78.7473C51.9371 78.6447 51.8739 78.5153 51.779 78.3606L51.7496 78.3134C51.6163 78.1015 51.4878 77.9266 51.1692 77.5227L50.8099 77.0698L50.7397 76.9808L50.6793 76.9037C50.4697 76.6349 50.3139 76.4237 50.1791 76.2209L50.156 76.186C49.6096 75.3538 49.5905 74.379 50.076 73.3064L50.0908 73.2739L50.0897 73.1673Z" fill="white"/>
<path d="M51.1977 81.6971C51.4118 82.0716 51.3795 82.4305 50.9951 82.9681C50.9048 83.0944 50.8815 83.2077 50.9026 83.3799L50.9046 83.3957C50.9115 83.4468 50.9196 83.4909 50.9365 83.5695L50.9762 83.7486L50.9887 83.8076C51.0148 83.9327 51.0284 84.0201 51.0362 84.1203L51.0381 84.1473C51.0517 84.3547 51.0287 84.5509 50.9591 84.7462C50.8082 85.1697 50.4495 85.5519 49.8358 85.9333L49.7875 85.963C49.489 86.1446 49.1711 86.2798 48.8263 86.379L48.7726 86.3942C48.3894 86.501 48.0889 86.5455 47.4486 86.6087L47.2187 86.6312C46.5336 86.7001 46.245 86.7679 46.0142 86.9326L46.005 86.9392C45.729 87.1421 45.5787 87.5231 45.5723 88.2239L45.572 88.2908C45.566 88.9138 45.2805 89.3961 44.7417 89.6828C44.2523 89.9433 43.5642 90.0388 42.6704 89.987C40.969 89.8884 38.4543 89.248 35.1104 88.0675L34.7094 87.926L34.8801 87.5363C35.7748 85.4938 35.3915 83.0798 33.6919 80.2672L33.1992 79.4503C32.7085 78.6341 32.5106 78.2921 32.2678 77.8425L32.1837 77.6858L32.1376 77.5989C31.7125 76.7916 31.4184 76.0992 31.2271 75.425C30.5966 73.2017 31.0927 71.0731 33.0179 68.122C35.3891 64.4873 39.7387 63.7177 45.9629 65.7539C49.2317 66.8558 50.8815 69.4226 50.8815 73.3623V73.4528L50.8421 73.5343C50.415 74.4181 50.415 75.1409 50.8166 75.7526C50.9511 75.9574 51.1127 76.1761 51.3441 76.4712L51.4298 76.58L51.7662 77.0038C52.1166 77.4473 52.2577 77.6382 52.4097 77.8789L52.4503 77.9439L52.4735 77.982C52.7545 78.449 52.8611 78.8257 52.7237 79.1739C52.6311 79.4085 52.4482 79.5833 52.1953 79.7227C52.0205 79.8189 51.8226 79.8944 51.5535 79.9772L51.493 79.9954C51.4069 80.0212 51.275 80.0599 51.2031 80.0812L51.1413 80.0998L51.1075 80.1103C51.0419 80.1309 50.9878 80.1493 50.9436 80.1662L50.9617 80.1924C50.979 80.2173 50.9998 80.2465 51.0247 80.2808L51.0655 80.3368L51.0916 80.373C51.2225 80.5561 51.2914 80.6782 51.338 80.8401C51.4141 81.1043 51.373 81.3707 51.2039 81.6166L51.1938 81.6311C51.1901 81.6362 51.1868 81.6411 51.1837 81.6457L51.1753 81.6587L51.1977 81.6971ZM50.09 73.1678C50.0385 69.6657 48.5885 67.473 45.7139 66.504C39.7966 64.5681 35.8209 65.2715 33.6796 68.5539C31.8696 71.3285 31.4261 73.2309 31.9872 75.2093C32.1649 75.8358 32.4456 76.4925 32.8594 77.2736L32.9373 77.4192C33.2043 77.9155 33.4053 78.2614 33.9984 79.2459L34.3681 79.8584C36.0865 82.7021 36.5616 85.243 35.7616 87.4582C38.8471 88.529 41.17 89.1084 42.7161 89.198L42.7767 89.2013C43.5076 89.238 44.041 89.1605 44.3706 88.9851C44.6494 88.8368 44.7779 88.622 44.7819 88.2872L44.7821 88.2416C44.787 87.2867 45.0359 86.66 45.5552 86.2893C45.7807 86.1284 46.0449 86.0239 46.3668 85.9538L46.397 85.9473C46.5932 85.906 46.7818 85.8806 47.1016 85.8485L47.3935 85.82C47.9741 85.7623 48.241 85.7221 48.5667 85.6312L48.6079 85.6195C48.8877 85.539 49.1412 85.4312 49.3769 85.2878L49.4187 85.2621C49.8926 84.9678 50.1321 84.713 50.2148 84.4809C50.2706 84.3242 50.2644 84.1916 50.1962 83.8808L50.1682 83.7548L50.161 83.7213C50.1416 83.6307 50.1314 83.574 50.1216 83.5015L50.1191 83.4819C50.075 83.1294 50.1335 82.8229 50.3408 82.5249L50.3643 82.4916C50.4306 82.3975 50.477 82.3182 50.506 82.2531C50.526 82.2082 50.5353 82.176 50.5379 82.1544L50.5383 82.1499C50.5391 82.1399 50.5386 82.136 50.5223 82.1075L50.489 82.0504L50.4758 82.0275C50.3242 81.7579 50.329 81.4921 50.5396 81.1877L50.5526 81.1692L50.5582 81.1608C50.6077 81.0835 50.5885 81.0251 50.4313 80.8083L50.3452 80.6902L50.3173 80.6513C50.2886 80.6108 50.272 80.5856 50.2516 80.5524L50.2279 80.5131C50.1598 80.3966 50.1154 80.285 50.0984 80.163C50.0938 80.1298 50.0914 80.0964 50.0914 80.0628C50.0914 79.8117 50.2374 79.6418 50.4571 79.5208C50.569 79.4591 50.6985 79.4098 50.8863 79.3514L50.956 79.3302C51.0181 79.3117 51.1477 79.2736 51.2392 79.2464L51.3213 79.2218L51.3593 79.2099C51.7527 79.0859 51.9535 78.9732 51.9887 78.8839C51.9898 78.881 51.9911 78.8731 51.9908 78.8574C51.9897 78.8297 51.9829 78.7929 51.969 78.7477C51.9374 78.6452 51.8741 78.5158 51.7792 78.361L51.7498 78.3138C51.6166 78.102 51.488 77.9271 51.1694 77.5232L50.8102 77.0703L50.74 76.9813L50.6796 76.9041C50.4699 76.6353 50.3142 76.4241 50.1793 76.2214L50.1562 76.1865C49.6098 75.3543 49.5908 74.3795 50.0762 73.3069L50.0911 73.2743L50.09 73.1678Z" fill="#FF9900"/>
<path d="M81.1459 20.5619C81.0944 17.0597 79.6444 14.867 76.7698 13.898C70.8525 11.9622 66.8768 12.6656 64.7355 15.9479C62.9255 18.7225 62.482 20.625 63.0431 22.6033C63.2208 23.2299 63.5015 23.8866 63.9153 24.6677L63.9932 24.8133C64.2602 25.3096 64.4612 25.6555 65.0543 26.6399L65.424 27.2524C67.1424 30.0961 67.6175 32.637 66.8175 34.8522C69.903 35.923 72.2259 36.5025 73.772 36.5921L73.8326 36.5953C74.5635 36.632 75.0969 36.5546 75.4265 36.3792C75.7053 36.2308 75.8338 36.0161 75.8378 35.6812L75.838 35.6356C75.8429 34.6808 76.0918 34.054 76.6111 33.6833C76.8366 33.5224 77.1008 33.418 77.4227 33.3479L77.453 33.3414C77.6491 33.3001 77.8377 33.2747 78.1575 33.2426L78.4494 33.2141C79.03 33.1564 79.2969 33.1162 79.6226 33.0252L79.6638 33.0136C79.9436 32.9331 80.1971 32.8252 80.4328 32.6819L80.4746 32.6562C80.9485 32.3618 81.188 32.1071 81.2707 31.875C81.3265 31.7183 81.3203 31.5857 81.2521 31.2749L81.2241 31.1488L81.2169 31.1153C81.1975 31.0247 81.1873 30.968 81.1775 30.8956L81.175 30.876C81.1309 30.5234 81.1894 30.2169 81.3967 29.919L81.4202 29.8857C81.4865 29.7915 81.5329 29.7122 81.5619 29.6472C81.5819 29.6023 81.5912 29.5701 81.5938 29.5484L81.5942 29.5439C81.595 29.534 81.5945 29.5301 81.5782 29.5015L81.5449 29.4445L81.5317 29.4215C81.3801 29.152 81.3849 28.8862 81.5955 28.5817L81.6085 28.5633L81.6141 28.5549C81.6636 28.4776 81.6444 28.4192 81.4872 28.2023L81.4011 28.0843L81.3732 28.0453C81.3445 28.0049 81.3279 27.9797 81.3075 27.9464L81.2838 27.9071C81.2157 27.7907 81.1713 27.679 81.1543 27.5571C81.1497 27.5238 81.1473 27.4904 81.1473 27.4568C81.1473 27.2058 81.2933 27.0359 81.513 26.9148C81.6249 26.8531 81.7544 26.8038 81.9422 26.7454L82.0119 26.7242C82.074 26.7058 82.2036 26.6677 82.2951 26.6405L82.3772 26.6158L82.4152 26.604C82.8086 26.48 83.0094 26.3672 83.0446 26.2779C83.0457 26.275 83.047 26.2671 83.0467 26.2514C83.0456 26.2238 83.0388 26.187 83.0249 26.1418C82.9933 26.0392 82.93 25.9098 82.8351 25.7551L82.8057 25.7079C82.6725 25.496 82.5439 25.3211 82.2253 24.9172L81.8661 24.4643L81.7959 24.3753L81.7355 24.2982C81.5258 24.0294 81.3701 23.8182 81.2352 23.6155L81.2121 23.5805C80.6657 22.7484 80.6467 21.7735 81.1321 20.7009L81.147 20.6684L81.1459 20.5619Z" fill="white"/>
<path d="M82.2539 29.0917C82.4679 29.4661 82.4357 29.825 82.0513 30.3627C81.961 30.489 81.9377 30.6022 81.9587 30.7744L81.9608 30.7903C81.9677 30.8413 81.9757 30.8854 81.9927 30.9641L82.0323 31.1431L82.0449 31.2021C82.0709 31.3272 82.0846 31.4147 82.0923 31.5149L82.0942 31.5418C82.1078 31.7492 82.0848 31.9454 82.0152 32.1407C81.8644 32.5642 81.5056 32.9464 80.892 33.3278L80.8436 33.3576C80.5452 33.5391 80.2272 33.6744 79.8824 33.7736L79.8288 33.7888C79.4456 33.8955 79.1451 33.9401 78.5047 34.0033L78.2748 34.0257C77.5897 34.0946 77.3011 34.1624 77.0703 34.3271L77.0612 34.3337C76.7852 34.5366 76.6348 34.9176 76.6285 35.6185L76.6282 35.6853C76.6222 36.3084 76.3366 36.7906 75.7978 37.0774C75.3085 37.3378 74.6203 37.4333 73.7266 37.3815C72.0252 37.2829 69.5105 36.6425 66.1666 35.4621L65.7655 35.3205L65.9362 34.9308C66.831 32.8883 66.4477 30.4744 64.7481 27.6617L64.2554 26.8449C63.7646 26.0287 63.5668 25.6866 63.324 25.237L63.2398 25.0804L63.1938 24.9934C62.7686 24.1861 62.4745 23.4937 62.2833 22.8195C61.6527 20.5963 62.1489 18.4676 64.0741 15.5165C66.4453 11.8818 70.7949 11.1122 77.019 13.1485C80.2878 14.2504 81.9376 16.8171 81.9376 20.7569V20.8474L81.8983 20.9289C81.4711 21.8126 81.4711 22.5354 81.8728 23.1472C82.0073 23.3519 82.1689 23.5707 82.4003 23.8657L82.486 23.9745L82.8223 24.3984C83.1727 24.8418 83.3138 25.0327 83.4659 25.2735L83.5065 25.3385L83.5296 25.3765C83.8106 25.8436 83.9172 26.2202 83.7798 26.5685C83.6873 26.8031 83.5044 26.9779 83.2515 27.1172C83.0766 27.2135 82.8787 27.289 82.6096 27.3717L82.5492 27.39C82.463 27.4157 82.3311 27.4544 82.2592 27.4757L82.1975 27.4943L82.1637 27.5048C82.098 27.5254 82.0439 27.5439 81.9997 27.5607L82.0178 27.587C82.0351 27.6119 82.056 27.641 82.0808 27.6753L82.1216 27.7313L82.1477 27.7675C82.2787 27.9506 82.3475 28.0727 82.3942 28.2346C82.4703 28.4988 82.4291 28.7652 82.26 29.0112L82.2499 29.0256C82.2463 29.0308 82.2429 29.0356 82.2398 29.0402L82.2314 29.0533L82.2539 29.0917ZM81.1461 20.5623C81.0947 17.0602 79.6447 14.8675 76.7701 13.8985C70.8527 11.9626 66.8771 12.6661 64.7358 15.9484C62.9257 18.723 62.4823 20.6254 63.0434 22.6038C63.2211 23.2303 63.5017 23.887 63.9156 24.6682L63.9934 24.8137C64.2605 25.31 64.4614 25.656 65.0546 26.6404L65.4243 27.2529C67.1426 30.0966 67.6178 32.6375 66.8177 34.8527C69.9033 35.9235 72.2262 36.5029 73.7723 36.5925L73.8328 36.5958C74.5638 36.6325 75.0972 36.5551 75.4267 36.3797C75.7055 36.2313 75.834 36.0166 75.8381 35.6817L75.8383 35.6361C75.8432 34.6812 76.0921 34.0545 76.6114 33.6838C76.8368 33.5229 77.1011 33.4184 77.4229 33.3483L77.4532 33.3419C77.6494 33.3006 77.8379 33.2752 78.1577 33.2431L78.4496 33.2145C79.0302 33.1569 79.2971 33.1167 79.6229 33.0257L79.664 33.0141C79.9439 32.9335 80.1974 32.8257 80.4331 32.6823L80.4749 32.6566C80.9488 32.3623 81.1883 32.1076 81.271 31.8754C81.3268 31.7188 81.3205 31.5861 81.2524 31.2754L81.2244 31.1493L81.2171 31.1158C81.1977 31.0252 81.1876 30.9685 81.1778 30.8961L81.1752 30.8764C81.1312 30.5239 81.1896 30.2174 81.3969 29.9195L81.4205 29.8861C81.4867 29.792 81.5331 29.7127 81.5621 29.6476C81.5821 29.6028 81.5915 29.5705 81.594 29.5489L81.5945 29.5444C81.5953 29.5344 81.5947 29.5305 81.5784 29.502L81.5451 29.4449L81.532 29.422C81.3804 29.1525 81.3852 28.8866 81.5958 28.5822L81.6088 28.5637L81.6143 28.5554C81.6639 28.4781 81.6447 28.4196 81.4875 28.2028L81.4014 28.0848L81.3734 28.0458C81.3447 28.0054 81.3281 27.9801 81.3077 27.9469L81.2841 27.9076C81.216 27.7912 81.1715 27.6795 81.1545 27.5575C81.1499 27.5243 81.1475 27.4909 81.1475 27.4573C81.1475 27.2063 81.2935 27.0364 81.5132 26.9153C81.6252 26.8536 81.7546 26.8043 81.9425 26.7459L82.0121 26.7247C82.0743 26.7062 82.2039 26.6682 82.2953 26.641L82.3774 26.6163L82.4155 26.6045C82.8088 26.4804 83.0096 26.3677 83.0449 26.2784C83.046 26.2755 83.0472 26.2676 83.0469 26.2519C83.0458 26.2243 83.039 26.1875 83.0251 26.1423C82.9935 26.0397 82.9303 25.9103 82.8354 25.7556L82.806 25.7084C82.6727 25.4965 82.5442 25.3216 82.2256 24.9177L81.8663 24.4648L81.7961 24.3758L81.7357 24.2987C81.5261 24.0299 81.3703 23.8187 81.2355 23.6159L81.2124 23.581C80.666 22.7488 80.6469 21.774 81.1324 20.7014L81.1472 20.6689L81.1461 20.5623Z" fill="#FF9900"/>
<path d="M81.1459 56.0541C81.0944 52.5519 79.6444 50.3592 76.7698 49.3902C70.8525 47.4543 66.8768 48.1578 64.7355 51.4401C62.9255 54.2147 62.482 56.1171 63.0431 58.0955C63.2208 58.7221 63.5015 59.3787 63.9153 60.1599L63.9932 60.3054C64.2602 60.8017 64.4612 61.1477 65.0543 62.1321L65.424 62.7446C67.1424 65.5883 67.6175 68.1292 66.8175 70.3444C69.903 71.4152 72.2259 71.9947 73.772 72.0842L73.8326 72.0875C74.5635 72.1242 75.0969 72.0468 75.4265 71.8714C75.7053 71.723 75.8338 71.5083 75.8378 71.1734L75.838 71.1278C75.8429 70.1729 76.0918 69.5462 76.6111 69.1755C76.8366 69.0146 77.1008 68.9101 77.4227 68.84L77.453 68.8336C77.6491 68.7923 77.8377 68.7669 78.1575 68.7348L78.4494 68.7062C79.03 68.6486 79.2969 68.6084 79.6226 68.5174L79.6638 68.5058C79.9436 68.4252 80.1971 68.3174 80.4328 68.174L80.4746 68.1483C80.9485 67.854 81.188 67.5993 81.2707 67.3672C81.3265 67.2105 81.3203 67.0778 81.2521 66.7671L81.2241 66.641L81.2169 66.6075C81.1975 66.5169 81.1873 66.4602 81.1775 66.3878L81.175 66.3681C81.1309 66.0156 81.1894 65.7091 81.3967 65.4112L81.4202 65.3779C81.4865 65.2837 81.5329 65.2044 81.5619 65.1393C81.5819 65.0945 81.5912 65.0623 81.5938 65.0406L81.5942 65.0361C81.595 65.0261 81.5945 65.0222 81.5782 64.9937L81.5449 64.9366L81.5317 64.9137C81.3801 64.6442 81.3849 64.3784 81.5955 64.0739L81.6085 64.0554L81.6141 64.0471C81.6636 63.9698 81.6444 63.9114 81.4872 63.6945L81.4011 63.5765L81.3732 63.5375C81.3445 63.4971 81.3279 63.4719 81.3075 63.4386L81.2838 63.3993C81.2157 63.2829 81.1713 63.1712 81.1543 63.0492C81.1497 63.016 81.1473 62.9826 81.1473 62.949C81.1473 62.698 81.2933 62.5281 81.513 62.407C81.6249 62.3453 81.7544 62.296 81.9422 62.2376L82.0119 62.2164C82.074 62.1979 82.2036 62.1599 82.2951 62.1327L82.3772 62.108L82.4152 62.0962C82.8086 61.9722 83.0094 61.8594 83.0446 61.7701C83.0457 61.7672 83.047 61.7593 83.0467 61.7436C83.0456 61.716 83.0388 61.6792 83.0249 61.634C82.9933 61.5314 82.93 61.402 82.8351 61.2473L82.8057 61.2001C82.6725 60.9882 82.5439 60.8133 82.2253 60.4094L81.8661 59.9565L81.7959 59.8675L81.7355 59.7904C81.5258 59.5216 81.3701 59.3104 81.2352 59.1076L81.2121 59.0727C80.6657 58.2405 80.6467 57.2657 81.1321 56.1931L81.147 56.1606L81.1459 56.0541Z" fill="white"/>
<path d="M82.2539 64.5838C82.4679 64.9583 82.4357 65.3172 82.0513 65.8548C81.961 65.9811 81.9377 66.0944 81.9587 66.2666L81.9608 66.2825C81.9677 66.3335 81.9757 66.3776 81.9927 66.4563L82.0323 66.6353L82.0449 66.6943C82.0709 66.8194 82.0846 66.9068 82.0923 67.0071L82.0942 67.034C82.1078 67.2414 82.0848 67.4376 82.0152 67.6329C81.8644 68.0564 81.5056 68.4386 80.892 68.82L80.8436 68.8497C80.5452 69.0313 80.2272 69.1666 79.8824 69.2658L79.8288 69.2809C79.4456 69.3877 79.1451 69.4323 78.5047 69.4954L78.2748 69.5179C77.5897 69.5868 77.3011 69.6546 77.0703 69.8193L77.0612 69.8259C76.7852 70.0288 76.6348 70.4098 76.6285 71.1106L76.6282 71.1775C76.6222 71.8006 76.3366 72.2828 75.7978 72.5695C75.3085 72.83 74.6203 72.9255 73.7266 72.8737C72.0252 72.7751 69.5105 72.1347 66.1666 70.9542L65.7655 70.8127L65.9362 70.423C66.831 68.3805 66.4477 65.9666 64.7481 63.1539L64.2554 62.3371C63.7646 61.5209 63.5668 61.1788 63.324 60.7292L63.2398 60.5726L63.1938 60.4856C62.7686 59.6783 62.4745 58.9859 62.2833 58.3117C61.6527 56.0884 62.1489 53.9598 64.0741 51.0087C66.4453 47.374 70.7949 46.6044 77.019 48.6406C80.2878 49.7425 81.9376 52.3093 81.9376 56.2491V56.3396L81.8983 56.4211C81.4711 57.3048 81.4711 58.0276 81.8728 58.6394C82.0073 58.8441 82.1689 59.0629 82.4003 59.3579L82.486 59.4667L82.8223 59.8906C83.1727 60.334 83.3138 60.5249 83.4659 60.7656L83.5065 60.8307L83.5296 60.8687C83.8106 61.3358 83.9172 61.7124 83.7798 62.0606C83.6873 62.2952 83.5044 62.4701 83.2515 62.6094C83.0766 62.7057 82.8787 62.7812 82.6096 62.8639L82.5492 62.8822C82.463 62.9079 82.3311 62.9466 82.2592 62.9679L82.1975 62.9865L82.1637 62.997C82.098 63.0176 82.0439 63.036 81.9997 63.0529L82.0178 63.0791C82.0351 63.104 82.056 63.1332 82.0808 63.1675L82.1216 63.2235L82.1477 63.2597C82.2787 63.4428 82.3475 63.5649 82.3942 63.7268C82.4703 63.991 82.4291 64.2574 82.26 64.5034L82.2499 64.5178C82.2463 64.5229 82.2429 64.5278 82.2398 64.5324L82.2314 64.5454L82.2539 64.5838ZM81.1461 56.0545C81.0947 52.5524 79.6447 50.3597 76.7701 49.3907C70.8527 47.4548 66.8771 48.1582 64.7358 51.4406C62.9257 54.2152 62.4823 56.1176 63.0434 58.096C63.2211 58.7225 63.5017 59.3792 63.9156 60.1604L63.9934 60.3059C64.2605 60.8022 64.4614 61.1482 65.0546 62.1326L65.4243 62.7451C67.1426 65.5888 67.6178 68.1297 66.8177 70.3449C69.9033 71.4157 72.2262 71.9951 73.7723 72.0847L73.8328 72.088C74.5638 72.1247 75.0972 72.0472 75.4267 71.8719C75.7055 71.7235 75.834 71.5087 75.8381 71.1739L75.8383 71.1283C75.8432 70.1734 76.0921 69.5467 76.6114 69.176C76.8368 69.0151 77.1011 68.9106 77.4229 68.8405L77.4532 68.834C77.6494 68.7928 77.8379 68.7674 78.1577 68.7353L78.4496 68.7067C79.0302 68.6491 79.2971 68.6089 79.6229 68.5179L79.664 68.5062C79.9439 68.4257 80.1974 68.3179 80.4331 68.1745L80.4749 68.1488C80.9488 67.8545 81.1883 67.5997 81.271 67.3676C81.3268 67.211 81.3205 67.0783 81.2524 66.7676L81.2244 66.6415L81.2171 66.608C81.1977 66.5174 81.1876 66.4607 81.1778 66.3883L81.1752 66.3686C81.1312 66.0161 81.1896 65.7096 81.3969 65.4116L81.4205 65.3783C81.4867 65.2842 81.5331 65.2049 81.5621 65.1398C81.5821 65.0949 81.5915 65.0627 81.594 65.0411L81.5945 65.0366C81.5953 65.0266 81.5947 65.0227 81.5784 64.9942L81.5451 64.9371L81.532 64.9142C81.3804 64.6446 81.3852 64.3788 81.5958 64.0744L81.6088 64.0559L81.6143 64.0476C81.6639 63.9703 81.6447 63.9118 81.4875 63.695L81.4014 63.5769L81.3734 63.538C81.3447 63.4976 81.3281 63.4723 81.3077 63.4391L81.2841 63.3998C81.216 63.2834 81.1715 63.1717 81.1545 63.0497C81.1499 63.0165 81.1475 62.9831 81.1475 62.9495C81.1475 62.6984 81.2935 62.5285 81.5132 62.4075C81.6252 62.3458 81.7546 62.2965 81.9425 62.2381L82.0121 62.2169C82.0743 62.1984 82.2039 62.1603 82.2953 62.1332L82.3774 62.1085L82.4155 62.0967C82.8088 61.9726 83.0096 61.8599 83.0449 61.7706C83.046 61.7677 83.0472 61.7598 83.0469 61.7441C83.0458 61.7164 83.039 61.6796 83.0251 61.6345C82.9935 61.5319 82.9303 61.4025 82.8354 61.2478L82.806 61.2006C82.6727 60.9887 82.5442 60.8138 82.2256 60.4099L81.8663 59.957L81.7961 59.868L81.7357 59.7909C81.5261 59.5221 81.3703 59.3109 81.2355 59.1081L81.2124 59.0732C80.666 58.241 80.6469 57.2662 81.1324 56.1936L81.1472 56.1611L81.1461 56.0545Z" fill="#FF9900"/>
<circle cx="45.6339" cy="44.9992" r="6.97183" fill="#FF9900"/>
<circle cx="45.6339" cy="45.0001" r="5.07042" fill="white"/>
<path d="M23.4507 45.7324C23.4507 44.6279 24.3461 43.7324 25.4507 43.7324H39.2958V46.2676H23.4507V45.7324Z" fill="#FF9900"/>
<rect x="23.4507" y="46.2676" width="3.16901" height="3.16901" fill="#FF9900"/>
<rect x="27.8872" y="46.2676" width="1.26761" height="3.16901" fill="#FF9900"/>
<rect x="30.4224" y="46.2676" width="1.26761" height="3.16901" fill="#FF9900"/>
</svg>
