<svg width="78" height="90" viewBox="0 0 78 90" fill="none" xmlns="http://www.w3.org/2000/svg">
<path d="M67.8802 30.2428C67.6976 17.8101 62.55 10.0262 52.3452 6.58605C31.3386 -0.286215 17.2251 2.21095 9.62353 13.8632C3.19779 23.7131 1.62359 30.4667 3.61553 37.49C4.24637 39.7142 5.24253 42.0454 6.71182 44.8184L6.98808 45.3352C7.93616 47.0971 8.64954 48.3251 10.7552 51.8199L12.0677 53.9943C18.1677 64.0893 19.8546 73.1096 17.0144 80.9735C27.9681 84.7749 36.2144 86.8319 41.7031 87.15L41.9179 87.1616C44.513 87.2919 46.4065 87.0169 47.5763 86.3943C48.566 85.8675 49.0222 85.1052 49.0366 83.9165L49.0373 83.7546C49.0547 80.3648 49.9384 78.1399 51.7819 76.824C52.5822 76.2528 53.5203 75.8819 54.6629 75.633L54.7703 75.61C55.4667 75.4635 56.1361 75.3733 57.2714 75.2593L58.3077 75.158C60.3688 74.9534 61.3162 74.8107 62.4727 74.4877L62.6187 74.4463C63.6123 74.1605 64.5121 73.7778 65.3488 73.2687L65.4972 73.1775C67.1796 72.1327 68.0299 71.2283 68.3234 70.4043C68.5215 69.8481 68.4993 69.3772 68.2574 68.274L68.158 67.8264L68.1323 67.7076C68.0634 67.3859 68.0273 67.1846 67.9926 66.9275L67.9836 66.8578C67.8271 65.6063 68.0347 64.5183 68.7706 63.4605L68.8542 63.3423C69.0893 63.0081 69.254 62.7266 69.357 62.4955C69.4279 62.3362 69.4612 62.2219 69.4703 62.145L69.4719 62.1291C69.4747 62.0937 69.4727 62.0799 69.4149 61.9785L69.2967 61.776L69.2501 61.6945C68.7117 60.7377 68.7288 59.794 69.4765 58.7133L69.5225 58.6477L69.5423 58.618C69.7182 58.3436 69.6501 58.1362 69.092 57.3664L68.7864 56.9473L68.6871 56.8091C68.5852 56.6655 68.5263 56.576 68.4538 56.4579L68.3699 56.3184C68.1281 55.9051 67.9703 55.5087 67.9101 55.0757C67.8937 54.9577 67.8852 54.8391 67.8852 54.7199C67.8852 53.8287 68.4035 53.2255 69.1834 52.7957C69.5809 52.5767 70.0404 52.4017 70.7073 52.1945L70.9545 52.1192C71.1751 52.0536 71.6353 51.9184 71.9599 51.8219L72.2513 51.7344L72.3864 51.6923C73.7829 51.252 74.4957 50.8518 74.6207 50.5347C74.6248 50.5245 74.6291 50.4965 74.628 50.4407C74.6241 50.3426 74.6001 50.2119 74.5506 50.0515C74.4384 49.6875 74.214 49.2281 73.877 48.6787L73.7727 48.5112C73.2996 47.7591 72.8434 47.1382 71.7123 45.7044L70.4369 44.0965L70.1877 43.7806L69.9733 43.5067C69.229 42.5525 68.6762 41.8027 68.1974 41.083L68.1154 40.959C66.1757 38.0048 66.1081 34.5442 67.8314 30.7364L67.8842 30.621L67.8802 30.2428Z" fill="white"/>
<path d="M71.8128 60.5228C72.5728 61.8522 72.4582 63.1264 71.0936 65.0349C70.773 65.4833 70.6903 65.8854 70.7651 66.4967L70.7724 66.5529C70.7969 66.7342 70.8254 66.8907 70.8857 67.1699L71.0263 67.8055L71.071 68.015C71.1634 68.4591 71.2119 68.7695 71.2393 69.1253L71.2462 69.2209C71.2944 69.9572 71.2127 70.6536 70.9657 71.347C70.4301 72.8505 69.1565 74.2073 66.9781 75.5613L66.8065 75.6668C65.747 76.3114 64.6182 76.7915 63.3941 77.1436L63.2037 77.1976C61.8434 77.5766 60.7767 77.7347 58.5033 77.959L57.6872 78.0387C55.2551 78.2834 54.2306 78.5239 53.4113 79.1088L53.3788 79.1323C52.399 79.8525 51.8652 81.2051 51.8427 83.693L51.8417 83.9302C51.8203 86.1422 50.8066 87.8542 48.894 88.8721C47.1567 89.7967 44.7137 90.1357 41.541 89.9519C35.5009 89.6019 26.5739 87.3285 14.703 83.1378L13.2793 82.6352L13.8852 81.252C17.0616 74.001 15.7009 65.4315 9.66733 55.4466L7.91821 52.5467C6.1761 49.6492 5.47361 48.4351 4.61163 46.8389L4.31306 46.2828L4.14956 45.9741C2.6402 43.1082 1.59614 40.6502 0.917283 38.2567C-1.32121 30.3642 0.44017 22.8075 7.27466 12.331C15.6922 -0.572114 31.1334 -3.30418 53.2292 3.92446C64.8334 7.83623 70.6902 16.9482 70.6902 30.9344V31.2557L70.5504 31.5449C69.034 34.6822 69.034 37.2481 70.46 39.4199C70.9373 40.1469 71.5112 40.9234 72.3326 41.9708L72.6368 42.3569L73.8309 43.8617C75.0747 45.4359 75.5757 46.1136 76.1155 46.9682L76.2596 47.199L76.3418 47.3342C77.3394 48.9921 77.7177 50.3291 77.23 51.5655C76.9015 52.3983 76.2521 53.0189 75.3542 53.5135C74.7336 53.8553 74.031 54.1233 73.0757 54.4171L72.8612 54.4818C72.5553 54.5732 72.0872 54.7107 71.8319 54.7863L71.6126 54.8522L71.4926 54.8895C71.2596 54.9627 71.0675 55.0281 70.9106 55.088L70.9748 55.1812C71.0364 55.2696 71.1102 55.3732 71.1985 55.4949L71.3433 55.6935L71.4361 55.8221C71.9009 56.4721 72.1453 56.9056 72.3109 57.4805C72.5811 58.4183 72.435 59.364 71.8347 60.2371L71.7989 60.2884C71.7859 60.3066 71.774 60.324 71.763 60.3403L71.7331 60.3865L71.8128 60.5228ZM67.8803 30.2438C67.6977 17.8111 62.5502 10.0272 52.3453 6.58707C31.3387 -0.28519 17.2252 2.21198 9.62367 13.8642C3.19793 23.7141 1.62373 30.4677 3.61567 37.491C4.24651 39.7152 5.24267 42.0464 6.71196 44.8195L6.98822 45.3362C7.9363 47.0981 8.64968 48.3262 10.7553 51.8209L12.0678 53.9953C18.1679 64.0903 19.8548 73.1106 17.0146 80.9746C27.9682 84.7759 36.2145 86.8329 41.7032 87.151L41.9181 87.1626C44.5131 87.2929 46.4066 87.0179 47.5764 86.3953C48.5662 85.8686 49.0223 85.1062 49.0368 83.9175L49.0374 83.7556C49.0549 80.3658 49.9385 78.1409 51.782 76.825C52.5823 76.2538 53.5204 75.8829 54.663 75.6341L54.7705 75.6111C55.4669 75.4645 56.1363 75.3743 57.2715 75.2603L58.3078 75.1591C60.369 74.9544 61.3164 74.8117 62.4728 74.4888L62.6189 74.4474C63.6124 74.1615 64.5122 73.7788 65.349 73.2698L65.4974 73.1785C67.1797 72.1337 68.03 71.2293 68.3235 70.4053C68.5217 69.8491 68.4995 69.3783 68.2576 68.275L68.1582 67.8274L68.1324 67.7086C68.0635 67.387 68.0275 67.1856 67.9928 66.9285L67.9837 66.8588C67.8273 65.6073 68.0348 64.5193 68.7707 63.4615L68.8544 63.3433C69.0894 63.0091 69.2541 62.7276 69.3571 62.4966C69.4281 62.3372 69.4613 62.2229 69.4704 62.146L69.472 62.1301C69.4748 62.0947 69.4729 62.0809 69.4151 61.9796L69.2968 61.777L69.2502 61.6956C68.7119 60.7387 68.7289 59.7951 69.4767 58.7143L69.5227 58.6487L69.5424 58.619C69.7184 58.3446 69.6503 58.1372 69.0921 57.3674L68.7866 56.9484L68.6873 56.8101C68.5853 56.6665 68.5264 56.577 68.454 56.4589L68.3701 56.3194C68.1283 55.9061 67.9704 55.5098 67.9102 55.0767C67.8938 54.9587 67.8853 54.8401 67.8853 54.721C67.8853 53.8297 68.4037 53.2265 69.1836 52.7968C69.5811 52.5777 70.0406 52.4027 70.7074 52.1955L70.9546 52.1202C71.1752 52.0546 71.6354 51.9194 71.9601 51.8229L72.2514 51.7354L72.3865 51.6934C73.783 51.253 74.4958 50.8528 74.6209 50.5357C74.6249 50.5256 74.6293 50.4975 74.6282 50.4417C74.6243 50.3436 74.6002 50.2129 74.5508 50.0525C74.4386 49.6885 74.2141 49.2291 73.8771 48.6798L73.7728 48.5122C73.2997 47.7601 72.8435 47.1392 71.7124 45.7054L70.437 44.0975L70.1879 43.7816L69.9734 43.5077C69.2292 42.5535 68.6763 41.8037 68.1975 41.084L68.1156 40.96C66.1758 38.0059 66.1083 34.5453 67.8316 30.7375L67.8843 30.622L67.8803 30.2438Z" fill="#FF9900"/>
<circle cx="45.8179" cy="28.6367" r="9" fill="#FF9900"/>
<circle cx="45.8179" cy="28.6373" r="6.54545" fill="white"/>
<path d="M17.1816 29C17.1816 27.8954 18.0771 27 19.1816 27H37.6362V30.2727H17.1816V29Z" fill="#FF9900"/>
<rect x="17.1816" y="30.2734" width="4.09091" height="4.09091" fill="#FF9900"/>
<rect x="22.9092" y="30.2734" width="1.63636" height="4.09091" fill="#FF9900"/>
<rect x="26.1816" y="30.2734" width="1.63636" height="4.09091" fill="#FF9900"/>
</svg>
