<svg width="130" height="78" viewBox="0 0 130 78" fill="none" xmlns="http://www.w3.org/2000/svg">
<path fill-rule="evenodd" clip-rule="evenodd" d="M0 65C0 29.1015 29.1015 0 65 0C100.899 0 130 29.1015 130 65H97.5C97.5 47.0507 82.9493 32.5 65 32.5C47.0507 32.5 32.5 47.0507 32.5 65H0Z" fill="white"/>
<path fill-rule="evenodd" clip-rule="evenodd" d="M0 65C0 29.1015 29.1015 0 65 0C100.899 0 130 29.1015 130 65H97.5C97.5 47.0507 82.9493 32.5 65 32.5C47.0507 32.5 32.5 47.0507 32.5 65H0Z" fill="white"/>
<mask id="path-3-inside-1_1841_11097" fill="white">
<path fill-rule="evenodd" clip-rule="evenodd" d="M0 65C0 29.1015 29.1015 0 65 0C100.899 0 130 29.1015 130 65H97.5C97.5 47.0507 82.9493 32.5 65 32.5C47.0507 32.5 32.5 47.0507 32.5 65H0Z"/>
</mask>
<path d="M0 65H-2V67H0V65ZM130 65V67H132V65H130ZM97.5 65H95.5V67H97.5V65ZM32.5 65V67H34.5V65H32.5ZM65 -2C27.9969 -2 -2 27.9969 -2 65H2C2 30.2061 30.2061 2 65 2V-2ZM132 65C132 27.9969 102.003 -2 65 -2V2C99.7939 2 128 30.2061 128 65H132ZM97.5 67H130V63H97.5V67ZM99.5 65C99.5 45.9462 84.0538 30.5 65 30.5V34.5C81.8447 34.5 95.5 48.1553 95.5 65H99.5ZM65 30.5C45.9462 30.5 30.5 45.9462 30.5 65H34.5C34.5 48.1553 48.1553 34.5 65 34.5V30.5ZM0 67H32.5V63H0V67Z" fill="#FF9900" mask="url(#path-3-inside-1_1841_11097)"/>
<path d="M65.024 10.6186C64.2365 10.6186 63.6241 10.7825 63.1866 11.1102C62.7638 11.4238 62.5523 11.9582 62.5523 12.7135C62.5523 13.0555 62.6252 13.3477 62.7711 13.5899C62.9169 13.8322 63.0991 14.0388 63.3179 14.2098C63.5512 14.3808 63.8137 14.5234 64.1053 14.6374C64.4115 14.7371 64.7178 14.8226 65.024 14.8939V10.6186ZM62.2242 19.6822C62.2096 20.6228 62.4211 21.3638 62.8585 21.9054C63.296 22.4469 64.0178 22.7319 65.024 22.7604V17.5873C64.4261 17.4306 63.8282 17.2453 63.2304 17.0315C62.6471 16.8035 62.1149 16.5185 61.6337 16.1765C61.167 15.8202 60.7879 15.3784 60.4963 14.8511C60.2046 14.3238 60.0588 13.6683 60.0588 12.8845C60.0588 12.2004 60.19 11.6019 60.4525 11.0889C60.7296 10.5616 61.0941 10.1269 61.5462 9.78491C62.0128 9.42863 62.545 9.15786 63.1429 8.9726C63.7408 8.78734 64.3678 8.69471 65.024 8.69471V7.02734H65.9645V8.69471C66.6207 8.69471 67.2404 8.78021 67.8237 8.95122C68.407 9.12224 68.9101 9.37875 69.333 9.72078C69.7704 10.0628 70.1131 10.4975 70.361 11.0247C70.6235 11.552 70.7547 12.1648 70.7547 12.8631H68.2612C68.232 12.1363 68.0352 11.5805 67.6706 11.1958C67.3206 10.811 66.7519 10.6186 65.9645 10.6186V15.129C66.6207 15.3 67.2623 15.4995 67.8893 15.7276C68.5164 15.9556 69.0705 16.2477 69.5517 16.604C70.0329 16.9603 70.4193 17.4021 70.711 17.9293C71.0026 18.4566 71.1484 19.105 71.1484 19.8746C71.1484 20.6727 71.0099 21.371 70.7328 21.9695C70.4703 22.5538 70.1058 23.0454 69.6392 23.4445C69.1726 23.8292 68.6257 24.1214 67.9987 24.3209C67.3717 24.5347 66.6936 24.6558 65.9645 24.6843V26.3517H65.024V24.6843C64.2365 24.6701 63.5147 24.5489 62.8585 24.3209C62.2024 24.0929 61.6409 23.7722 61.1743 23.359C60.7077 22.9314 60.3432 22.4113 60.0807 21.7985C59.8328 21.1857 59.7161 20.4803 59.7307 19.6822H62.2242ZM65.9645 22.7604C66.7519 22.7034 67.3935 22.4825 67.8893 22.0978C68.3997 21.6987 68.6549 21.0717 68.6549 20.2166C68.6549 19.8176 68.5747 19.4827 68.4143 19.2119C68.2685 18.9412 68.0643 18.7131 67.8018 18.5279C67.5539 18.3426 67.2696 18.193 66.9488 18.079C66.628 17.965 66.2999 17.8652 65.9645 17.7797V22.7604Z" fill="#FF9900"/>
<path fill-rule="evenodd" clip-rule="evenodd" d="M57.6985 73.3931L57.6987 73.3927C61.1531 74.1349 68.8845 73.6901 72.175 65.9732C75.4655 58.2563 81.4627 37.2762 84.05 27.7508L84.0497 27.7513C76.8757 34.6286 61.2465 50.0474 56.1213 56.7051C50.9961 63.3628 55.0373 70.6045 57.6985 73.3931ZM60.1917 68.7467C62.2923 69.9594 64.9783 69.2397 66.1911 67.1391C67.4039 65.0385 66.6842 62.3525 64.5835 61.1397C62.4829 59.9269 59.7969 60.6466 58.5841 62.7472C57.3713 64.8478 58.091 67.5339 60.1917 68.7467Z" fill="#FF9900"/>
</svg>
