<svg width="134" height="90" viewBox="0 0 134 90" fill="none" xmlns="http://www.w3.org/2000/svg">
<path d="M66.0191 22.9297C49.2075 22.9297 35.5791 36.5581 35.5791 53.3697C41.0824 50.704 52.966 46.9721 56.4743 53.3697C59.9999 49.7581 66.8446 44.702 75.3059 53.3697C76.6817 50.704 84.6958 46.9721 96.4591 53.3697C96.4591 36.5581 82.8306 22.9297 66.0191 22.9297Z" fill="white"/>
<path fill-rule="evenodd" clip-rule="evenodd" d="M35.6005 52.2174C35.5863 52.5997 35.5791 52.9838 35.5791 53.3697C35.9032 53.2127 36.2494 53.052 36.6148 52.8899C42.1451 50.4362 52.0554 47.6592 55.8918 52.4905C56.1054 52.7595 56.3002 53.0521 56.4743 53.3697C56.7128 53.1254 56.9664 52.8745 57.2348 52.6217C60.8136 49.2496 67.0006 45.5367 74.5452 52.6229C74.7973 52.8596 75.0508 53.1084 75.3059 53.3697C75.4461 53.0979 75.6553 52.8151 75.9305 52.5331C78.2745 50.1305 85.4025 47.7845 95.4223 52.8268C95.7645 52.9991 96.1102 53.1799 96.4591 53.3697C96.4591 52.9739 96.4515 52.58 96.4365 52.1879C95.8157 35.9241 82.4349 22.9297 66.0191 22.9297C49.5934 22.9297 36.2063 35.9398 35.6005 52.2174ZM36.655 51.7468C39.4177 50.5631 43.1118 49.3495 46.6581 48.9457C50.3812 48.5219 54.3487 48.9593 56.6369 51.7678C58.411 50.1164 60.8573 48.3399 63.8398 47.7526C67.2279 47.0854 71.0895 47.9898 75.1906 51.8138C75.6801 51.3118 76.309 50.846 77.0375 50.4427C78.2906 49.749 79.916 49.1957 81.8562 48.9474C85.4042 48.4935 90.0094 49.0575 95.378 51.6544C94.4898 36.211 81.685 23.9616 66.0191 23.9616C50.322 23.9616 37.4973 36.2599 36.655 51.7468Z" fill="#FF9900"/>
<path fill-rule="evenodd" clip-rule="evenodd" d="M57.1462 37.9573C56.0257 43.31 56.3462 48.7051 56.9858 52.031L56.4791 52.1284C55.8289 48.7472 55.5045 43.282 56.6412 37.8516C57.7779 32.4212 60.3841 26.9917 65.6253 23.7422L65.8972 24.1807C60.8198 27.3287 58.2666 32.6048 57.1462 37.9573Z" fill="#FF9900"/>
<path fill-rule="evenodd" clip-rule="evenodd" d="M74.7708 37.9573C75.8913 43.31 75.5708 48.7051 74.9312 52.031L75.4379 52.1284C76.0881 48.7472 76.4125 43.282 75.2758 37.8516C74.139 32.4212 71.5329 26.9917 66.2917 23.7422L66.0198 24.1807C71.0972 27.3287 73.6504 32.6048 74.7708 37.9573Z" fill="#FF9900"/>
<path fill-rule="evenodd" clip-rule="evenodd" d="M66.0188 83.8091L35.5789 52.3372L35.9497 51.9785L66.3897 83.4504L66.0188 83.8091Z" fill="#FF9900"/>
<path fill-rule="evenodd" clip-rule="evenodd" d="M66.0197 83.8091L96.4597 52.3372L96.0889 51.9785L65.6489 83.4504L66.0197 83.8091Z" fill="#FF9900"/>
<path fill-rule="evenodd" clip-rule="evenodd" d="M66.0189 83.2933L56.2161 52.3374L56.708 52.1816L66.5107 83.1376L66.0189 83.2933Z" fill="#FF9900"/>
<path fill-rule="evenodd" clip-rule="evenodd" d="M66.0192 83.2933L75.8219 52.3374L75.3301 52.1816L65.5274 83.1376L66.0192 83.2933Z" fill="#FF9900"/>
<circle cx="66.0191" cy="83.2931" r="6.70712" fill="#FF9900"/>
<circle cx="66.0193" cy="83.2942" r="2.06373" fill="white"/>
<path d="M17.2716 4.62796C7.73274 7.18388 2.07198 16.9886 4.6279 26.5274C7.34517 24.1782 13.5205 20.2541 16.4838 23.3506C17.9351 20.7655 21.0501 16.856 27.1687 20.4876C27.5441 18.766 31.5239 15.4301 39.171 17.2716C36.6151 7.7328 26.8104 2.07204 17.2716 4.62796Z" fill="white"/>
<path fill-rule="evenodd" clip-rule="evenodd" d="M4.46486 25.8703C4.51491 26.0894 4.56924 26.3085 4.6279 26.5274C4.78793 26.3891 4.95995 26.2452 5.14261 26.0977C7.90746 23.8647 13.1083 20.7823 16.0196 22.9404C16.1817 23.0605 16.3367 23.1969 16.4838 23.3506C16.582 23.1758 16.6877 22.9949 16.8015 22.8106C18.3195 20.3532 21.2655 17.3059 26.6236 20.1795C26.8026 20.2755 26.9843 20.3782 27.1687 20.4876C27.207 20.3121 27.2827 20.1198 27.396 19.918C28.3607 18.1984 32.0484 15.7836 38.5002 17.1212C38.7206 17.1669 38.9442 17.217 39.171 17.2716C39.1108 17.0471 39.0467 16.8247 38.9786 16.6045C36.1536 7.47085 26.5858 2.13221 17.2716 4.62796C7.95165 7.12522 2.33385 16.5424 4.46486 25.8703ZM4.99162 25.443C6.37922 24.3514 8.29074 23.1011 10.2415 22.3329C12.2895 21.5264 14.6072 21.1713 16.3325 22.417C17.0881 21.2103 18.206 19.8304 19.809 19.0437C21.6299 18.15 23.9585 18.0761 26.8668 19.6223C27.0682 19.2631 27.3542 18.9032 27.7063 18.5636C28.3118 17.9795 29.15 17.4184 30.2131 16.9826C32.1572 16.1856 34.8559 15.8055 38.2968 16.4627C35.445 7.83525 26.3172 2.8317 17.4284 5.21344C8.52194 7.59992 3.11503 16.5278 4.99162 25.443Z" fill="#FF9900"/>
<path fill-rule="evenodd" clip-rule="evenodd" d="M14.5217 14.5034C14.6997 17.7108 15.7018 20.7233 16.5703 22.5131L16.2977 22.6454C15.4147 20.8258 14.3997 17.7742 14.2191 14.5202C14.0384 11.2661 14.6917 7.78923 17.1715 5.14861L17.3924 5.35607C14.9901 7.91419 14.3436 11.296 14.5217 14.5034Z" fill="#FF9900"/>
<path fill-rule="evenodd" clip-rule="evenodd" d="M24.5214 11.8252C25.9709 14.6919 26.6093 17.8018 26.7521 19.7861L27.0544 19.7644C26.9093 17.747 26.2624 14.5968 24.7919 11.6884C23.3213 8.78004 21.0171 6.0956 17.5492 5.04866L17.4616 5.33879C20.8211 6.35302 23.0719 8.95851 24.5214 11.8252Z" fill="#FF9900"/>
<path fill-rule="evenodd" clip-rule="evenodd" d="M26.5274 39.1707L4.47107 25.9415L4.62695 25.6816L26.6833 38.9108L26.5274 39.1707Z" fill="#FF9900"/>
<path fill-rule="evenodd" clip-rule="evenodd" d="M26.5272 39.1711L39.014 16.6862L38.749 16.5391L26.2622 39.024L26.5272 39.1711Z" fill="#FF9900"/>
<path fill-rule="evenodd" clip-rule="evenodd" d="M26.449 38.8777L16.1806 22.8038L16.436 22.6406L26.7044 38.7146L26.449 38.8777Z" fill="#FF9900"/>
<path fill-rule="evenodd" clip-rule="evenodd" d="M26.449 38.8788L27.3047 19.8241L27.002 19.8105L26.1463 38.8652L26.449 38.8788Z" fill="#FF9900"/>
<circle cx="26.4488" cy="38.8777" r="3.93984" transform="rotate(-15 26.4488 38.8777)" fill="#FF9900"/>
<circle cx="26.4491" cy="38.8787" r="1.21226" transform="rotate(-15 26.4491 38.8787)" fill="white"/>
<path d="M116.021 4.62796C125.56 7.18388 131.221 16.9886 128.665 26.5274C125.948 24.1782 119.772 20.2541 116.809 23.3506C115.358 20.7655 112.243 16.856 106.124 20.4876C105.749 18.766 101.769 15.4301 94.122 17.2716C96.6779 7.7328 106.483 2.07204 116.021 4.62796Z" fill="white"/>
<path fill-rule="evenodd" clip-rule="evenodd" d="M128.828 25.8703C128.778 26.0894 128.724 26.3085 128.665 26.5274C128.505 26.3891 128.333 26.2452 128.15 26.0977C125.386 23.8647 120.185 20.7823 117.273 22.9404C117.111 23.0605 116.956 23.1969 116.809 23.3506C116.711 23.1758 116.605 22.9949 116.491 22.8106C114.973 20.3532 112.027 17.3059 106.669 20.1795C106.49 20.2755 106.309 20.3782 106.124 20.4876C106.086 20.3121 106.01 20.1198 105.897 19.918C104.932 18.1984 101.245 15.7836 94.7928 17.1212C94.5724 17.1669 94.3488 17.217 94.122 17.2716C94.1821 17.0471 94.2463 16.8247 94.3144 16.6045C97.1393 7.47085 106.707 2.13221 116.021 4.62796C125.341 7.12522 130.959 16.5424 128.828 25.8703ZM128.301 25.443C126.914 24.3514 125.002 23.1011 123.051 22.3329C121.003 21.5264 118.686 21.1713 116.96 22.417C116.205 21.2103 115.087 19.8304 113.484 19.0437C111.663 18.15 109.335 18.0761 106.426 19.6223C106.225 19.2631 105.939 18.9032 105.587 18.5636C104.981 17.9795 104.143 17.4184 103.08 16.9826C101.136 16.1856 98.4371 15.8055 94.9961 16.4627C97.848 7.83525 106.976 2.8317 115.865 5.21344C124.771 7.59992 130.178 16.5278 128.301 25.443Z" fill="#FF9900"/>
<path fill-rule="evenodd" clip-rule="evenodd" d="M118.771 14.5034C118.593 17.7108 117.591 20.7233 116.723 22.5131L116.995 22.6454C117.878 20.8258 118.893 17.7742 119.074 14.5202C119.255 11.2661 118.601 7.78923 116.121 5.14861L115.901 5.35607C118.303 7.91419 118.949 11.296 118.771 14.5034Z" fill="#FF9900"/>
<path fill-rule="evenodd" clip-rule="evenodd" d="M108.772 11.8252C107.322 14.6919 106.684 17.8018 106.541 19.7861L106.239 19.7644C106.384 17.747 107.031 14.5968 108.501 11.6884C109.972 8.78004 112.276 6.0956 115.744 5.04866L115.831 5.33879C112.472 6.35302 110.221 8.95851 108.772 11.8252Z" fill="#FF9900"/>
<path fill-rule="evenodd" clip-rule="evenodd" d="M106.766 39.1707L128.822 25.9415L128.666 25.6816L106.61 38.9108L106.766 39.1707Z" fill="#FF9900"/>
<path fill-rule="evenodd" clip-rule="evenodd" d="M106.766 39.1711L94.279 16.6862L94.5439 16.5391L107.031 39.024L106.766 39.1711Z" fill="#FF9900"/>
<path fill-rule="evenodd" clip-rule="evenodd" d="M106.844 38.8777L117.112 22.8038L116.857 22.6406L106.589 38.7146L106.844 38.8777Z" fill="#FF9900"/>
<path fill-rule="evenodd" clip-rule="evenodd" d="M106.844 38.8788L105.988 19.8241L106.291 19.8105L107.147 38.8652L106.844 38.8788Z" fill="#FF9900"/>
<circle r="3.93984" transform="matrix(-0.965926 -0.258819 -0.258819 0.965926 106.844 38.8777)" fill="#FF9900"/>
<circle r="1.21226" transform="matrix(-0.965926 -0.258819 -0.258819 0.965926 106.844 38.8787)" fill="white"/>
</svg>
