<svg width="89" height="89" viewBox="0 0 89 89" fill="none" xmlns="http://www.w3.org/2000/svg">
<circle cx="44.5" cy="44.5" r="44.5" fill="white"/>
<path fill-rule="evenodd" clip-rule="evenodd" d="M44.5 85.7037C67.2562 85.7037 85.7037 67.2562 85.7037 44.5C85.7037 21.7438 67.2562 3.2963 44.5 3.2963C21.7438 3.2963 3.2963 21.7438 3.2963 44.5C3.2963 67.2562 21.7438 85.7037 44.5 85.7037ZM44.5 89C69.0767 89 89 69.0767 89 44.5C89 19.9233 69.0767 0 44.5 0C19.9233 0 0 19.9233 0 44.5C0 69.0767 19.9233 89 44.5 89Z" fill="#FF9900"/>
<path fill-rule="evenodd" clip-rule="evenodd" d="M71.4196 79.1106L10.9875 18.6785L13.3184 16.3477L73.7505 76.7798L71.4196 79.1106Z" fill="#FF9900"/>
<path d="M24.8807 48.5545C24.8807 50.0262 24.3486 51.181 23.2845 52.0188C22.2203 52.8565 20.7523 53.2754 18.8806 53.2754C17.0088 53.2754 15.4767 52.9848 14.2842 52.4037V49.8451C15.0389 50.1998 15.8389 50.4791 16.6843 50.6829C17.5371 50.8866 18.3296 50.9885 19.0617 50.9885C20.1334 50.9885 20.9221 50.7848 21.4278 50.3772C21.941 49.9696 22.1976 49.4224 22.1976 48.7356C22.1976 48.1167 21.9637 47.5922 21.4957 47.162C21.0278 46.7318 20.0617 46.2223 18.5975 45.6336C17.088 45.0223 16.0239 44.3242 15.405 43.5392C14.7861 42.7543 14.4766 41.8109 14.4766 40.709C14.4766 39.3278 14.9672 38.241 15.9484 37.4485C16.9295 36.656 18.2466 36.2598 19.8995 36.2598C21.4844 36.2598 23.0618 36.6069 24.6317 37.3013L23.7713 39.5089C22.2995 38.89 20.9863 38.5806 19.8315 38.5806C18.956 38.5806 18.2919 38.7731 17.839 39.158C17.3862 39.5353 17.1597 40.0372 17.1597 40.6637C17.1597 41.0939 17.2503 41.4637 17.4314 41.7731C17.6126 42.075 17.9107 42.3618 18.3258 42.6336C18.7409 42.9053 19.4881 43.2638 20.5674 43.7091C21.7825 44.2147 22.6731 44.6864 23.2392 45.1242C23.8052 45.5619 24.2203 46.0563 24.4845 46.6073C24.7487 47.1582 24.8807 47.8073 24.8807 48.5545Z" fill="#FF9900"/>
<path d="M39.0435 41.5014C39.0435 43.2298 38.4774 44.5544 37.3453 45.4752C36.2132 46.3959 34.6018 46.8563 32.5112 46.8563H30.7904V53.049H28.0846V36.4975H32.8508C34.9188 36.4975 36.466 36.9202 37.4925 37.7655C38.5265 38.6108 39.0435 39.8561 39.0435 41.5014ZM30.7904 44.5808H32.2281C33.6169 44.5808 34.6358 44.3393 35.2848 43.8562C35.9339 43.3732 36.2585 42.6185 36.2585 41.592C36.2585 40.641 35.9679 39.9316 35.3867 39.4636C34.8056 38.9957 33.8999 38.7617 32.6697 38.7617H30.7904V44.5808Z" fill="#FF9900"/>
<path d="M52.6175 53.049L50.9646 48.4526H44.6361L43.0172 53.049H40.1642L46.3569 36.4296H49.3004L55.493 53.049H52.6175ZM50.2514 46.1205L48.7004 41.6147C48.5872 41.3128 48.4287 40.8373 48.2249 40.1882C48.0286 39.5391 47.8928 39.0636 47.8173 38.7617C47.6135 39.6901 47.3154 40.7052 46.9229 41.8071L45.4286 46.1205H50.2514Z" fill="#FF9900"/>
<path d="M64.8329 53.049L60.0328 39.2259H59.9422C60.0705 41.2788 60.1347 43.2034 60.1347 44.9997V53.049H57.678V36.4975H61.4932L66.0896 49.664H66.1575L70.8897 36.4975H74.7163V53.049H72.1124V44.8638C72.1124 44.0411 72.1313 42.9694 72.169 41.6486C72.2143 40.3278 72.252 39.5278 72.2822 39.2485H72.1917L67.2217 53.049H64.8329Z" fill="#FF9900"/>
</svg>
