<svg width="200" height="136" viewBox="0 0 200 136" fill="none" xmlns="http://www.w3.org/2000/svg">
<path fill-rule="evenodd" clip-rule="evenodd" d="M182.332 13.7158C182.332 8.83738 186.288 4.88184 191.166 4.88184C196.044 4.88184 200 8.83738 200 13.7158C200 18.5942 196.044 22.5497 191.166 22.5497C186.288 22.5497 182.332 18.5942 182.332 13.7158ZM183.831 13.7158C183.831 17.766 187.116 21.0511 191.166 21.0511C195.216 21.0511 198.501 17.766 198.501 13.7158C198.501 9.66556 195.216 6.38044 191.166 6.38044C187.116 6.38044 183.831 9.66556 183.831 13.7158ZM193.928 10.5799H194.853C194.981 10.5799 195.056 10.7258 194.979 10.8303L190.827 16.5881C190.769 16.6692 190.692 16.7352 190.604 16.7807C190.515 16.8262 190.417 16.85 190.317 16.85C190.217 16.85 190.119 16.8262 190.03 16.7807C189.942 16.7352 189.865 16.6692 189.807 16.5881L187.35 13.1808C187.275 13.0763 187.35 12.9303 187.479 12.9303H188.403C188.606 12.9303 188.796 13.0289 188.914 13.1926L190.318 15.1408L193.418 10.8421C193.536 10.6765 193.727 10.5799 193.928 10.5799Z" fill="#FFC700"/>
<path fill-rule="evenodd" clip-rule="evenodd" d="M0 13.7158C0 8.83738 3.95554 4.88184 8.83392 4.88184C13.7123 4.88184 17.6678 8.83738 17.6678 13.7158C17.6678 18.5942 13.7123 22.5497 8.83392 22.5497C3.95554 22.5497 0 18.5942 0 13.7158ZM1.49861 13.7158C1.49861 17.766 4.78372 21.0511 8.83392 21.0511C12.8842 21.0511 16.1693 17.766 16.1693 13.7158C16.1693 9.66556 12.8842 6.38044 8.83392 6.38044C4.78372 6.38044 1.49861 9.66556 1.49861 13.7158ZM11.5964 10.5799H12.5212C12.6494 10.5799 12.7244 10.7258 12.6474 10.8303L8.4947 16.5881C8.43666 16.6692 8.36015 16.7352 8.2715 16.7807C8.18286 16.8262 8.08464 16.85 7.98498 16.85C7.88532 16.85 7.7871 16.8262 7.69845 16.7807C7.60981 16.7352 7.53329 16.6692 7.47525 16.5881L5.01832 13.1808C4.94339 13.0763 5.01832 12.9303 5.14649 12.9303H6.07129C6.27439 12.9303 6.46369 13.0289 6.582 13.1926L7.98597 15.1408L11.0857 10.8421C11.2041 10.6765 11.3953 10.5799 11.5964 10.5799Z" fill="#FFC700"/>
<path fill-rule="evenodd" clip-rule="evenodd" d="M121.908 13.7158C121.908 8.83738 125.863 4.88184 130.742 4.88184C135.62 4.88184 139.576 8.83738 139.576 13.7158C139.576 18.5942 135.62 22.5497 130.742 22.5497C125.863 22.5497 121.908 18.5942 121.908 13.7158ZM123.406 13.7158C123.406 17.766 126.691 21.0511 130.742 21.0511C134.792 21.0511 138.077 17.766 138.077 13.7158C138.077 9.66556 134.792 6.38044 130.742 6.38044C126.691 6.38044 123.406 9.66556 123.406 13.7158ZM133.504 10.5799H134.429C134.557 10.5799 134.632 10.7258 134.555 10.8303L130.402 16.5881C130.344 16.6692 130.268 16.7352 130.179 16.7807C130.091 16.8262 129.992 16.85 129.893 16.85C129.793 16.85 129.695 16.8262 129.606 16.7807C129.518 16.7352 129.441 16.6692 129.383 16.5881L126.926 13.1808C126.851 13.0763 126.926 12.9303 127.054 12.9303H127.979C128.182 12.9303 128.371 13.0289 128.49 13.1926L129.894 15.1408L132.993 10.8421C133.112 10.6765 133.303 10.5799 133.504 10.5799Z" fill="#FFC700"/>
<path fill-rule="evenodd" clip-rule="evenodd" d="M60.7773 13.7158C60.7773 8.83738 64.7329 4.88184 69.6113 4.88184C74.4897 4.88184 78.4452 8.83738 78.4452 13.7158C78.4452 18.5942 74.4897 22.5497 69.6113 22.5497C64.7329 22.5497 60.7773 18.5942 60.7773 13.7158ZM62.276 13.7158C62.276 17.766 65.5611 21.0511 69.6113 21.0511C73.6615 21.0511 76.9466 17.766 76.9466 13.7158C76.9466 9.66556 73.6615 6.38044 69.6113 6.38044C65.5611 6.38044 62.276 9.66556 62.276 13.7158ZM72.3737 10.5799H73.2985C73.4267 10.5799 73.5017 10.7258 73.4248 10.8303L69.272 16.5881C69.214 16.6692 69.1375 16.7352 69.0488 16.7807C68.9602 16.8262 68.862 16.85 68.7623 16.85C68.6627 16.85 68.5644 16.8262 68.4758 16.7807C68.3871 16.7352 68.3106 16.6692 68.2526 16.5881L65.7957 13.1808C65.7207 13.0763 65.7957 12.9303 65.9238 12.9303H66.8486C67.0517 12.9303 67.241 13.0289 67.3593 13.1926L68.7633 15.1408L71.863 10.8421C71.9814 10.6765 72.1727 10.5799 72.3737 10.5799Z" fill="#FFC700"/>
<path fill-rule="evenodd" clip-rule="evenodd" d="M182.332 68.4853C182.332 63.6069 186.288 59.6514 191.166 59.6514C196.044 59.6514 200 63.6069 200 68.4853C200 73.3637 196.044 77.3192 191.166 77.3192C186.288 77.3192 182.332 73.3637 182.332 68.4853ZM183.831 68.4853C183.831 72.5355 187.116 75.8206 191.166 75.8206C195.216 75.8206 198.501 72.5355 198.501 68.4853C198.501 64.4351 195.216 61.15 191.166 61.15C187.116 61.15 183.831 64.4351 183.831 68.4853ZM193.928 65.3494H194.853C194.981 65.3494 195.056 65.4953 194.979 65.5998L190.827 71.3576C190.769 71.4387 190.692 71.5047 190.604 71.5502C190.515 71.5957 190.417 71.6196 190.317 71.6196C190.217 71.6196 190.119 71.5957 190.03 71.5502C189.942 71.5047 189.865 71.4387 189.807 71.3576L187.35 67.9503C187.275 67.8458 187.35 67.6999 187.479 67.6999H188.403C188.606 67.6999 188.796 67.7985 188.914 67.9621L190.318 69.9103L193.418 65.6117C193.536 65.446 193.727 65.3494 193.928 65.3494Z" fill="#FFC700"/>
<path fill-rule="evenodd" clip-rule="evenodd" d="M0 68.4853C0 63.6069 3.95554 59.6514 8.83392 59.6514C13.7123 59.6514 17.6678 63.6069 17.6678 68.4853C17.6678 73.3637 13.7123 77.3192 8.83392 77.3192C3.95554 77.3192 0 73.3637 0 68.4853ZM1.49861 68.4853C1.49861 72.5355 4.78372 75.8206 8.83392 75.8206C12.8842 75.8206 16.1693 72.5355 16.1693 68.4853C16.1693 64.4351 12.8842 61.15 8.83392 61.15C4.78372 61.15 1.49861 64.4351 1.49861 68.4853ZM11.5964 65.3494H12.5212C12.6494 65.3494 12.7244 65.4953 12.6474 65.5998L8.4947 71.3576C8.43666 71.4387 8.36015 71.5047 8.2715 71.5502C8.18286 71.5957 8.08464 71.6196 7.98498 71.6196C7.88532 71.6196 7.7871 71.5957 7.69845 71.5502C7.60981 71.5047 7.53329 71.4387 7.47525 71.3576L5.01832 67.9503C4.94339 67.8458 5.01832 67.6999 5.14649 67.6999H6.07129C6.27439 67.6999 6.46369 67.7985 6.582 67.9621L7.98597 69.9103L11.0857 65.6117C11.2041 65.446 11.3953 65.3494 11.5964 65.3494Z" fill="#FFC700"/>
<path fill-rule="evenodd" clip-rule="evenodd" d="M121.908 68.4853C121.908 63.6069 125.863 59.6514 130.742 59.6514C135.62 59.6514 139.576 63.6069 139.576 68.4853C139.576 73.3637 135.62 77.3192 130.742 77.3192C125.863 77.3192 121.908 73.3637 121.908 68.4853ZM123.406 68.4853C123.406 72.5355 126.691 75.8206 130.742 75.8206C134.792 75.8206 138.077 72.5355 138.077 68.4853C138.077 64.4351 134.792 61.15 130.742 61.15C126.691 61.15 123.406 64.4351 123.406 68.4853ZM133.504 65.3494H134.429C134.557 65.3494 134.632 65.4953 134.555 65.5998L130.402 71.3576C130.344 71.4387 130.268 71.5047 130.179 71.5502C130.091 71.5957 129.992 71.6196 129.893 71.6196C129.793 71.6196 129.695 71.5957 129.606 71.5502C129.518 71.5047 129.441 71.4387 129.383 71.3576L126.926 67.9503C126.851 67.8458 126.926 67.6999 127.054 67.6999H127.979C128.182 67.6999 128.371 67.7985 128.49 67.9621L129.894 69.9103L132.993 65.6117C133.112 65.446 133.303 65.3494 133.504 65.3494Z" fill="#FFC700"/>
<path fill-rule="evenodd" clip-rule="evenodd" d="M60.7773 68.4853C60.7773 63.6069 64.7329 59.6514 69.6113 59.6514C74.4897 59.6514 78.4452 63.6069 78.4452 68.4853C78.4452 73.3637 74.4897 77.3192 69.6113 77.3192C64.7329 77.3192 60.7773 73.3637 60.7773 68.4853ZM62.276 68.4853C62.276 72.5355 65.5611 75.8206 69.6113 75.8206C73.6615 75.8206 76.9466 72.5355 76.9466 68.4853C76.9466 64.4351 73.6615 61.15 69.6113 61.15C65.5611 61.15 62.276 64.4351 62.276 68.4853ZM72.3737 65.3494H73.2985C73.4267 65.3494 73.5017 65.4953 73.4248 65.5998L69.272 71.3576C69.214 71.4387 69.1375 71.5047 69.0488 71.5502C68.9602 71.5957 68.862 71.6196 68.7623 71.6196C68.6627 71.6196 68.5644 71.5957 68.4758 71.5502C68.3871 71.5047 68.3106 71.4387 68.2526 71.3576L65.7957 67.9503C65.7207 67.8458 65.7957 67.6999 65.9238 67.6999H66.8486C67.0517 67.6999 67.241 67.7985 67.3593 67.9621L68.7633 69.9103L71.863 65.6117C71.9814 65.446 72.1727 65.3494 72.3737 65.3494Z" fill="#FFC700"/>
<path fill-rule="evenodd" clip-rule="evenodd" d="M182.332 123.257C182.332 118.378 186.288 114.423 191.166 114.423C196.044 114.423 200 118.378 200 123.257C200 128.135 196.044 132.091 191.166 132.091C186.288 132.091 182.332 128.135 182.332 123.257ZM183.831 123.257C183.831 127.307 187.116 130.592 191.166 130.592C195.216 130.592 198.501 127.307 198.501 123.257C198.501 119.207 195.216 115.921 191.166 115.921C187.116 115.921 183.831 119.207 183.831 123.257ZM193.928 120.121H194.853C194.981 120.121 195.056 120.267 194.979 120.371L190.827 126.129C190.769 126.21 190.692 126.276 190.604 126.322C190.515 126.367 190.417 126.391 190.317 126.391C190.217 126.391 190.119 126.367 190.03 126.322C189.942 126.276 189.865 126.21 189.807 126.129L187.35 122.722C187.275 122.617 187.35 122.471 187.479 122.471H188.403C188.606 122.471 188.796 122.57 188.914 122.734L190.318 124.682L193.418 120.383C193.536 120.218 193.727 120.121 193.928 120.121Z" fill="#FFC700"/>
<path fill-rule="evenodd" clip-rule="evenodd" d="M0 123.257C0 118.378 3.95554 114.423 8.83392 114.423C13.7123 114.423 17.6678 118.378 17.6678 123.257C17.6678 128.135 13.7123 132.091 8.83392 132.091C3.95554 132.091 0 128.135 0 123.257ZM1.49861 123.257C1.49861 127.307 4.78372 130.592 8.83392 130.592C12.8842 130.592 16.1693 127.307 16.1693 123.257C16.1693 119.207 12.8842 115.921 8.83392 115.921C4.78372 115.921 1.49861 119.207 1.49861 123.257ZM11.5964 120.121H12.5212C12.6494 120.121 12.7244 120.267 12.6474 120.371L8.4947 126.129C8.43666 126.21 8.36015 126.276 8.2715 126.322C8.18286 126.367 8.08464 126.391 7.98498 126.391C7.88532 126.391 7.7871 126.367 7.69845 126.322C7.60981 126.276 7.53329 126.21 7.47525 126.129L5.01832 122.722C4.94339 122.617 5.01832 122.471 5.14649 122.471H6.07129C6.27439 122.471 6.46369 122.57 6.582 122.734L7.98597 124.682L11.0857 120.383C11.2041 120.218 11.3953 120.121 11.5964 120.121Z" fill="#FFC700"/>
<path fill-rule="evenodd" clip-rule="evenodd" d="M121.908 123.257C121.908 118.378 125.863 114.423 130.742 114.423C135.62 114.423 139.576 118.378 139.576 123.257C139.576 128.135 135.62 132.091 130.742 132.091C125.863 132.091 121.908 128.135 121.908 123.257ZM123.406 123.257C123.406 127.307 126.691 130.592 130.742 130.592C134.792 130.592 138.077 127.307 138.077 123.257C138.077 119.207 134.792 115.921 130.742 115.921C126.691 115.921 123.406 119.207 123.406 123.257ZM133.504 120.121H134.429C134.557 120.121 134.632 120.267 134.555 120.371L130.402 126.129C130.344 126.21 130.268 126.276 130.179 126.322C130.091 126.367 129.992 126.391 129.893 126.391C129.793 126.391 129.695 126.367 129.606 126.322C129.518 126.276 129.441 126.21 129.383 126.129L126.926 122.722C126.851 122.617 126.926 122.471 127.054 122.471H127.979C128.182 122.471 128.371 122.57 128.49 122.734L129.894 124.682L132.993 120.383C133.112 120.218 133.303 120.121 133.504 120.121Z" fill="#FFC700"/>
<path fill-rule="evenodd" clip-rule="evenodd" d="M60.7773 123.257C60.7773 118.378 64.7329 114.423 69.6113 114.423C74.4897 114.423 78.4452 118.378 78.4452 123.257C78.4452 128.135 74.4897 132.091 69.6113 132.091C64.7329 132.091 60.7773 128.135 60.7773 123.257ZM62.276 123.257C62.276 127.307 65.5611 130.592 69.6113 130.592C73.6615 130.592 76.9466 127.307 76.9466 123.257C76.9466 119.207 73.6615 115.921 69.6113 115.921C65.5611 115.921 62.276 119.207 62.276 123.257ZM72.3737 120.121H73.2985C73.4267 120.121 73.5017 120.267 73.4248 120.371L69.272 126.129C69.214 126.21 69.1375 126.276 69.0488 126.322C68.9602 126.367 68.862 126.391 68.7623 126.391C68.6627 126.391 68.5644 126.367 68.4758 126.322C68.3871 126.276 68.3106 126.21 68.2526 126.129L65.7957 122.722C65.7207 122.617 65.7957 122.471 65.9238 122.471H66.8486C67.0517 122.471 67.241 122.57 67.3593 122.734L68.7633 124.682L71.863 120.383C71.9814 120.218 72.1727 120.121 72.3737 120.121Z" fill="#FFC700"/>
<path d="M139.736 43.6104C139.49 26.8187 132.537 16.3056 118.755 11.6594C90.383 2.37765 71.3211 5.75035 61.0544 21.488C52.3758 34.7913 50.2496 43.9128 52.94 53.3985C53.792 56.4025 55.1374 59.5511 57.1219 63.2964L57.495 63.9943C58.7755 66.3739 59.739 68.0326 62.5829 72.7526L64.3555 75.6894C72.5943 89.3238 74.8727 101.507 71.0367 112.128C85.8307 117.262 96.9683 120.04 104.381 120.47L104.672 120.485C108.176 120.661 110.734 120.29 112.314 119.449C113.65 118.738 114.267 117.708 114.286 116.103L114.287 115.884C114.311 111.306 115.504 108.301 117.994 106.523C119.075 105.752 120.342 105.251 121.885 104.915L122.03 104.884C122.971 104.686 123.875 104.564 125.408 104.41L126.808 104.273C129.591 103.997 130.871 103.804 132.433 103.368L132.63 103.312C133.972 102.926 135.187 102.409 136.317 101.722L136.518 101.598C138.79 100.187 139.939 98.9657 140.335 97.8528C140.603 97.1016 140.573 96.4657 140.246 94.9757L140.112 94.3712L140.077 94.2107C139.984 93.7762 139.935 93.5043 139.888 93.157L139.876 93.0629C139.665 91.3726 139.945 89.9031 140.939 88.4745L141.052 88.3148C141.369 87.8635 141.592 87.4832 141.731 87.1712C141.827 86.956 141.872 86.8016 141.884 86.6978L141.886 86.6763C141.89 86.6285 141.887 86.6098 141.809 86.473L141.65 86.1994L141.587 86.0894C140.859 84.797 140.882 83.5226 141.892 82.0629L141.955 81.9743L141.981 81.9342C142.219 81.5636 142.127 81.2834 141.373 80.2438L140.96 79.6778L140.826 79.491C140.689 79.2971 140.609 79.1762 140.511 79.0167L140.398 78.8283C140.071 78.2701 139.858 77.7348 139.777 77.1499C139.755 76.9906 139.743 76.8304 139.743 76.6694C139.743 75.4657 140.443 74.651 141.497 74.0706C142.033 73.7748 142.654 73.5384 143.555 73.2585L143.889 73.1569C144.186 73.0682 144.808 72.8857 145.247 72.7553L145.64 72.6371L145.822 72.5803C147.709 71.9856 148.671 71.445 148.84 71.0168C148.846 71.0031 148.852 70.9652 148.85 70.8898C148.845 70.7573 148.812 70.5808 148.746 70.3642C148.594 69.8725 148.291 69.252 147.836 68.5101L147.695 68.2838C147.056 67.268 146.44 66.4295 144.912 64.4929L143.189 62.3213L142.853 61.8947L142.563 61.5247C141.558 60.236 140.811 59.2233 140.165 58.2513L140.054 58.0838C137.434 54.0939 137.343 49.42 139.671 44.2771L139.742 44.1211L139.736 43.6104Z" fill="white"/>
<path d="M145.047 84.5053C146.074 86.3008 145.919 88.0217 144.076 90.5994C143.643 91.2049 143.531 91.7481 143.632 92.5738L143.642 92.6496C143.675 92.8945 143.714 93.1059 143.795 93.4829L143.985 94.3414L144.045 94.6243C144.17 95.2242 144.236 95.6434 144.273 96.1239L144.282 96.253C144.347 97.2475 144.237 98.1881 143.903 99.1245C143.18 101.155 141.46 102.988 138.517 104.816L138.286 104.959C136.855 105.829 135.33 106.478 133.677 106.954L133.42 107.026C131.582 107.538 130.142 107.752 127.071 108.055L125.969 108.162C122.684 108.493 121.3 108.818 120.194 109.608L120.15 109.639C118.827 110.612 118.106 112.439 118.075 115.799L118.074 116.12C118.045 119.107 116.676 121.419 114.093 122.794C111.746 124.043 108.447 124.501 104.162 124.252C96.004 123.78 83.947 120.709 67.9141 115.049L65.9912 114.37L66.8096 112.502C71.0997 102.709 69.2619 91.135 61.1129 77.6493L58.7506 73.7328C56.3976 69.8193 55.4489 68.1795 54.2847 66.0238L53.8814 65.2726L53.6606 64.8557C51.622 60.985 50.2119 57.6652 49.295 54.4325C46.2717 43.7728 48.6507 33.5667 57.8814 19.4171C69.2502 1.98999 90.1052 -1.69996 119.948 8.06311C135.621 13.3464 143.531 25.6531 143.531 44.5429V44.9769L143.342 45.3676C141.294 49.6048 141.294 53.0704 143.22 56.0035C143.865 56.9854 144.64 58.0341 145.749 59.4488L146.16 59.9703L147.773 62.0027C149.453 64.1288 150.129 65.0441 150.858 66.1984L151.053 66.5101L151.164 66.6926C152.511 68.9319 153.022 70.7376 152.364 72.4074C151.92 73.5323 151.043 74.3705 149.83 75.0384C148.992 75.5001 148.043 75.8621 146.753 76.2589L146.463 76.3463C146.05 76.4697 145.418 76.6555 145.073 76.7576L144.777 76.8465L144.615 76.8969C144.3 76.9958 144.041 77.0842 143.829 77.165L143.915 77.2908C143.998 77.4102 144.098 77.5502 144.218 77.7146L144.413 77.9829L144.538 78.1565C145.166 79.0344 145.496 79.6199 145.72 80.3963C146.085 81.6629 145.887 82.9402 145.077 84.1195L145.028 84.1887C145.011 84.2134 144.995 84.2367 144.98 84.2588L144.94 84.3212L145.047 84.5053ZM139.736 43.6102C139.489 26.8186 132.537 16.3055 118.754 11.6593C90.3825 2.37752 71.3207 5.75021 61.054 21.4878C52.3753 34.7912 50.2492 43.9127 52.9395 53.3983C53.7915 56.4024 55.1369 59.551 57.1214 63.2962L57.4945 63.9942C58.775 66.3738 59.7385 68.0324 62.5824 72.7525L64.355 75.6893C72.5938 89.3237 74.8722 101.506 71.0362 112.128C85.8302 117.262 96.9678 120.04 104.381 120.47L104.671 120.485C108.176 120.661 110.733 120.29 112.313 119.449C113.65 118.738 114.266 117.708 114.286 116.102L114.286 115.884C114.31 111.305 115.504 108.3 117.993 106.523C119.074 105.752 120.341 105.251 121.885 104.915L122.03 104.884C122.97 104.686 123.874 104.564 125.408 104.41L126.807 104.273C129.591 103.997 130.871 103.804 132.433 103.368L132.63 103.312C133.972 102.926 135.187 102.409 136.317 101.721L136.517 101.598C138.79 100.187 139.938 98.9656 140.335 97.8527C140.602 97.1015 140.572 96.4655 140.245 94.9756L140.111 94.371L140.076 94.2105C139.983 93.7761 139.935 93.5042 139.888 93.1569L139.876 93.0628C139.664 91.3725 139.945 89.903 140.938 88.4744L141.051 88.3147C141.369 87.8634 141.591 87.4831 141.73 87.1711C141.826 86.9559 141.871 86.8015 141.883 86.6976L141.886 86.6762C141.889 86.6283 141.887 86.6097 141.809 86.4728L141.649 86.1992L141.586 86.0892C140.859 84.7969 140.882 83.5224 141.892 82.0628L141.954 81.9742L141.981 81.9341C142.218 81.5634 142.126 81.2833 141.373 80.2436L140.96 79.6776L140.826 79.4909C140.688 79.297 140.609 79.1761 140.511 79.0166L140.397 78.8282C140.071 78.27 139.858 77.7346 139.776 77.1497C139.754 76.9904 139.743 76.8302 139.743 76.6693C139.743 75.4655 140.443 74.6509 141.496 74.0704C142.033 73.7746 142.654 73.5383 143.554 73.2584L143.888 73.1567C144.186 73.0681 144.808 72.8855 145.246 72.7552L145.64 72.637L145.822 72.5802C147.708 71.9855 148.671 71.4449 148.84 71.0167C148.845 71.0029 148.851 70.9651 148.85 70.8897C148.844 70.7572 148.812 70.5807 148.745 70.3641C148.594 69.8724 148.29 69.2519 147.835 68.51L147.694 68.2837C147.055 67.2679 146.439 66.4293 144.912 64.4928L143.189 62.3212L142.853 61.8946L142.563 61.5246C141.558 60.2358 140.811 59.2231 140.164 58.2512L140.054 58.0837C137.434 54.0937 137.343 49.4198 139.67 44.277L139.741 44.121L139.736 43.6102Z" fill="black"/>
<path d="M78.6846 55.3194H80.7385L76.4982 67.4274H74.4112L70.1875 55.3194H72.2248L74.7508 62.8475C74.8712 63.1738 74.9985 63.5856 75.1327 64.083L75.1731 64.2347C75.3222 64.8007 75.4188 65.2217 75.463 65.4977C75.5268 65.1247 75.6211 64.6994 75.746 64.2217L75.7943 64.0401C75.9434 63.488 76.0648 63.0794 76.1587 62.8144L78.6846 55.3194ZM93.0867 61.3568C93.0867 63.3279 92.5939 64.86 91.6084 65.9532C90.6228 67.0464 89.2274 67.593 87.4219 67.593C85.5944 67.593 84.1907 67.0506 83.2106 65.9656C82.2306 64.8807 81.7406 63.3389 81.7406 61.3403C81.7406 59.3416 82.2334 57.8067 83.2189 56.7356C84.2045 55.6645 85.611 55.1289 87.4385 55.1289C89.2384 55.1289 90.6297 55.6727 91.6125 56.7604C92.5953 57.8481 93.0867 59.3802 93.0867 61.3568ZM83.8442 61.3568C83.8442 62.8476 84.1451 63.978 84.7469 64.7482C85.3487 65.5184 86.2404 65.9035 87.4219 65.9035C88.598 65.9035 89.4855 65.5226 90.0845 64.7606C90.6836 63.9987 90.9831 62.8641 90.9831 61.3568C90.9831 59.8716 90.6863 58.7453 90.0928 57.9778C89.4993 57.2104 88.6145 56.8267 87.4385 56.8267C86.2514 56.8267 85.3556 57.2104 84.751 57.9778C84.1465 58.7453 83.8442 59.8716 83.8442 61.3568ZM105.178 55.3194V63.154C105.178 64.0484 104.986 64.831 104.603 65.5019C104.219 66.1727 103.664 66.6889 102.938 67.0506C102.212 67.4122 101.344 67.593 100.333 67.593C98.8315 67.593 97.6638 67.1955 96.8301 66.4004C95.9964 65.6054 95.5795 64.5122 95.5795 63.1208V55.3194H97.5671V62.9801C97.5671 63.9794 97.799 64.7165 98.2628 65.1913C98.7266 65.6661 99.4388 65.9035 100.4 65.9035C102.266 65.9035 103.199 64.9235 103.199 62.9635V55.3194H105.178ZM113.427 56.8432C112.289 56.8432 111.395 57.2463 110.743 58.0524C110.092 58.8585 109.766 59.971 109.766 61.3899C109.766 62.8752 110.08 63.9987 110.706 64.7606C111.333 65.5226 112.24 65.9035 113.427 65.9035C113.94 65.9035 114.437 65.8525 114.918 65.7503C115.398 65.6482 115.898 65.517 116.417 65.3569V67.0547C115.467 67.4136 114.39 67.593 113.187 67.593C111.414 67.593 110.053 67.0561 109.104 65.9822C108.154 64.9083 107.679 63.3721 107.679 61.3734C107.679 60.1145 107.91 59.0131 108.371 58.0689C108.832 57.1248 109.498 56.4015 110.371 55.8991C111.243 55.3967 112.267 55.1455 113.443 55.1455C114.68 55.1455 115.823 55.405 116.872 55.924L116.16 57.572C115.751 57.3788 115.319 57.209 114.864 57.0627C114.408 56.9164 113.929 56.8432 113.427 56.8432ZM128.574 67.4274H126.587V61.9697H121.005V67.4274H119.025V55.3194H121.005V60.2719H126.587V55.3194H128.574V67.4274Z" fill="#FF9900"/>
</svg>
