<svg width="200" height="136" viewBox="0 0 200 136" fill="none" xmlns="http://www.w3.org/2000/svg">
<g clip-path="url(#clip0_4044_29584)">
<path d="M5.69709 129.405V134.854H11.2526V129.405H5.69709ZM0 117.728C0.0235906 116.454 0.2418 115.286 0.654635 114.224C1.06747 113.163 1.64543 112.243 2.38853 111.464C3.13164 110.686 4.02806 110.078 5.07784 109.642C6.12762 109.206 7.30124 108.987 8.59872 108.987C10.2736 108.987 11.6714 109.217 12.7919 109.677C13.9125 110.137 14.8148 110.709 15.4989 111.394C16.183 112.078 16.6725 112.815 16.9674 113.605C17.2623 114.395 17.4097 115.133 17.4097 115.817C17.4097 116.949 17.2623 117.881 16.9674 118.612C16.6725 119.344 16.3069 119.969 15.8705 120.488C15.434 121.007 14.9504 121.449 14.4197 121.815C13.8889 122.18 13.3876 122.546 12.9158 122.912C12.444 123.277 12.0252 123.696 11.6596 124.168C11.2939 124.64 11.0639 125.229 10.9696 125.937V127.282H6.19249V125.689C6.26326 124.675 6.45788 123.826 6.77636 123.142C7.09483 122.457 7.46637 121.874 7.891 121.39C8.31563 120.906 8.76385 120.488 9.23566 120.134C9.70747 119.78 10.1439 119.426 10.5449 119.072C10.946 118.718 11.2703 118.329 11.518 117.904C11.7657 117.48 11.8778 116.949 11.8542 116.312C11.8542 115.227 11.5888 114.425 11.058 113.906C10.5272 113.387 9.79004 113.127 8.84642 113.127C8.20947 113.127 7.661 113.251 7.20098 113.499C6.74097 113.747 6.36352 114.077 6.06864 114.49C5.77376 114.903 5.55555 115.386 5.41401 115.941C5.27246 116.495 5.20169 117.091 5.20169 117.728H0Z" fill="#FFC700"/>
<path d="M5.69709 74.9117V80.3611H11.2526V74.9117H5.69709ZM0 63.2344C0.0235906 61.9605 0.2418 60.7928 0.654635 59.7312C1.06747 58.6696 1.64543 57.7496 2.38853 56.9711C3.13164 56.1926 4.02806 55.5852 5.07784 55.1488C6.12762 54.7124 7.30124 54.4941 8.59872 54.4941C10.2736 54.4941 11.6714 54.7241 12.7919 55.1842C13.9125 55.6442 14.8148 56.2162 15.4989 56.9004C16.183 57.5845 16.6725 58.3217 16.9674 59.112C17.2623 59.9023 17.4097 60.6395 17.4097 61.3236C17.4097 62.4559 17.2623 63.3877 16.9674 64.119C16.6725 64.8504 16.3069 65.4755 15.8705 65.9945C15.434 66.5135 14.9504 66.9558 14.4197 67.3214C13.8889 67.6871 13.3876 68.0528 12.9158 68.4184C12.444 68.7841 12.0252 69.2028 11.6596 69.6746C11.2939 70.1464 11.0639 70.7362 10.9696 71.4439V72.7885H6.19249V71.1962C6.26326 70.1818 6.45788 69.3325 6.77636 68.6484C7.09483 67.9643 7.46637 67.3804 7.891 66.8968C8.31563 66.4132 8.76385 65.9945 9.23566 65.6406C9.70747 65.2868 10.1439 64.9329 10.5449 64.5791C10.946 64.2252 11.2703 63.836 11.518 63.4113C11.7657 62.9867 11.8778 62.4559 11.8542 61.819C11.8542 60.7338 11.5888 59.9317 11.058 59.4128C10.5272 58.8938 9.79004 58.6343 8.84642 58.6343C8.20947 58.6343 7.661 58.7581 7.20098 59.0058C6.74097 59.2535 6.36352 59.5838 6.06864 59.9966C5.77376 60.4094 5.55555 60.8931 5.41401 61.4474C5.27246 62.0018 5.20169 62.5975 5.20169 63.2344H0Z" fill="#FFC700"/>
<path d="M5.69709 20.4175V25.8669H11.2526V20.4175H5.69709ZM0 8.74026C0.0235906 7.46637 0.2418 6.29866 0.654635 5.23708C1.06747 4.1755 1.64543 3.25549 2.38853 2.477C3.13164 1.69851 4.02806 1.09106 5.07784 0.654635C6.12762 0.218209 7.30124 0 8.59872 0C10.2736 0 11.6714 0.230005 12.7919 0.690021C13.9125 1.15004 14.8148 1.7221 15.4989 2.40623C16.183 3.09035 16.6725 3.82755 16.9674 4.61783C17.2623 5.40811 17.4097 6.14531 17.4097 6.82943C17.4097 7.96178 17.2623 8.8936 16.9674 9.6249C16.6725 10.3562 16.3069 10.9814 15.8705 11.5003C15.434 12.0193 14.9504 12.4617 14.4197 12.8273C13.8889 13.193 13.3876 13.5586 12.9158 13.9243C12.444 14.2899 12.0252 14.7086 11.6596 15.1805C11.2939 15.6523 11.0639 16.242 10.9696 16.9497V18.2944H6.19249V16.702C6.26326 15.6876 6.45788 14.8384 6.77636 14.1543C7.09483 13.4701 7.46637 12.8863 7.891 12.4027C8.31563 11.9191 8.76385 11.5003 9.23566 11.1465C9.70747 10.7926 10.1439 10.4388 10.5449 10.0849C10.946 9.73106 11.2703 9.34182 11.518 8.91719C11.7657 8.49256 11.8778 7.96178 11.8542 7.32483C11.8542 6.23967 11.5888 5.4376 11.058 4.91861C10.5272 4.39962 9.79004 4.14012 8.84642 4.14012C8.20947 4.14012 7.661 4.26397 7.20098 4.51167C6.74097 4.75937 6.36352 5.08964 6.06864 5.50247C5.77376 5.91531 5.55555 6.39891 5.41401 6.95328C5.27246 7.50766 5.20169 8.10332 5.20169 8.74026H0Z" fill="#FFC700"/>
<path d="M66.5604 129.405V134.854H72.1159V129.405H66.5604ZM60.8633 117.728C60.8869 116.454 61.1051 115.286 61.5179 114.224C61.9308 113.163 62.5087 112.243 63.2518 111.464C63.9949 110.686 64.8913 110.078 65.9411 109.642C66.9909 109.206 68.1645 108.987 69.462 108.987C71.1369 108.987 72.5347 109.217 73.6552 109.677C74.7758 110.137 75.6781 110.709 76.3622 111.394C77.0463 112.078 77.5358 112.815 77.8307 113.605C78.1256 114.395 78.273 115.133 78.273 115.817C78.273 116.949 78.1256 117.881 77.8307 118.612C77.5358 119.344 77.1702 119.969 76.7338 120.488C76.2973 121.007 75.8137 121.449 75.2829 121.815C74.7522 122.18 74.2509 122.546 73.779 122.912C73.3072 123.277 72.8885 123.696 72.5229 124.168C72.1572 124.64 71.9272 125.229 71.8328 125.937V127.282H67.0558V125.689C67.1265 124.675 67.3212 123.826 67.6396 123.142C67.9581 122.457 68.3297 121.874 68.7543 121.39C69.1789 120.906 69.6271 120.488 70.0989 120.134C70.5708 119.78 71.0072 119.426 71.4082 119.072C71.8093 118.718 72.1336 118.329 72.3813 117.904C72.629 117.48 72.7411 116.949 72.7175 116.312C72.7175 115.227 72.4521 114.425 71.9213 113.906C71.3905 113.387 70.6533 113.127 69.7097 113.127C69.0728 113.127 68.5243 113.251 68.0643 113.499C67.6043 113.747 67.2268 114.077 66.9319 114.49C66.637 114.903 66.4188 115.386 66.2773 115.941C66.1357 116.495 66.065 117.091 66.065 117.728H60.8633Z" fill="#FFC700"/>
<path d="M66.5599 74.9117V80.3611H72.1154V74.9117H66.5599ZM60.8628 63.2344C60.8864 61.9605 61.1046 60.7928 61.5174 59.7312C61.9303 58.6696 62.5082 57.7496 63.2513 56.9711C63.9944 56.1926 64.8909 55.5852 65.9406 55.1488C66.9904 54.7124 68.164 54.4941 69.4615 54.4941C71.1364 54.4941 72.5342 54.7241 73.6547 55.1842C74.7753 55.6442 75.6776 56.2162 76.3617 56.9004C77.0458 57.5845 77.5353 58.3217 77.8302 59.112C78.1251 59.9023 78.2725 60.6395 78.2725 61.3236C78.2725 62.4559 78.1251 63.3877 77.8302 64.119C77.5353 64.8504 77.1697 65.4755 76.7333 65.9945C76.2968 66.5135 75.8132 66.9558 75.2825 67.3214C74.7517 67.6871 74.2504 68.0528 73.7786 68.4184C73.3068 68.7841 72.888 69.2028 72.5224 69.6746C72.1567 70.1464 71.9267 70.7362 71.8323 71.4439V72.7885H67.0553V71.1962C67.1261 70.1818 67.3207 69.3325 67.6392 68.6484C67.9576 67.9643 68.3292 67.3804 68.7538 66.8968C69.1784 66.4132 69.6266 65.9945 70.0985 65.6406C70.5703 65.2868 71.0067 64.9329 71.4077 64.5791C71.8088 64.2252 72.1331 63.836 72.3808 63.4113C72.6285 62.9867 72.7406 62.4559 72.717 61.819C72.717 60.7338 72.4516 59.9317 71.9208 59.4128C71.39 58.8938 70.6528 58.6343 69.7092 58.6343C69.0723 58.6343 68.5238 58.7581 68.0638 59.0058C67.6038 59.2535 67.2263 59.5838 66.9314 59.9966C66.6366 60.4094 66.4183 60.8931 66.2768 61.4474C66.1353 62.0018 66.0645 62.5975 66.0645 63.2344H60.8628Z" fill="#FFC700"/>
<path d="M66.5599 20.4175V25.8669H72.1154V20.4175H66.5599ZM60.8628 8.74026C60.8864 7.46637 61.1046 6.29866 61.5174 5.23708C61.9303 4.1755 62.5082 3.25549 63.2513 2.477C63.9944 1.69851 64.8909 1.09106 65.9406 0.654635C66.9904 0.218209 68.164 0 69.4615 0C71.1364 0 72.5342 0.230005 73.6547 0.690021C74.7753 1.15004 75.6776 1.7221 76.3617 2.40623C77.0458 3.09035 77.5353 3.82755 77.8302 4.61783C78.1251 5.40811 78.2725 6.14531 78.2725 6.82943C78.2725 7.96178 78.1251 8.8936 77.8302 9.6249C77.5353 10.3562 77.1697 10.9814 76.7333 11.5003C76.2968 12.0193 75.8132 12.4617 75.2825 12.8273C74.7517 13.193 74.2504 13.5586 73.7786 13.9243C73.3068 14.2899 72.888 14.7086 72.5224 15.1805C72.1567 15.6523 71.9267 16.242 71.8323 16.9497V18.2944H67.0553V16.702C67.1261 15.6876 67.3207 14.8384 67.6392 14.1543C67.9576 13.4701 68.3292 12.8863 68.7538 12.4027C69.1784 11.9191 69.6266 11.5003 70.0985 11.1465C70.5703 10.7926 71.0067 10.4388 71.4077 10.0849C71.8088 9.73106 72.1331 9.34182 72.3808 8.91719C72.6285 8.49256 72.7406 7.96178 72.717 7.32483C72.717 6.23967 72.4516 5.4376 71.9208 4.91861C71.39 4.39962 70.6528 4.14012 69.7092 4.14012C69.0723 4.14012 68.5238 4.26397 68.0638 4.51167C67.6038 4.75937 67.2263 5.08964 66.9314 5.50247C66.6366 5.91531 66.4183 6.39891 66.2768 6.95328C66.1353 7.50766 66.0645 8.10332 66.0645 8.74026H60.8628Z" fill="#FFC700"/>
<path d="M127.424 129.405V134.854H132.979V129.405H127.424ZM121.727 117.728C121.75 116.454 121.968 115.286 122.381 114.224C122.794 113.163 123.372 112.243 124.115 111.464C124.858 110.686 125.755 110.078 126.804 109.642C127.854 109.206 129.028 108.987 130.325 108.987C132 108.987 133.398 109.217 134.518 109.677C135.639 110.137 136.541 110.709 137.225 111.394C137.91 112.078 138.399 112.815 138.694 113.605C138.989 114.395 139.136 115.133 139.136 115.817C139.136 116.949 138.989 117.881 138.694 118.612C138.399 119.344 138.033 119.969 137.597 120.488C137.161 121.007 136.677 121.449 136.146 121.815C135.615 122.18 135.114 122.546 134.642 122.912C134.171 123.277 133.752 123.696 133.386 124.168C133.02 124.64 132.79 125.229 132.696 125.937V127.282H127.919V125.689C127.99 124.675 128.184 123.826 128.503 123.142C128.821 122.457 129.193 121.874 129.618 121.39C130.042 120.906 130.49 120.488 130.962 120.134C131.434 119.78 131.87 119.426 132.271 119.072C132.673 118.718 132.997 118.329 133.245 117.904C133.492 117.48 133.604 116.949 133.581 116.312C133.581 115.227 133.315 114.425 132.785 113.906C132.254 113.387 131.517 113.127 130.573 113.127C129.936 113.127 129.388 113.251 128.928 113.499C128.468 113.747 128.09 114.077 127.795 114.49C127.5 114.903 127.282 115.386 127.141 115.941C126.999 116.495 126.928 117.091 126.928 117.728H121.727Z" fill="#FFC700"/>
<path d="M127.424 74.9117V80.3611H132.979V74.9117H127.424ZM121.727 63.2344C121.75 61.9605 121.968 60.7928 122.381 59.7312C122.794 58.6696 123.372 57.7496 124.115 56.9711C124.858 56.1926 125.755 55.5852 126.804 55.1488C127.854 54.7124 129.028 54.4941 130.325 54.4941C132 54.4941 133.398 54.7241 134.518 55.1842C135.639 55.6442 136.541 56.2162 137.225 56.9004C137.91 57.5845 138.399 58.3217 138.694 59.112C138.989 59.9023 139.136 60.6395 139.136 61.3236C139.136 62.4559 138.989 63.3877 138.694 64.119C138.399 64.8504 138.033 65.4755 137.597 65.9945C137.161 66.5135 136.677 66.9558 136.146 67.3214C135.615 67.6871 135.114 68.0528 134.642 68.4184C134.171 68.7841 133.752 69.2028 133.386 69.6746C133.02 70.1464 132.79 70.7362 132.696 71.4439V72.7885H127.919V71.1962C127.99 70.1818 128.184 69.3325 128.503 68.6484C128.821 67.9643 129.193 67.3804 129.618 66.8968C130.042 66.4132 130.49 65.9945 130.962 65.6406C131.434 65.2868 131.87 64.9329 132.271 64.5791C132.673 64.2252 132.997 63.836 133.245 63.4113C133.492 62.9867 133.604 62.4559 133.581 61.819C133.581 60.7338 133.315 59.9317 132.785 59.4128C132.254 58.8938 131.517 58.6343 130.573 58.6343C129.936 58.6343 129.388 58.7581 128.928 59.0058C128.468 59.2535 128.09 59.5838 127.795 59.9966C127.5 60.4094 127.282 60.8931 127.141 61.4474C126.999 62.0018 126.928 62.5975 126.928 63.2344H121.727Z" fill="#FFC700"/>
<path d="M127.424 20.4175V25.8669H132.979V20.4175H127.424ZM121.727 8.74026C121.75 7.46637 121.968 6.29866 122.381 5.23708C122.794 4.1755 123.372 3.25549 124.115 2.477C124.858 1.69851 125.755 1.09106 126.804 0.654635C127.854 0.218209 129.028 0 130.325 0C132 0 133.398 0.230005 134.518 0.690021C135.639 1.15004 136.541 1.7221 137.225 2.40623C137.91 3.09035 138.399 3.82755 138.694 4.61783C138.989 5.40811 139.136 6.14531 139.136 6.82943C139.136 7.96178 138.989 8.8936 138.694 9.6249C138.399 10.3562 138.033 10.9814 137.597 11.5003C137.161 12.0193 136.677 12.4617 136.146 12.8273C135.615 13.193 135.114 13.5586 134.642 13.9243C134.171 14.2899 133.752 14.7086 133.386 15.1805C133.02 15.6523 132.79 16.242 132.696 16.9497V18.2944H127.919V16.702C127.99 15.6876 128.184 14.8384 128.503 14.1543C128.821 13.4701 129.193 12.8863 129.618 12.4027C130.042 11.9191 130.49 11.5003 130.962 11.1465C131.434 10.7926 131.87 10.4388 132.271 10.0849C132.673 9.73106 132.997 9.34182 133.245 8.91719C133.492 8.49256 133.604 7.96178 133.581 7.32483C133.581 6.23967 133.315 5.4376 132.785 4.91861C132.254 4.39962 131.517 4.14012 130.573 4.14012C129.936 4.14012 129.388 4.26397 128.928 4.51167C128.468 4.75937 128.09 5.08964 127.795 5.50247C127.5 5.91531 127.282 6.39891 127.141 6.95328C126.999 7.50766 126.928 8.10332 126.928 8.74026H121.727Z" fill="#FFC700"/>
<path d="M188.287 129.405V134.854H193.843V129.405H188.287ZM182.59 117.728C182.614 116.454 182.832 115.286 183.245 114.224C183.658 113.163 184.236 112.243 184.979 111.464C185.722 110.686 186.618 110.078 187.668 109.642C188.718 109.206 189.892 108.987 191.189 108.987C192.864 108.987 194.262 109.217 195.382 109.677C196.503 110.137 197.405 110.709 198.089 111.394C198.773 112.078 199.263 112.815 199.558 113.605C199.853 114.395 200 115.133 200 115.817C200 116.949 199.853 117.881 199.558 118.612C199.263 119.344 198.897 119.969 198.461 120.488C198.024 121.007 197.541 121.449 197.01 121.815C196.479 122.18 195.978 122.546 195.506 122.912C195.034 123.277 194.616 123.696 194.25 124.168C193.884 124.64 193.654 125.229 193.56 125.937V127.282H188.783V125.689C188.854 124.675 189.048 123.826 189.367 123.142C189.685 122.457 190.057 121.874 190.481 121.39C190.906 120.906 191.354 120.488 191.826 120.134C192.298 119.78 192.734 119.426 193.135 119.072C193.536 118.718 193.861 118.329 194.108 117.904C194.356 117.48 194.468 116.949 194.445 116.312C194.445 115.227 194.179 114.425 193.648 113.906C193.118 113.387 192.38 113.127 191.437 113.127C190.8 113.127 190.251 113.251 189.791 113.499C189.331 113.747 188.954 114.077 188.659 114.49C188.364 114.903 188.146 115.386 188.004 115.941C187.863 116.495 187.792 117.091 187.792 117.728H182.59Z" fill="#FFC700"/>
<path d="M188.287 74.9117V80.3611H193.843V74.9117H188.287ZM182.59 63.2344C182.614 61.9605 182.832 60.7928 183.245 59.7312C183.658 58.6696 184.236 57.7496 184.979 56.9711C185.722 56.1926 186.618 55.5852 187.668 55.1488C188.718 54.7124 189.892 54.4941 191.189 54.4941C192.864 54.4941 194.262 54.7241 195.382 55.1842C196.503 55.6442 197.405 56.2162 198.089 56.9004C198.773 57.5845 199.263 58.3217 199.558 59.112C199.853 59.9023 200 60.6395 200 61.3236C200 62.4559 199.853 63.3877 199.558 64.119C199.263 64.8504 198.897 65.4755 198.461 65.9945C198.024 66.5135 197.541 66.9558 197.01 67.3214C196.479 67.6871 195.978 68.0528 195.506 68.4184C195.034 68.7841 194.616 69.2028 194.25 69.6746C193.884 70.1464 193.654 70.7362 193.56 71.4439V72.7885H188.783V71.1962C188.854 70.1818 189.048 69.3325 189.367 68.6484C189.685 67.9643 190.057 67.3804 190.481 66.8968C190.906 66.4132 191.354 65.9945 191.826 65.6406C192.298 65.2868 192.734 64.9329 193.135 64.5791C193.536 64.2252 193.861 63.836 194.108 63.4113C194.356 62.9867 194.468 62.4559 194.445 61.819C194.445 60.7338 194.179 59.9317 193.648 59.4128C193.118 58.8938 192.38 58.6343 191.437 58.6343C190.8 58.6343 190.251 58.7581 189.791 59.0058C189.331 59.2535 188.954 59.5838 188.659 59.9966C188.364 60.4094 188.146 60.8931 188.004 61.4474C187.863 62.0018 187.792 62.5975 187.792 63.2344H182.59Z" fill="#FFC700"/>
<path d="M188.287 20.4175V25.8669H193.843V20.4175H188.287ZM182.59 8.74026C182.614 7.46637 182.832 6.29866 183.245 5.23708C183.658 4.1755 184.236 3.25549 184.979 2.477C185.722 1.69851 186.618 1.09106 187.668 0.654635C188.718 0.218209 189.892 0 191.189 0C192.864 0 194.262 0.230005 195.382 0.690021C196.503 1.15004 197.405 1.7221 198.089 2.40623C198.773 3.09035 199.263 3.82755 199.558 4.61783C199.853 5.40811 200 6.14531 200 6.82943C200 7.96178 199.853 8.8936 199.558 9.6249C199.263 10.3562 198.897 10.9814 198.461 11.5003C198.024 12.0193 197.541 12.4617 197.01 12.8273C196.479 13.193 195.978 13.5586 195.506 13.9243C195.034 14.2899 194.616 14.7086 194.25 15.1805C193.884 15.6523 193.654 16.242 193.56 16.9497V18.2944H188.783V16.702C188.854 15.6876 189.048 14.8384 189.367 14.1543C189.685 13.4701 190.057 12.8863 190.481 12.4027C190.906 11.9191 191.354 11.5003 191.826 11.1465C192.298 10.7926 192.734 10.4388 193.135 10.0849C193.536 9.73106 193.861 9.34182 194.108 8.91719C194.356 8.49256 194.468 7.96178 194.445 7.32483C194.445 6.23967 194.179 5.4376 193.648 4.91861C193.118 4.39962 192.38 4.14012 191.437 4.14012C190.8 4.14012 190.251 4.26397 189.791 4.51167C189.331 4.75937 188.954 5.08964 188.659 5.50247C188.364 5.91531 188.146 6.39891 188.004 6.95328C187.863 7.50766 187.792 8.10332 187.792 8.74026H182.59Z" fill="#FFC700"/>
<path d="M139.617 46.9558C139.37 30.1404 132.407 19.6124 118.605 14.9596C90.1934 5.66474 71.1045 9.0422 60.8233 24.8021C52.1324 38.1243 50.0032 47.2587 52.6974 56.7577C53.5506 59.766 54.8979 62.9191 56.8852 66.6696L57.2588 67.3686C58.5411 69.7515 59.506 71.4125 62.3539 76.1392L64.1291 79.0802C72.3795 92.7339 74.6611 104.934 70.8197 115.57C85.6346 120.712 96.788 123.494 104.212 123.924L104.502 123.94C108.012 124.116 110.573 123.744 112.155 122.902C113.494 122.189 114.111 121.158 114.13 119.55L114.131 119.331C114.155 114.747 115.35 111.737 117.843 109.958C118.926 109.185 120.195 108.684 121.74 108.347L121.885 108.316C122.827 108.118 123.732 107.996 125.268 107.841L126.67 107.705C129.457 107.428 130.739 107.235 132.303 106.798L132.5 106.742C133.844 106.355 135.061 105.838 136.193 105.149L136.394 105.026C138.669 103.613 139.819 102.389 140.216 101.275C140.484 100.523 140.454 99.8858 140.127 98.3937L139.992 97.7884L139.958 97.6277C139.864 97.1926 139.816 96.9203 139.769 96.5725L139.756 96.4782C139.545 94.7856 139.825 93.314 140.821 91.8834L140.934 91.7235C141.252 91.2715 141.475 90.8907 141.614 90.5782C141.71 90.3627 141.755 90.2081 141.767 90.1041L141.769 90.0826C141.773 90.0347 141.771 90.016 141.692 89.879L141.532 89.605L141.469 89.4949C140.741 88.2007 140.764 86.9244 141.776 85.4627L141.838 85.374L141.865 85.3338C142.103 84.9626 142.01 84.6821 141.256 83.641L140.842 83.0742L140.708 82.8872C140.57 82.693 140.49 82.5719 140.392 82.4122L140.279 82.2235C139.952 81.6645 139.738 81.1284 139.657 80.5427C139.635 80.3832 139.623 80.2227 139.623 80.0616C139.623 78.8561 140.324 78.0403 141.379 77.4591C141.917 77.1628 142.538 76.9261 143.44 76.6458L143.775 76.5441C144.073 76.4553 144.695 76.2725 145.134 76.1419L145.529 76.0236L145.711 75.9667C147.6 75.3712 148.564 74.8298 148.733 74.401C148.739 74.3872 148.745 74.3493 148.743 74.2738C148.738 74.1411 148.705 73.9644 148.638 73.7475C148.487 73.2551 148.183 72.6337 147.727 71.8907L147.586 71.6641C146.946 70.6469 146.329 69.8071 144.8 67.8679L143.074 65.6932L142.738 65.266L142.447 64.8955C141.441 63.6049 140.693 62.5908 140.046 61.6174L139.935 61.4497C137.311 57.4541 137.22 52.7736 139.551 47.6235L139.622 47.4673L139.617 46.9558Z" fill="white"/>
<path d="M144.935 87.91C145.963 89.708 145.808 91.4314 143.962 94.0127C143.528 94.6191 143.417 95.163 143.518 95.9899L143.528 96.0658C143.561 96.3111 143.599 96.5227 143.681 96.9003L143.871 97.76L143.931 98.0433C144.056 98.644 144.122 99.0638 144.159 99.545L144.168 99.6743C144.234 100.67 144.123 101.612 143.789 102.55C143.065 104.583 141.342 106.418 138.396 108.25L138.164 108.392C136.731 109.264 135.204 109.914 133.548 110.39L133.291 110.463C131.451 110.976 130.008 111.189 126.934 111.493L125.83 111.601C122.54 111.932 121.155 112.257 120.046 113.048L120.003 113.08C118.677 114.054 117.955 115.883 117.925 119.248L117.923 119.569C117.895 122.561 116.524 124.876 113.937 126.253C111.587 127.503 108.283 127.962 103.992 127.713C95.8223 127.24 83.7483 124.165 67.6927 118.497L65.7671 117.817L66.5866 115.947C70.8828 106.139 69.0424 94.5491 60.8819 81.0443L58.5162 77.1222C56.1599 73.2033 55.2098 71.5611 54.044 69.4023L53.6401 68.6501L53.419 68.2326C51.3776 64.3564 49.9655 61.0319 49.0473 57.7946C46.0197 47.1199 48.402 36.8994 57.6458 22.7297C69.0307 5.27796 89.9152 1.58279 119.8 11.3597C135.495 16.6504 143.416 28.9745 143.416 47.8911V48.3256L143.227 48.7169C141.176 52.9601 141.176 56.4306 143.105 59.3679C143.751 60.3511 144.527 61.4014 145.638 62.8181L146.049 63.3403L147.664 65.3755C149.347 67.5047 150.024 68.4212 150.754 69.5772L150.949 69.8893L151.06 70.0721C152.41 72.3146 152.921 74.1229 152.262 75.795C151.817 76.9214 150.939 77.7608 149.725 78.4297C148.885 78.8921 147.935 79.2546 146.643 79.6519L146.353 79.7395C145.939 79.863 145.306 80.0491 144.961 80.1513L144.664 80.2404L144.502 80.2908C144.187 80.3898 143.927 80.4783 143.715 80.5593L143.801 80.6853C143.885 80.8049 143.985 80.945 144.104 81.1097L144.3 81.3783L144.425 81.5523C145.054 82.4314 145.385 83.0177 145.609 83.7952C145.974 85.0636 145.776 86.3427 144.964 87.5236L144.916 87.5929C144.898 87.6176 144.882 87.641 144.868 87.6632L144.827 87.7256L144.935 87.91ZM139.616 46.9571C139.369 30.1417 132.407 19.6137 118.605 14.9609C90.1929 5.66603 71.104 9.0435 60.8228 24.8034C52.1319 38.1256 50.0028 47.26 52.6969 56.759C53.5501 59.7673 54.8974 62.9204 56.8847 66.6709L57.2583 67.3699C58.5406 69.7528 59.5055 71.4138 62.3534 76.1405L64.1286 79.0815C72.379 92.7352 74.6606 104.935 70.8192 115.571C85.6342 120.713 96.7875 123.495 104.211 123.925L104.502 123.941C108.011 124.117 110.572 123.745 112.155 122.903C113.493 122.191 114.11 121.16 114.13 119.552L114.131 119.333C114.154 114.748 115.349 111.739 117.843 109.959C118.925 109.186 120.194 108.685 121.739 108.348L121.885 108.317C122.827 108.119 123.732 107.997 125.267 107.843L126.669 107.706C129.457 107.429 130.738 107.236 132.302 106.799L132.5 106.743C133.844 106.357 135.061 105.839 136.192 105.15L136.393 105.027C138.669 103.614 139.819 102.391 140.216 101.276C140.483 100.524 140.453 99.8871 140.126 98.3951L139.992 97.7896L139.957 97.629C139.864 97.1939 139.815 96.9216 139.768 96.5738L139.756 96.4795C139.544 94.7869 139.825 93.3153 140.82 91.8847L140.933 91.7248C141.251 91.2728 141.474 90.892 141.613 90.5795C141.709 90.364 141.754 90.2094 141.767 90.1054L141.769 90.0839C141.773 90.036 141.77 90.0173 141.692 89.8803L141.532 89.6063L141.469 89.4962C140.741 88.202 140.764 86.9257 141.775 85.464L141.837 85.3753L141.864 85.3351C142.102 84.964 142.01 84.6834 141.255 83.6423L140.842 83.0755L140.707 82.8885C140.57 82.6943 140.49 82.5732 140.392 82.4135L140.278 82.2248C139.951 81.6658 139.738 81.1297 139.656 80.544C139.634 80.3845 139.623 80.2241 139.623 80.0629C139.623 78.8574 140.324 78.0416 141.379 77.4604C141.916 77.1641 142.538 76.9275 143.44 76.6471L143.774 76.5454C144.072 76.4566 144.695 76.2738 145.134 76.1432L145.528 76.0249L145.711 75.968C147.6 75.3725 148.564 74.8311 148.733 74.4023C148.738 74.3885 148.744 74.3506 148.743 74.2751C148.737 74.1424 148.705 73.9657 148.638 73.7488C148.486 73.2564 148.183 72.635 147.727 71.8921L147.586 71.6654C146.946 70.6482 146.329 69.8084 144.799 67.8692L143.074 65.6945L142.737 65.2673L142.447 64.8968C141.44 63.6062 140.693 62.5921 140.045 61.6187L139.934 61.451C137.311 57.4554 137.219 52.7749 139.55 47.6248L139.621 47.4686L139.616 46.9571Z" fill="black"/>
<path d="M93.7456 69.6179V67.4063C93.7456 64.8721 94.2063 62.7642 95.1278 61.0825C96.0493 59.4007 97.662 57.6614 99.9657 55.8645L100.49 55.4469C102.934 53.4816 104.527 51.9391 105.27 50.8192C106.065 49.6213 106.462 48.193 106.462 46.5343C106.462 44.5991 105.817 43.1132 104.527 42.0765C103.237 41.0398 101.383 40.5215 98.9636 40.5215C96.775 40.5215 94.7477 40.8325 92.8817 41.4545C91.0156 42.0765 89.1957 42.8252 87.4218 43.7006L84.519 37.6187C89.1957 35.0155 94.2063 33.7139 99.551 33.7139C104.066 33.7139 107.649 34.8197 110.298 37.0313C112.947 39.2429 114.272 42.2953 114.272 46.1887C114.272 47.9165 114.019 49.4543 113.512 50.802C113.005 52.1497 112.239 53.434 111.214 54.655C110.243 55.8117 108.605 57.2993 106.3 59.1176L105.909 59.4238C103.767 61.1055 102.333 62.4993 101.607 63.6051C100.881 64.7109 100.519 66.1968 100.519 68.0628V69.6179H93.7456ZM92.3288 80.6413C92.3288 77.1627 94.022 75.4233 97.4086 75.4233C99.0673 75.4233 100.334 75.8783 101.21 76.7883C102.085 77.6983 102.523 78.9826 102.523 80.6413C102.523 82.277 102.079 83.5729 101.192 84.5289C100.306 85.485 99.0442 85.963 97.4086 85.963C95.7729 85.963 94.5173 85.4965 93.6419 84.5635C92.7665 83.6305 92.3288 82.3231 92.3288 80.6413Z" fill="#FF9900"/>
</g>
<defs>
<clipPath id="clip0_4044_29584">
<rect width="200" height="135.359" fill="white"/>
</clipPath>
</defs>
</svg>
