<svg width="200" height="136" viewBox="0 0 200 136" fill="none" xmlns="http://www.w3.org/2000/svg">
<path d="M10.8032 120.426H17.8287V124.204H10.8032V131.229H7.02558V124.204H0V120.426H7.02558V113.4H10.8032V120.426Z" fill="#FFC700"/>
<path d="M10.8032 66.0578H17.8287V69.8354H10.8032V76.861H7.02558V69.8354H0V66.0578H7.02558V59.0322H10.8032V66.0578Z" fill="#FFC700"/>
<path d="M10.8032 11.6887H17.8287V15.4662H10.8032V22.4918H7.02558V15.4662H0V11.6887H7.02558V4.66309H10.8032V11.6887Z" fill="#FFC700"/>
<path d="M71.5268 120.426H78.5524V124.204H71.5268V131.229H67.7492V124.204H60.7236V120.426H67.7492V113.4H71.5268V120.426Z" fill="#FFC700"/>
<path d="M71.5268 66.0578H78.5524V69.8354H71.5268V76.861H67.7492V69.8354H60.7236V66.0578H67.7492V59.0322H71.5268V66.0578Z" fill="#FFC700"/>
<path d="M71.5268 11.6887H78.5524V15.4662H71.5268V22.4918H67.7492V15.4662H60.7236V11.6887H67.7492V4.66309H71.5268V11.6887Z" fill="#FFC700"/>
<path d="M132.25 120.426H139.276V124.204H132.25V131.229H128.473V124.204H121.447V120.426H128.473V113.4H132.25V120.426Z" fill="#FFC700"/>
<path d="M132.25 66.0578H139.276V69.8354H132.25V76.861H128.473V69.8354H121.447V66.0578H128.473V59.0322H132.25V66.0578Z" fill="#FFC700"/>
<path d="M132.25 11.6887H139.276V15.4662H132.25V22.4918H128.473V15.4662H121.447V11.6887H128.473V4.66309H132.25V11.6887Z" fill="#FFC700"/>
<path d="M192.975 120.426H200V124.204H192.975V131.229H189.197V124.204H182.171V120.426H189.197V113.4H192.975V120.426Z" fill="#FFC700"/>
<path d="M192.975 66.0578H200V69.8354H192.975V76.861H189.197V69.8354H182.171V66.0578H189.197V59.0322H192.975V66.0578Z" fill="#FFC700"/>
<path d="M192.975 11.6887H200V15.4662H192.975V22.4918H189.197V15.4662H182.171V11.6887H189.197V4.66309H192.975V11.6887Z" fill="#FFC700"/>
<path d="M139.507 44.6782C139.26 27.9013 132.314 17.3976 118.544 12.7554C90.197 3.48192 71.152 6.85163 60.8944 22.5753C52.2235 35.8669 50.0992 44.9803 52.7872 54.4576C53.6384 57.459 54.9827 60.6048 56.9653 64.3467L57.3381 65.0441C58.6175 67.4216 59.5801 69.0787 62.4215 73.7946L64.1926 76.7288C72.4241 90.3511 74.7004 102.523 70.8678 113.135C85.6488 118.265 96.7765 121.04 104.183 121.469L104.473 121.485C107.975 121.661 110.53 121.29 112.108 120.45C113.444 119.739 114.059 118.71 114.079 117.106L114.08 116.888C114.103 112.313 115.296 109.311 117.783 107.535C118.863 106.765 120.129 106.264 121.671 105.928L121.816 105.897C122.756 105.7 123.659 105.578 125.191 105.424L126.589 105.287C129.371 105.011 130.649 104.819 132.21 104.383L132.407 104.327C133.748 103.941 134.962 103.425 136.091 102.738L136.291 102.615C138.561 101.205 139.709 99.9845 140.105 98.8726C140.372 98.1221 140.342 97.4867 140.016 95.998L139.882 95.394L139.847 95.2337C139.754 94.7996 139.705 94.528 139.658 94.181L139.646 94.0869C139.435 92.3981 139.715 90.93 140.708 89.5026L140.821 89.343C141.138 88.8921 141.361 88.5122 141.5 88.2004C141.595 87.9855 141.64 87.8312 141.652 87.7274L141.655 87.706C141.658 87.6582 141.656 87.6395 141.578 87.5028L141.418 87.2295L141.355 87.1196C140.629 85.8284 140.652 84.555 141.661 83.0967L141.723 83.0081L141.75 82.9681C141.987 82.5978 141.895 82.3179 141.142 81.2791L140.73 80.7136L140.596 80.5271C140.458 80.3333 140.379 80.2125 140.281 80.0532L140.168 79.865C139.841 79.3072 139.628 78.7724 139.547 78.188C139.525 78.0288 139.514 77.8687 139.514 77.708C139.514 76.5053 140.213 75.6913 141.265 75.1114C141.802 74.8158 142.422 74.5797 143.322 74.3L143.655 74.1985C143.953 74.1099 144.574 73.9275 145.012 73.7973L145.405 73.6792L145.587 73.6225C147.472 73.0283 148.434 72.4882 148.603 72.0604C148.608 72.0466 148.614 72.0088 148.612 71.9335C148.607 71.8011 148.575 71.6248 148.508 71.4083C148.357 70.9171 148.054 70.2971 147.599 69.5559L147.458 69.3297C146.82 68.3149 146.204 67.4771 144.678 65.5422L142.957 63.3725L142.621 62.9463L142.331 62.5767C141.327 61.289 140.581 60.2773 139.935 59.3061L139.824 59.1388C137.207 55.1524 137.115 50.4826 139.441 45.3443L139.512 45.1885L139.507 44.6782Z" fill="white"/>
<path d="M144.813 85.5375C145.839 87.3314 145.684 89.0508 143.843 91.6261C143.41 92.2312 143.299 92.7739 143.4 93.5988L143.409 93.6746C143.442 93.9193 143.481 94.1304 143.562 94.5072L143.752 95.3648L143.812 95.6475C143.937 96.2469 144.002 96.6657 144.04 97.1458L144.049 97.2748C144.114 98.2683 144.004 99.2081 143.67 100.144C142.948 102.173 141.229 104.003 138.289 105.831L138.058 105.973C136.628 106.843 135.105 107.491 133.453 107.966L133.196 108.039C131.36 108.55 129.921 108.763 126.853 109.066L125.752 109.174C122.47 109.504 121.088 109.828 119.982 110.618L119.938 110.649C118.616 111.621 117.896 113.446 117.865 116.804L117.864 117.124C117.835 120.109 116.467 122.419 113.886 123.792C111.542 125.04 108.245 125.497 103.964 125.249C95.8136 124.777 83.7673 121.709 67.7486 116.054L65.8274 115.376L66.6451 113.51C70.9314 103.725 69.0952 92.1613 60.9534 78.6875L58.5931 74.7745C56.2423 70.8645 55.2944 69.2261 54.1312 67.0723L53.7283 66.3218L53.5077 65.9053C51.4709 62.038 50.0621 58.7211 49.146 55.4913C46.1253 44.841 48.5022 34.644 57.7247 20.5069C69.0835 3.09517 89.9201 -0.591522 119.736 9.16291C135.395 14.4415 143.299 26.7373 143.299 45.6104V46.044L143.11 46.4343C141.064 50.6678 141.064 54.1303 142.988 57.0609C143.632 58.0419 144.406 59.0897 145.515 60.5031L145.925 61.0242L147.537 63.0547C149.215 65.179 149.891 66.0934 150.62 67.2467L150.814 67.5582L150.925 67.7405C152.271 69.9778 152.782 71.782 152.123 73.4503C151.68 74.5741 150.804 75.4116 149.592 76.079C148.755 76.5403 147.807 76.9019 146.518 77.2984L146.228 77.3857C145.815 77.509 145.184 77.6946 144.839 77.7966L144.543 77.8855L144.381 77.9358C144.067 78.0346 143.808 78.1229 143.596 78.2036L143.683 78.3294C143.766 78.4487 143.865 78.5885 143.984 78.7528L144.18 79.0208L144.305 79.1943C144.932 80.0714 145.262 80.6564 145.486 81.4321C145.85 82.6976 145.653 83.9738 144.843 85.152L144.795 85.2211C144.777 85.2458 144.761 85.2691 144.746 85.2912L144.706 85.3535L144.813 85.5375ZM139.507 44.6786C139.26 27.9018 132.314 17.398 118.544 12.7559C90.1971 3.48235 71.1521 6.85206 60.8945 22.5758C52.2235 35.8674 50.0993 44.9808 52.7872 54.458C53.6385 57.4594 54.9827 60.6052 56.9654 64.3472L57.3382 65.0445C58.6176 67.422 59.5802 69.0792 62.4216 73.795L64.1927 76.7292C72.4242 90.3515 74.7005 102.524 70.8679 113.135C85.6489 118.265 96.7766 121.041 104.183 121.47L104.473 121.486C107.975 121.661 110.53 121.29 112.108 120.45C113.444 119.739 114.06 118.711 114.079 117.107L114.08 116.888C114.104 112.314 115.296 109.312 117.784 107.536C118.864 106.765 120.129 106.265 121.671 105.929L121.816 105.898C122.756 105.7 123.659 105.578 125.191 105.424L126.59 105.288C129.371 105.012 130.649 104.819 132.21 104.383L132.407 104.327C133.748 103.942 134.962 103.425 136.091 102.738L136.291 102.615C138.561 101.205 139.709 99.9849 140.105 98.873C140.372 98.1225 140.342 97.4871 140.016 95.9984L139.882 95.3944L139.847 95.2341C139.754 94.8 139.705 94.5284 139.659 94.1814L139.646 94.0873C139.435 92.3985 139.715 90.9304 140.708 89.503L140.821 89.3435C141.138 88.8926 141.361 88.5126 141.5 88.2009C141.595 87.9859 141.64 87.8316 141.653 87.7279L141.655 87.7064C141.658 87.6586 141.656 87.64 141.578 87.5032L141.418 87.2299L141.355 87.12C140.629 85.8288 140.652 84.5554 141.661 83.0971L141.723 83.0086L141.75 82.9685C141.987 82.5982 141.895 82.3183 141.142 81.2796L140.73 80.7141L140.596 80.5275C140.458 80.3337 140.379 80.2129 140.281 80.0536L140.168 79.8654C139.841 79.3076 139.628 78.7728 139.547 78.1884C139.525 78.0292 139.514 77.8692 139.514 77.7084C139.514 76.5057 140.213 75.6918 141.265 75.1118C141.802 74.8163 142.422 74.5801 143.322 74.3005L143.655 74.1989C143.953 74.1103 144.574 73.928 145.012 73.7977L145.405 73.6797L145.588 73.6229C147.472 73.0287 148.434 72.4886 148.603 72.0608C148.608 72.0471 148.614 72.0092 148.612 71.9339C148.607 71.8015 148.575 71.6252 148.508 71.4087C148.357 70.9175 148.054 70.2976 147.599 69.5563L147.458 69.3302C146.82 68.3153 146.204 67.4775 144.678 65.5427L142.957 63.373L142.621 62.9467L142.331 62.5771C141.327 61.2894 140.581 60.2777 139.935 59.3065L139.824 59.1392C137.207 55.1528 137.116 50.483 139.441 45.3447L139.512 45.1889L139.507 44.6786Z" fill="black"/>
<path d="M96.8625 60.7719H83.1406V54.635H96.8625V40.5684H103.068V54.635H116.825V60.7719H103.068V74.7695H96.8625V60.7719Z" fill="#FF9900"/>
</svg>
