<svg width="25" height="24" viewBox="0 0 25 24" fill="none" xmlns="http://www.w3.org/2000/svg">
<path d="M12.8809 0C6.25342 0 0.880859 5.37256 0.880859 12C0.880859 18.6274 6.25342 24 12.8809 24C19.5083 24 24.8809 18.6274 24.8809 12C24.8809 5.37256 19.5083 0 12.8809 0ZM12.8809 2.32258C18.2292 2.32258 22.5583 6.65085 22.5583 12C22.5583 17.3483 18.23 21.6774 12.8809 21.6774C7.53254 21.6774 3.20344 17.3491 3.20344 12C3.20344 6.65168 7.53171 2.32258 12.8809 2.32258ZM19.6649 8.62582L18.5745 7.52656C18.3486 7.2989 17.981 7.2974 17.7533 7.52327L10.9137 14.3079L8.02057 11.3913C7.79475 11.1636 7.4271 11.1621 7.19944 11.388L6.10013 12.4784C5.87247 12.7042 5.87097 13.0719 6.09684 13.2996L10.4895 17.7278C10.7153 17.9554 11.0829 17.9569 11.3106 17.7311L19.6617 9.447C19.8893 9.22113 19.8907 8.85348 19.6649 8.62582Z" fill="#333333"/>
</svg>
