<svg width="25" height="24" viewBox="0 0 25 24" fill="none" xmlns="http://www.w3.org/2000/svg">
<path d="M12.3804 0C5.75134 0 0.380371 5.37097 0.380371 12C0.380371 18.629 5.75134 24 12.3804 24C19.0094 24 24.3804 18.629 24.3804 12C24.3804 5.37097 19.0094 0 12.3804 0ZM12.3804 21.6774C7.0336 21.6774 2.70295 17.3468 2.70295 12C2.70295 6.65323 7.0336 2.32258 12.3804 2.32258C17.7271 2.32258 22.0578 6.65323 22.0578 12C22.0578 17.3468 17.7271 21.6774 12.3804 21.6774ZM17.3062 8.99032L14.2965 12L17.3062 15.0097C17.5336 15.2371 17.5336 15.6048 17.3062 15.8323L16.2126 16.9258C15.9852 17.1532 15.6175 17.1532 15.39 16.9258L12.3804 13.9161L9.37069 16.9258C9.14327 17.1532 8.77553 17.1532 8.54811 16.9258L7.45456 15.8323C7.22714 15.6048 7.22714 15.2371 7.45456 15.0097L10.4642 12L7.45456 8.99032C7.22714 8.7629 7.22714 8.39516 7.45456 8.16774L8.54811 7.07419C8.77553 6.84677 9.14327 6.84677 9.37069 7.07419L12.3804 10.0839L15.39 7.07419C15.6175 6.84677 15.9852 6.84677 16.2126 7.07419L17.3062 8.16774C17.5336 8.39516 17.5336 8.7629 17.3062 8.99032Z" fill="#333333"/>
</svg>
