<svg width="32" height="31" viewBox="0 0 32 31" fill="none" xmlns="http://www.w3.org/2000/svg">
<path d="M10.3974 24.8375C10.3974 24.9625 10.2533 25.0625 10.0715 25.0625C9.8647 25.0813 9.72055 24.9813 9.72055 24.8375C9.72055 24.7125 9.8647 24.6125 10.0465 24.6125C10.2345 24.5938 10.3974 24.6938 10.3974 24.8375ZM8.44829 24.5563C8.40442 24.6813 8.52977 24.825 8.71779 24.8625C8.88074 24.925 9.06876 24.8625 9.10636 24.7375C9.14396 24.6125 9.02488 24.4688 8.83687 24.4125C8.67392 24.3688 8.49217 24.4313 8.44829 24.5563ZM11.2184 24.45C11.0367 24.4938 10.9113 24.6125 10.9301 24.7563C10.9489 24.8813 11.1119 24.9625 11.2999 24.9188C11.4817 24.875 11.607 24.7563 11.5882 24.6313C11.5694 24.5125 11.4002 24.4313 11.2184 24.45ZM15.3423 0.5C6.64959 0.5 0 7.08125 0 15.75C0 22.6813 4.37456 28.6125 10.623 30.7C11.4253 30.8438 11.7073 30.35 11.7073 29.9438C11.7073 29.5563 11.6885 27.4188 11.6885 26.1063C11.6885 26.1063 7.30138 27.0438 6.38009 24.2438C6.38009 24.2438 5.66562 22.425 4.63779 21.9563C4.63779 21.9563 3.20258 20.975 4.73806 20.9938C4.73806 20.9938 6.29862 21.1188 7.15723 22.6063C8.52977 25.0188 10.8299 24.325 11.7261 23.9125C11.8702 22.9125 12.2776 22.2188 12.7288 21.8063C9.22544 21.4188 5.69069 20.9125 5.69069 14.9C5.69069 13.1813 6.167 12.3188 7.16977 11.2188C7.00682 10.8125 6.4741 9.1375 7.33272 6.975C8.64258 6.56875 11.6571 8.6625 11.6571 8.6625C12.9106 8.3125 14.2581 8.13125 15.593 8.13125C16.9279 8.13125 18.2754 8.3125 19.5288 8.6625C19.5288 8.6625 22.5434 6.5625 23.8533 6.975C24.7119 9.14375 24.1792 10.8125 24.0162 11.2188C25.019 12.325 25.6332 13.1875 25.6332 14.9C25.6332 20.9313 21.9418 21.4125 18.4383 21.8063C19.0149 22.3 19.5038 23.2375 19.5038 24.7063C19.5038 26.8125 19.485 29.4188 19.485 29.9313C19.485 30.3375 19.7733 30.8313 20.5692 30.6875C26.8365 28.6125 31.0857 22.6813 31.0857 15.75C31.0857 7.08125 24.035 0.5 15.3423 0.5ZM6.0918 22.0563C6.01032 22.1188 6.02912 22.2625 6.13567 22.3813C6.23594 22.4813 6.38009 22.525 6.46157 22.4438C6.54304 22.3813 6.52424 22.2375 6.4177 22.1188C6.31742 22.0188 6.17327 21.975 6.0918 22.0563ZM5.41493 21.55C5.37106 21.6313 5.43373 21.7313 5.55908 21.7938C5.65935 21.8563 5.7847 21.8375 5.82857 21.75C5.87244 21.6688 5.80977 21.5688 5.68442 21.5063C5.55908 21.4688 5.4588 21.4875 5.41493 21.55ZM7.44553 23.775C7.34525 23.8563 7.38286 24.0438 7.527 24.1625C7.67115 24.3063 7.8529 24.325 7.93438 24.225C8.01585 24.1438 7.97825 23.9563 7.8529 23.8375C7.71502 23.6938 7.527 23.675 7.44553 23.775ZM6.73106 22.8563C6.63078 22.9188 6.63078 23.0813 6.73106 23.225C6.83134 23.3688 7.00055 23.4313 7.08203 23.3688C7.1823 23.2875 7.1823 23.125 7.08203 22.9813C6.99429 22.8375 6.83134 22.775 6.73106 22.8563Z" fill="#FF9900"/>
</svg>
