<svg width="95" height="24" viewBox="0 0 95 24" fill="none" xmlns="http://www.w3.org/2000/svg">
<path d="M27.0694 12.8523L19.3318 4.97705L17.2968 20.0843L27.0694 12.8523Z" fill="#656569"/>
<path d="M5.27228 11.081L19.3318 4.97705L17.2968 20.0843L5.27228 11.081Z" fill="url(#paint0_linear_1_32)"/>
<path d="M19.3318 4.97712L7.90852 0L5.27228 11.0811L19.3318 4.97712Z" fill="url(#paint1_linear_1_32)"/>
<path d="M5.27228 11.0811L5.54151 23.1661L17.2968 20.0844L5.27228 11.0811Z" fill="url(#paint2_linear_1_32)"/>
<path d="M19.3318 4.97712L21.4915 0.608467L7.90851 0L19.3318 4.97712Z" fill="#757578"/>
<path d="M21.4915 0.608407L27.0694 12.8524L19.3318 4.97706L21.4915 0.608407Z" fill="#6C6D70"/>
<path d="M27.0694 12.8527L19.2603 23.9999L17.2968 20.0846L27.0694 12.8527Z" fill="#6C6D70"/>
<path d="M19.2603 24.0001L5.54156 23.1665L17.2968 20.0848L19.2603 24.0001Z" fill="#55565A"/>
<path d="M7.90857 0L0 9.91511L5.27233 11.0811L7.90857 0Z" fill="#55565A"/>
<path d="M0 9.91488L5.54156 23.1659L5.27233 11.0809L0 9.91488Z" fill="#656569"/>
<path opacity="0.7" d="M17.893 7.05777L16.4679 17.8881L8.06891 11.3676L17.893 7.05777Z" fill="#151A22"/>
<path opacity="0.7" d="M16.7557 4.89828L8.90459 1.50394L7.25537 8.6407L16.7557 4.89828Z" fill="#151A22"/>
<path opacity="0.7" d="M14.7657 19.5291L6.23309 13.4113L6.43949 21.7012L14.7657 19.5291Z" fill="#23262E"/>
<path opacity="0.7" d="M25.6357 12.8253L19.8212 6.90092L18.2865 18.2934L25.6357 12.8253Z" fill="#23262E"/>
<path opacity="0.7" d="M16.7662 20.8611L18.0327 23.2939L9.57007 22.7498L16.7662 20.8611Z" fill="#43444B"/>
<path opacity="0.7" d="M24.4994 15.513L18.2002 20.2248L19.4519 22.6809L24.4994 15.513Z" fill="#34363D"/>
<path opacity="0.7" d="M21.5199 2.31928L24.8504 9.48945L20.2964 4.84126L21.5199 2.31928Z" fill="#34363D"/>
<path opacity="0.7" d="M19.9955 1.11219L18.5951 3.68339L11.9985 0.786248L19.9955 1.11219Z" fill="#36383F"/>
<path opacity="0.7" d="M6.78731 2.27855L4.93093 10.177L1.18597 9.38053L6.78731 2.27855Z" fill="#3B3C43"/>
<path opacity="0.7" d="M4.70508 11.5699L4.86848 20.0579L0.942078 10.7699L4.70508 11.5699Z" fill="#45464D"/>
<path fill-rule="evenodd" clip-rule="evenodd" d="M35.9751 11.1537H35.519V7.09484H34.2969V16.6198H35.519V12.1588H35.9386L39.7875 16.8574L40.7178 16.0713L37.0148 11.5922L40.1706 7.58866L39.2403 6.85742L35.9751 11.1537ZM46.6106 7.09476H45.3885V16.6198H51.5891V15.5227H46.6106V7.09476ZM56.0938 7.09476H62.0222V8.19167H57.3159V11.0439H61.2013V12.1407H57.3159V15.5228H62.0222V16.6199H56.0938V7.09476ZM70.1211 7.09476H66.8924V16.6196H68.1145V12.5426H69.8839L72.3086 16.8573L73.3666 16.2173L71.0331 12.3599C72.1809 12.0125 72.9653 10.8607 72.9653 9.69078C72.9653 7.84435 71.7067 7.09476 70.1211 7.09476ZM71.6884 9.69078C71.6884 10.7696 70.904 11.4459 69.7198 11.4459H68.1145V8.19167H70.0832C71.1777 8.19167 71.6884 8.8316 71.6884 9.69078ZM83.9661 11.8659C83.9661 12.6338 83.9114 16.7838 80.5914 16.7838C79.0592 16.7838 77.2168 15.687 77.2168 11.8659C77.2168 8.06324 79.0227 6.92985 80.5914 6.92985C82.1055 6.92985 83.9661 8.02677 83.9661 11.8659ZM78.4937 11.8659C78.4937 13.2554 78.7491 15.632 80.5914 15.632C82.4338 15.632 82.6892 13.2554 82.6892 11.8659C82.6892 10.4583 82.4338 8.08161 80.5914 8.08161C78.7491 8.08161 78.4937 10.4583 78.4937 11.8659ZM91.6267 15.632C90.3498 15.632 89.7843 14.773 89.5472 13.6028L88.4527 13.95C88.7446 15.6501 89.8573 16.7837 91.6267 16.7837C93.3779 16.7837 94.6365 15.7598 94.6365 13.95C94.6365 12.9629 94.1805 12.195 93.3231 11.7196L91.2983 10.8238C90.5687 10.4949 90.0215 10.2389 90.0215 9.34296C90.0215 8.48392 90.7876 8.08161 91.572 8.08161C92.6117 8.08161 93.1042 8.73978 93.3231 9.67204L94.4906 9.32472C94.1075 7.84399 93.1772 6.92985 91.5902 6.92985C90.0944 6.92985 88.7993 7.82575 88.7993 9.43442C88.7993 11.0684 89.8918 11.5163 91.1357 12.0263C91.2557 12.0755 91.377 12.1253 91.499 12.1768C91.5751 12.2082 91.6515 12.239 91.7278 12.2697C92.5838 12.6144 93.4143 12.9489 93.4143 14.0232C93.4143 15.0837 92.63 15.632 91.6267 15.632Z" fill="#333333"/>
<defs>
<linearGradient id="paint0_linear_1_32" x1="5.27229" y1="12.5307" x2="19.3318" y2="12.5307" gradientUnits="userSpaceOnUse">
<stop stop-color="#A3A2A5"/>
<stop offset="0.2705" stop-color="#9F9EA0"/>
<stop offset="0.5607" stop-color="#929194"/>
<stop offset="0.8592" stop-color="#7C7C80"/>
<stop offset="1" stop-color="#707073"/>
</linearGradient>
<linearGradient id="paint1_linear_1_32" x1="5.17936" y1="10.8786" x2="15.2052" y2="0.985773" gradientUnits="userSpaceOnUse">
<stop stop-color="#969598"/>
<stop offset="0.3396" stop-color="#908F92"/>
<stop offset="0.7917" stop-color="#7F7F82"/>
<stop offset="1" stop-color="#757578"/>
</linearGradient>
<linearGradient id="paint2_linear_1_32" x1="5.94931" y1="10.7385" x2="11.3168" y2="21.3438" gradientUnits="userSpaceOnUse">
<stop stop-color="#9E9EA0"/>
<stop offset="0.2759" stop-color="#9B9B9D"/>
<stop offset="0.494" stop-color="#919194"/>
<stop offset="0.6923" stop-color="#808083"/>
<stop offset="0.8777" stop-color="#69696D"/>
<stop offset="1" stop-color="#55565A"/>
</linearGradient>
</defs>
</svg>
