<svg width="138" height="138" viewBox="0 0 138 138" fill="none" xmlns="http://www.w3.org/2000/svg">
<g clip-path="url(#clip0_6_74)">
<rect width="137.153" height="137.153" transform="translate(0.814453 0.220703)" fill="white"/>
<path d="M102.404 60.4685C103.161 61.7918 103.047 63.0602 101.688 64.96C101.369 65.4064 101.286 65.8067 101.361 66.4152L101.368 66.4711C101.392 66.6517 101.421 66.8074 101.481 67.0853L101.621 67.718L101.665 67.9266C101.757 68.3687 101.806 68.6777 101.833 69.0318L101.84 69.127C101.888 69.86 101.806 70.5532 101.56 71.2434C101.027 72.7401 99.7591 74.0907 97.59 75.4386L97.4192 75.5436C96.3642 76.1853 95.2403 76.6632 94.0215 77.0137L93.8319 77.0674C92.4774 77.4448 91.4152 77.6021 89.1517 77.8254L88.3391 77.9047C85.9174 78.1483 84.8973 78.3878 84.0815 78.9699L84.0492 78.9933C83.0736 79.7103 82.5421 81.0567 82.5197 83.5333L82.5186 83.7695C82.4973 85.9714 81.488 87.6756 79.5836 88.6889C77.8538 89.6093 75.4213 89.9468 72.2622 89.7638C66.248 89.4153 57.3593 87.1523 45.5394 82.9806L44.1218 82.4803L44.7252 81.1034C47.8879 73.8854 46.5331 65.3548 40.5254 55.4153L38.7838 52.5286C37.0492 49.6443 36.3497 48.4356 35.4915 46.8468L35.1942 46.2931L35.0314 45.9859C33.5285 43.133 32.4889 40.6862 31.813 38.3035C29.5841 30.4469 31.3379 22.9246 38.143 12.4957C46.5245 -0.348812 61.8993 -3.06846 83.9001 4.12733C95.4545 8.02132 101.286 17.0919 101.286 31.0145V31.3343L101.147 31.6223C99.6371 34.7453 99.6371 37.2996 101.057 39.4614C101.532 40.1851 102.104 40.9581 102.922 42.0008L103.224 42.3851L104.413 43.8831C105.652 45.4501 106.151 46.1247 106.688 46.9755L106.832 47.2052L106.914 47.3397C107.907 48.9902 108.283 50.3211 107.798 51.5518C107.471 52.3809 106.824 52.9987 105.93 53.491C105.312 53.8313 104.613 54.0981 103.661 54.3905L103.448 54.4549C103.143 54.5459 102.677 54.6828 102.423 54.7581L102.205 54.8236L102.085 54.8607C101.853 54.9336 101.662 54.9987 101.506 55.0583L101.57 55.1511C101.631 55.2391 101.704 55.3422 101.792 55.4634L101.936 55.6611L102.029 55.7891C102.492 56.4362 102.735 56.8677 102.9 57.4399C103.169 58.3735 103.023 59.3149 102.426 60.1841L102.39 60.2351C102.377 60.2533 102.365 60.2705 102.354 60.2868L102.325 60.3328L102.404 60.4685ZM98.4884 30.3271C98.3066 17.9509 93.1811 10.2023 83.0201 6.77784C62.1038 -0.0631903 48.0508 2.42263 40.482 14.0219C34.0838 23.8271 32.5164 30.55 34.4998 37.5413C35.1279 39.7554 36.1198 42.076 37.5828 44.8365L37.8578 45.3509C38.8018 47.1048 39.5122 48.3272 41.6088 51.8061L42.9156 53.9706C48.9895 64.0198 50.6691 72.999 47.8411 80.8273C58.7477 84.6114 66.9586 86.659 72.4237 86.9756L72.6376 86.9872C75.2215 87.1169 77.1069 86.8431 78.2717 86.2234C79.2572 85.699 79.7114 84.9401 79.7258 83.7568L79.7264 83.5957C79.7438 80.2213 80.6236 78.0065 82.4592 76.6966C83.2561 76.1279 84.1902 75.7587 85.3279 75.511L85.4348 75.4881C86.1282 75.3422 86.7948 75.2525 87.9251 75.139L88.957 75.0382C91.0093 74.8344 91.9526 74.6924 93.1041 74.3709L93.2495 74.3297C94.2388 74.0452 95.1348 73.6642 95.9679 73.1575L96.1156 73.0667C97.7908 72.0266 98.6374 71.1263 98.9297 70.306C99.127 69.7524 99.1049 69.2836 98.864 68.1855L98.765 67.7399L98.7394 67.6216C98.6708 67.3014 98.6349 67.101 98.6003 66.845L98.5913 66.7757C98.4355 65.5298 98.6422 64.4468 99.3749 63.3938L99.4582 63.2761C99.6923 62.9435 99.8563 62.6632 99.9588 62.4332C100.029 62.2746 100.063 62.1608 100.072 62.0843L100.073 62.0685C100.076 62.0332 100.074 62.0194 100.017 61.9186L99.8988 61.7169L99.8524 61.6359C99.3163 60.6834 99.3333 59.744 100.078 58.6682L100.124 58.6029L100.143 58.5733C100.319 58.3002 100.251 58.0937 99.695 57.3274L99.3907 56.9102L99.2919 56.7726C99.1903 56.6297 99.1317 56.5406 99.0596 56.423L98.976 56.2842C98.7352 55.8727 98.5781 55.4782 98.5181 55.0471C98.5018 54.9297 98.4934 54.8116 98.4934 54.693C98.4934 53.8058 99.0095 53.2053 99.786 52.7775C100.182 52.5595 100.639 52.3853 101.303 52.179L101.549 52.1041C101.769 52.0387 102.227 51.9042 102.551 51.8081L102.841 51.721L102.975 51.6791C104.366 51.2408 105.075 50.8424 105.2 50.5268C105.204 50.5166 105.208 50.4887 105.207 50.4332C105.203 50.3355 105.179 50.2054 105.13 50.0458C105.018 49.6834 104.795 49.226 104.459 48.6792L104.356 48.5124C103.884 47.7637 103.43 47.1457 102.304 45.7184L101.034 44.1178L100.786 43.8034L100.572 43.5307C99.8314 42.5808 99.2809 41.8344 98.8042 41.118L98.7226 40.9946C96.7912 38.0538 96.7239 34.609 98.4398 30.8185L98.4924 30.7035L98.4884 30.3271Z" fill="#FF6800"/>
<path fill-rule="evenodd" clip-rule="evenodd" d="M41.7205 54.6929C32.3859 39.2491 27.3497 31.5916 39.3124 13.2588C47.2876 1.03685 62.0015 -1.56589 83.4541 5.45055C94.4112 9.14324 99.8897 17.6645 99.8897 31.0144C98.1793 34.5524 98.1793 37.6236 99.8897 40.2279C102.455 44.1345 107.381 48.804 106.499 51.0392C105.617 53.2745 99.8897 53.2745 99.8897 54.6929C99.8897 56.1113 102.614 57.5092 101.252 59.4263C99.8897 61.3434 102.875 60.8989 100.552 64.1476C98.2285 67.3964 103.782 70.0392 96.6935 74.3505C89.6053 78.6617 81.1225 73.3382 81.1225 83.6982C81.1225 90.6049 69.4164 89.9267 46.0041 81.6638C49.3714 73.9791 47.9435 64.9888 41.7205 54.6929Z" fill="#FFFCF0"/>
<path fill-rule="evenodd" clip-rule="evenodd" d="M96.3486 29.2269C94.7187 18.5945 91.4672 12.5084 86.5943 10.9685C79.285 8.65864 58.3497 -0.0462738 46.9831 9.61768C39.4053 16.0603 35.3552 24.3723 34.8329 34.5537C35.7857 38.4498 38.149 43.0351 41.9231 48.3096C47.5841 56.2213 49.2274 54.5369 49.2274 51.274C49.2274 48.0111 59.6202 56.6127 62.6262 44.8781C64.6303 37.0549 68.4909 34.2367 74.2082 36.4232C84.0862 37.4514 90.2503 36.8282 92.7007 34.5537C95.151 32.2793 96.367 30.5037 96.3486 29.2269Z" fill="url(#paint0_linear_6_74)"/>
<path d="M65.4905 43.3776C72.2562 43.3776 77.7408 37.8929 77.7408 31.1272C77.7408 24.3616 72.2562 18.8769 65.4905 18.8769C58.7248 18.8769 53.2401 24.3616 53.2401 31.1272C53.2401 37.8929 58.7248 43.3776 65.4905 43.3776ZM65.4905 42.2351C59.3558 42.2351 54.3827 37.2619 54.3827 31.1272C54.3827 24.9926 59.3558 20.0194 65.4905 20.0194C71.6252 20.0194 76.5983 24.9926 76.5983 31.1272C76.5983 37.2619 71.6252 42.2351 65.4905 42.2351Z" fill="white"/>
<path d="M65.4904 42.2351C71.6251 42.2351 76.5983 37.262 76.5983 31.1273C76.5983 24.9926 71.6251 20.0195 65.4904 20.0195C59.3558 20.0195 54.3826 24.9926 54.3826 31.1273C54.3826 37.262 59.3558 42.2351 65.4904 42.2351Z" fill="#FF6800"/>
<path d="M69.3623 31.2689L65.4917 33.6907L61.6186 31.2689L65.4917 24.4627L69.3623 31.2689ZM65.4905 34.4739L61.6186 32.0795L65.4905 37.7921L69.3623 32.0795L65.4905 34.4739Z" fill="white"/>
<path d="M40.434 33.1184C42.0365 29.6004 43.4827 29.2088 45.1984 31.742L45.2505 31.8197C47.3942 35.0483 49.8723 34.9483 52.3534 31.5704L52.4652 31.4182L51.9721 30.3712L51.6564 30.801C49.557 33.6593 47.7884 33.765 46.0293 31.1705L45.976 31.0911C43.7943 27.8054 41.5297 28.3583 39.6219 32.5465L39.5433 32.719L40.2138 33.602L40.434 33.1184ZM40.1635 32.4861L40.1995 32.8096L40.2392 32.7232L40.2788 32.638L40.1635 32.4861ZM45.392 31.3599L45.4472 31.4422C47.4809 34.505 49.7985 34.4027 52.168 31.1767L51.6251 31.1241L51.7294 31.3456C49.5667 34.2058 47.6733 34.2626 45.835 31.5516L45.7793 31.4686C43.7282 28.3796 41.6605 28.8948 39.8564 32.8553L40.398 32.795L40.2788 32.638C41.9553 29.0541 43.5729 28.6759 45.392 31.3599ZM51.8105 31.5178L51.8418 31.1947L51.7855 31.2708L51.7294 31.3456L51.8105 31.5178Z" fill="white"/>
<path d="M45.1311 20.9316C46.7336 17.4136 48.1797 17.022 49.8955 19.5552L49.9476 19.6329C52.0913 22.8614 54.5694 22.7614 57.0504 19.3836L57.1622 19.2314L56.6692 18.1843L56.3535 18.6142C54.254 21.4725 52.4854 21.5782 50.7263 18.9837L50.673 18.9042C48.4914 15.6186 46.2267 16.1715 44.319 20.3597L44.2404 20.5322L44.9108 21.4151L45.1311 20.9316ZM44.8605 20.2993L44.8966 20.6228L44.9362 20.5364L44.9758 20.4511L44.8605 20.2993ZM50.089 19.1731L50.1442 19.2553C52.1779 22.3182 54.4955 22.2159 56.865 18.9899L56.3221 18.9372L56.4264 19.1587C54.2637 22.0189 52.3703 22.0757 50.532 19.3648L50.4763 19.2818C48.4253 16.1927 46.3575 16.708 44.5535 20.6685L45.095 20.6081L44.9758 20.4511C46.6524 16.8672 48.2699 16.4891 50.089 19.1731ZM56.5075 19.3309L56.5389 19.0079L56.4826 19.0839L56.4264 19.1587L56.5075 19.3309Z" fill="white"/>
<path d="M53.7971 12.6558L54.0173 12.1722L54.1448 11.8983L54.2752 11.6305C55.7715 8.63063 57.1491 8.40074 58.7653 10.7717L58.8338 10.8735C60.951 14.0622 63.3945 14.004 65.8448 10.7478L66.0485 10.472L65.5554 9.42498L65.2397 9.85479C63.1498 12.7001 61.3877 12.8178 59.6365 10.2595L59.5592 10.1449C57.4024 6.89658 55.1644 7.40007 53.2704 11.4589L53.1266 11.7728L53.7971 12.6558ZM53.7468 11.5399L53.7828 11.8634L53.8621 11.6918L53.7468 11.5399ZM58.9597 10.3908L59.0305 10.496C61.0642 13.5588 63.3818 13.4565 65.7513 10.2305L65.2084 10.1779L65.3127 10.3994L65.1287 10.6367C63.052 13.2483 61.2215 13.2394 59.4434 10.6422L59.3626 10.5224C57.3115 7.43335 55.2437 7.94862 53.4397 11.9091L53.9813 11.8488L53.8621 11.6918C55.5338 8.11807 57.1469 7.73188 58.9597 10.3908ZM65.3938 10.5716L65.4251 10.2485L65.3127 10.3994L65.3938 10.5716Z" fill="white"/>
<path d="M70.0126 16.7423C71.6151 13.2243 73.0612 12.8327 74.777 15.3659L74.8291 15.4436C76.9728 18.6722 79.4509 18.5722 81.9319 15.1943L82.0437 15.0421L81.5507 13.9951L81.235 14.4249C79.1355 17.2832 77.3669 17.3889 75.6078 14.7944L75.5545 14.715C73.3729 11.4293 71.1082 11.9822 69.2005 16.1704L69.1219 16.3429L69.7923 17.2259L70.0126 16.7423ZM69.742 16.11L69.7781 16.4335L69.8177 16.3471L69.8573 16.2619L69.742 16.11ZM74.9705 14.9838L75.0257 15.0661C77.0594 18.1289 79.377 18.0266 81.7465 14.8006L81.2036 14.748L81.3079 14.9695C79.1452 17.8297 77.2518 17.8865 75.4135 15.1755L75.3578 15.0925C73.3068 12.0035 71.239 12.5187 69.435 16.4792L69.9765 16.4189L69.8573 16.2619C71.5339 12.678 73.1514 12.2998 74.9705 14.9838ZM81.389 15.1417L81.4204 14.8186L81.3641 14.8947L81.3079 14.9695L81.389 15.1417Z" fill="white"/>
<path d="M43.6749 45.0574C45.2774 41.5394 46.7235 41.1478 48.4392 43.681L48.4913 43.7587C50.635 46.9872 53.1132 46.8872 55.5942 43.5094L55.706 43.3572L55.2129 42.3101L54.8972 42.74C52.7978 45.5983 51.0292 45.704 49.2701 43.1095L49.2168 43.03C47.0352 39.7444 44.7705 40.2973 42.8627 44.4855L42.7841 44.658L43.4546 45.5409L43.6749 45.0574ZM43.4043 44.4251L43.4404 44.7486L43.48 44.6622L43.5196 44.5769L43.4043 44.4251ZM48.6328 43.2989L48.688 43.3811C50.7217 46.444 53.0393 46.3417 55.4088 43.1157L54.8659 43.063L54.9702 43.2845C52.8075 46.1447 50.9141 46.2015 49.0758 43.4906L49.0201 43.4076C46.969 40.3185 44.9013 40.8338 43.0972 44.7943L43.6388 44.7339L43.5196 44.5769C45.1962 40.993 46.8137 40.6149 48.6328 43.2989ZM55.0513 43.4567L55.0826 43.1336L55.0264 43.2097L54.9702 43.2845L55.0513 43.4567Z" fill="white"/>
<path d="M78.4203 26.3131C80.0228 22.7951 81.4689 22.4035 83.1847 24.9367L83.2367 25.0144C85.3805 28.243 87.8586 28.143 90.3396 24.7651L90.4514 24.6129L89.9584 23.5659L89.6427 23.9957C87.5432 26.854 85.7746 26.9597 84.0155 24.3652L83.9622 24.2858C81.7806 21.0001 79.5159 21.553 77.6082 25.7412L77.5296 25.9137L78.2 26.7967L78.4203 26.3131ZM78.1497 25.6808L78.1858 26.0043L78.2254 25.9179L78.265 25.8327L78.1497 25.6808ZM83.3782 24.5546L83.4334 24.6369C85.4671 27.6997 87.7847 27.5974 90.1542 24.3714L89.6113 24.3188L89.7156 24.5403C87.5529 27.4005 85.6595 27.4573 83.8212 24.7463L83.7655 24.6633C81.7144 21.5743 79.6467 22.0895 77.8427 26.05L78.3842 25.9897L78.265 25.8327C79.9416 22.2488 81.5591 21.8706 83.3782 24.5546ZM89.7967 24.7125L89.828 24.3894L89.7718 24.4655L89.7156 24.5403L89.7967 24.7125Z" fill="white"/>
<path d="M25.985 109.567V114.735H24.042V102.01H26.2435C27.322 102.01 28.1365 102.084 28.6869 102.232C29.2428 102.381 29.732 102.661 30.1546 103.073C30.894 103.787 31.2637 104.688 31.2637 105.776C31.2637 106.941 30.8689 107.864 30.0795 108.545C29.2901 109.227 28.2255 109.567 26.8856 109.567H25.985ZM25.9032 107.781H26.6335C28.4298 107.781 29.328 107.104 29.328 105.75C29.328 104.44 28.4018 103.785 26.5496 103.785H25.9032V107.781ZM37.5171 109.312L41.4633 114.735H39.1105L35.4697 109.526H35.123V114.735H33.1994V102.01H35.4532C37.1374 102.01 38.3537 102.326 39.1022 102.958C39.9278 103.661 40.3406 104.589 40.3406 105.743C40.3406 106.644 40.0819 107.419 39.5645 108.067C39.0472 108.716 38.3647 109.131 37.5171 109.312ZM35.1351 107.855H35.7472C37.5726 107.855 38.4853 107.154 38.4853 105.754C38.4853 104.441 37.5975 103.785 35.8217 103.785H35.1351V107.855ZM42.5056 108.245C42.5056 106.457 43.1634 104.922 44.479 103.639C45.7891 102.356 47.3634 101.714 49.202 101.714C51.0185 101.714 52.5763 102.361 53.8754 103.655C55.1799 104.949 55.8322 106.504 55.8322 108.319C55.8322 110.145 55.1772 111.694 53.8671 112.966C52.5515 114.244 50.9634 114.883 49.1029 114.883C47.457 114.883 45.979 114.315 44.6689 113.18C43.2267 111.924 42.5056 110.279 42.5056 108.245ZM44.4413 108.339C44.4413 109.75 44.9152 110.909 45.8629 111.818C46.8052 112.727 47.8934 113.181 49.1276 113.181C50.4666 113.181 51.5961 112.719 52.5163 111.793C53.4364 110.857 53.8965 109.716 53.8965 108.372C53.8965 107.012 53.442 105.872 52.5328 104.952C51.6292 104.026 50.5106 103.564 49.1772 103.564C47.8493 103.564 46.728 104.026 45.8133 104.952C44.8987 105.866 44.4413 106.995 44.4413 108.339ZM57.6935 108.245C57.6935 106.457 58.3513 104.922 59.6669 103.639C60.977 102.356 62.5513 101.714 64.3898 101.714C66.2063 101.714 67.7641 102.361 69.0632 103.655C70.3678 104.949 71.0201 106.504 71.0201 108.319C71.0201 110.145 70.365 111.694 69.0549 112.966C67.7393 114.244 66.1513 114.883 64.2907 114.883C62.6449 114.883 61.1669 114.315 59.8568 113.18C58.4146 111.924 57.6935 110.279 57.6935 108.245ZM59.6292 108.339C59.6292 109.75 60.1031 110.909 61.0508 111.818C61.993 112.727 63.0812 113.181 64.3155 113.181C65.6544 113.181 66.7839 112.719 67.7041 111.793C68.6243 110.857 69.0844 109.716 69.0844 108.372C69.0844 107.012 68.6298 105.872 67.7206 104.952C66.817 104.026 65.6985 103.564 64.3651 103.564C63.0371 103.564 61.9159 104.026 61.0012 104.952C60.0865 105.866 59.6292 106.995 59.6292 108.339ZM79.8796 103.815H75.4119V106.872H79.7219V108.677H75.4119V114.735H73.4769V102.01H79.8796V103.815ZM86.7291 108.245C86.7291 106.457 87.3869 104.922 88.7025 103.639C90.0126 102.356 91.5868 101.714 93.4254 101.714C95.2419 101.714 96.7997 102.361 98.0988 103.655C99.4034 104.949 100.056 106.504 100.056 108.319C100.056 110.145 99.4006 111.694 98.0905 112.966C96.7749 114.244 95.1869 114.883 93.3263 114.883C91.6804 114.883 90.2025 114.315 88.8924 113.18C87.4502 111.924 86.7291 110.279 86.7291 108.245ZM88.6648 108.339C88.6648 109.75 89.1386 110.909 90.0864 111.818C91.0286 112.727 92.1168 113.181 93.351 113.181C94.69 113.181 95.8195 112.719 96.7397 111.793C97.6599 110.857 98.1199 109.716 98.1199 108.372C98.1199 107.012 97.6654 105.872 96.7562 104.952C95.8526 104.026 94.7341 103.564 93.4006 103.564C92.0727 103.564 90.9514 104.026 90.0368 104.952C89.1221 105.866 88.6648 106.995 88.6648 108.339ZM108.841 103.815H104.373V106.872H108.683V108.677H104.373V114.735H102.438V102.01H108.841V103.815ZM25.9728 128.887H31.4919V123.909H33.4227V136.634H31.4919V130.692H25.9728V136.634H24.042V123.909H25.9728V128.887ZM38.4771 123.909V131.612C38.4771 132.711 38.6563 133.514 39.0148 134.022C39.5497 134.757 40.3025 135.124 41.2731 135.124C42.2492 135.124 43.0047 134.757 43.5397 134.022C43.8981 133.531 44.0774 132.728 44.0774 131.612V123.909H46.0048V132.142C46.0048 133.49 45.5857 134.599 44.7474 135.472C43.8044 136.444 42.6463 136.93 41.2731 136.93C39.8999 136.93 38.7445 136.444 37.807 135.472C36.9688 134.599 36.5496 133.49 36.5496 132.142V123.909H38.4771ZM48.6106 136.64L51.307 122.947L55.7042 132.846L60.259 122.947L62.6817 136.64H60.6988L59.4626 128.952L55.671 137.226L51.9873 128.944L50.6101 136.64H48.6106ZM72.8312 133.557H67.3232L65.89 136.634H63.7984L70.1647 123.169L76.306 136.634H74.1812L72.8312 133.557ZM72.1368 131.751L70.2465 127.386L68.2654 131.751H72.1368ZM77.8695 136.6V123.021L87.2457 132.721V123.886H89.1859V137.374L79.8097 127.698V136.6H77.8695ZM94.1741 123.909V136.634H92.2384V123.909H94.1741ZM100.766 125.714V136.634H98.8325V125.714H95.8864V123.909H103.704V125.714H100.766ZM108.868 131.137L104.672 123.909H106.903L109.842 128.994L112.789 123.909H115.02L110.807 131.137V136.634H108.868V131.137Z" fill="#FF9900"/>
</g>
<defs>
<linearGradient id="paint0_linear_6_74" x1="45.1156" y1="29.5768" x2="80.2881" y2="18.357" gradientUnits="userSpaceOnUse">
<stop stop-color="#FF9900"/>
<stop offset="1" stop-color="#FFC700"/>
</linearGradient>
<clipPath id="clip0_6_74">
<rect width="137.153" height="137.153" fill="white" transform="translate(0.814453 0.220703)"/>
</clipPath>
</defs>
</svg>
