<svg viewBox="0 0 134 48" fill="none" xmlns="http://www.w3.org/2000/svg">
<path d="M52.6212 14.8351V19.5857H50.8462V7.88729H52.8574C53.8427 7.88729 54.5867 7.95548 55.0895 8.09186C55.5974 8.22824 56.0443 8.48585 56.4303 8.86468C57.1058 9.52133 57.4435 10.3497 57.4435 11.3498C57.4435 12.4207 57.0829 13.2693 56.3618 13.8956C55.6406 14.5219 54.668 14.8351 53.444 14.8351H52.6212ZM52.5465 13.1924H53.2137C54.8547 13.1924 55.6752 12.5702 55.6752 11.3258C55.6752 10.1217 54.8291 9.51962 53.137 9.51962H52.5465V13.1924ZM63.1564 14.6002L66.7614 19.5857H64.612L61.286 14.7972H60.9692V19.5857H59.2119V7.88729H61.2709C62.8094 7.88729 63.9206 8.17773 64.6044 8.75861C65.3586 9.40515 65.7357 10.2588 65.7357 11.3195C65.7357 12.1479 65.4994 12.8601 65.0268 13.4562C64.5542 14.0522 63.9307 14.4335 63.1564 14.6002ZM60.9803 13.2604H61.5395C63.2071 13.2604 64.0409 12.6166 64.0409 11.3289C64.0409 10.1227 63.2298 9.51962 61.6075 9.51962H60.9803V13.2604ZM67.7136 13.6193C67.7136 11.9759 68.3146 10.5644 69.5164 9.3847C70.7133 8.20505 72.1515 7.61523 73.8311 7.61523C75.4905 7.61523 76.9136 8.21009 78.1004 9.39982C79.2922 10.5896 79.8881 12.0187 79.8881 13.6874C79.8881 15.3661 79.2897 16.7902 78.0929 17.9598C76.891 19.1344 75.4403 19.7217 73.7405 19.7217C72.237 19.7217 70.8868 19.2 69.6899 18.1564C68.3724 17.002 67.7136 15.4896 67.7136 13.6193ZM69.482 13.7061C69.482 15.0025 69.9149 16.0685 70.7807 16.904C71.6415 17.7396 72.6356 18.1574 73.7631 18.1574C74.9863 18.1574 76.0182 17.732 76.8588 16.8813C77.6995 16.0204 78.1198 14.9721 78.1198 13.7365C78.1198 12.4857 77.7045 11.4374 76.8739 10.5917C76.0484 9.74096 75.0266 9.31558 73.8084 9.31558C72.5953 9.31558 71.571 9.74096 70.7354 10.5917C69.8998 11.4324 69.482 12.4705 69.482 13.7061ZM81.5885 13.6193C81.5885 11.9759 82.1894 10.5644 83.3913 9.3847C84.5881 8.20505 86.0263 7.61523 87.7059 7.61523C89.3654 7.61523 90.7885 8.21009 91.9753 9.39982C93.1671 10.5896 93.763 12.0187 93.763 13.6874C93.763 15.3661 93.1646 16.7902 91.9677 17.9598C90.7659 19.1344 89.3151 19.7217 87.6154 19.7217C86.1118 19.7217 84.7616 19.2 83.5648 18.1564C82.2472 17.002 81.5885 15.4896 81.5885 13.6193ZM83.3568 13.7061C83.3568 15.0025 83.7897 16.0685 84.6555 16.904C85.5163 17.7396 86.5104 18.1574 87.638 18.1574C88.8612 18.1574 89.8931 17.732 90.7337 16.8813C91.5743 16.0204 91.9946 14.9721 91.9946 13.7365C91.9946 12.4857 91.5793 11.4374 90.7488 10.5917C89.9233 9.74096 88.9014 9.31558 87.6833 9.31558C86.4702 9.31558 85.4458 9.74096 84.6102 10.5917C83.7746 11.4324 83.3568 12.4705 83.3568 13.7061ZM101.857 9.54658H97.7751V12.3575H101.712V14.0168H97.7751V19.5857H96.0074V7.88729H101.857V9.54658ZM108.114 13.6193C108.114 11.9759 108.715 10.5644 109.917 9.3847C111.114 8.20505 112.552 7.61523 114.231 7.61523C115.891 7.61523 117.314 8.21009 118.501 9.39982C119.692 10.5896 120.288 12.0187 120.288 13.6874C120.288 15.3661 119.69 16.7902 118.493 17.9598C117.291 19.1344 115.841 19.7217 114.141 19.7217C112.637 19.7217 111.287 19.2 110.09 18.1564C108.773 17.002 108.114 15.4896 108.114 13.6193ZM109.882 13.7061C109.882 15.0025 110.315 16.0685 111.181 16.904C112.042 17.7396 113.036 18.1574 114.163 18.1574C115.387 18.1574 116.418 17.732 117.259 16.8813C118.1 16.0204 118.52 14.9721 118.52 13.7365C118.52 12.4857 118.105 11.4374 117.274 10.5917C116.449 9.74096 115.427 9.31558 114.209 9.31558C112.996 9.31558 111.971 9.74096 111.136 10.5917C110.3 11.4324 109.882 12.4705 109.882 13.7061ZM128.314 9.54658H124.232V12.3575H128.17V14.0168H124.232V19.5857H122.465V7.88729H128.314V9.54658ZM52.6101 32.5957H57.652V28.0194H59.4159V39.7178H57.652V34.255H52.6101V39.7178H50.8462V28.0194H52.6101V32.5957ZM64.0333 28.0194V35.1012C64.0333 36.1114 64.1971 36.85 64.5245 37.3171C65.0132 37.9923 65.7009 38.3298 66.5876 38.3298C67.4794 38.3298 68.1696 37.9923 68.6583 37.3171C68.9858 36.8653 69.1495 36.1266 69.1495 35.1012V28.0194H70.9103V35.5885C70.9103 36.8272 70.5274 37.8476 69.7616 38.6497C68.9001 39.5431 67.8421 39.9899 66.5876 39.9899C65.3331 39.9899 64.2777 39.5431 63.4212 38.6497C62.6554 37.8476 62.2725 36.8272 62.2725 35.5885V28.0194H64.0333ZM73.2908 39.7235L75.7541 27.1352L79.7712 36.2352L83.9322 27.1352L86.1454 39.7235H84.3339L83.2046 32.6559L79.7408 40.2619L76.3756 32.6483L75.1174 39.7235H73.2908ZM95.4176 36.8891H90.3857L89.0764 39.7178H87.1656L92.9816 27.3393L98.592 39.7178H96.6508L95.4176 36.8891ZM94.7832 35.2289L93.0563 31.2161L91.2465 35.2289H94.7832ZM100.02 39.6864V27.2032L108.586 36.1208V27.9981H110.358V40.3979L101.793 31.5031V39.6864H100.02ZM114.915 28.0194V39.7178H113.147V28.0194H114.915ZM120.937 29.6787V39.7178H119.171V29.6787H116.48V28.0194H123.621V29.6787H120.937ZM128.339 34.6642L124.505 28.0194H126.544L129.228 32.6942L131.921 28.0194H133.959L130.111 34.6642V39.7178H128.339V34.6642Z" fill="#FF9900"/>
<path d="M38.3098 32.2788C38.7152 32.9878 38.6541 33.6674 37.9261 34.6853C37.7551 34.9244 37.7109 35.1389 37.7509 35.4649L37.7547 35.4949C37.7678 35.5916 37.783 35.6751 37.8152 35.824L37.8902 36.1629L37.914 36.2747C37.9633 36.5115 37.9892 36.6771 38.0038 36.8668L38.0075 36.9178C38.0332 37.3105 37.9896 37.6819 37.8578 38.0517C37.5721 38.8536 36.8927 39.5772 35.7306 40.2993L35.6391 40.3556C35.0738 40.6994 34.4717 40.9555 33.8187 41.1433L33.7171 41.172C32.9914 41.3742 32.4223 41.4585 31.2096 41.5781L30.7742 41.6206C29.4768 41.7511 28.9302 41.8794 28.4931 42.1913L28.4758 42.2039C27.9531 42.588 27.6684 43.3094 27.6564 44.6363L27.6558 44.7628C27.6444 45.9425 27.1036 46.8556 26.0833 47.3985C25.1565 47.8916 23.8533 48.0724 22.1607 47.9743C18.9386 47.7877 14.1763 46.5752 7.84355 44.3401L7.08404 44.0721L7.40729 43.3344C9.1018 39.4672 8.37591 34.8968 5.1572 29.5715L4.2241 28.0249C3.29474 26.4796 2.91999 25.832 2.46015 24.9808L2.30088 24.6841L2.21365 24.5195C1.40846 22.991 0.851488 21.6801 0.48934 20.4036C-0.704822 16.1942 0.234816 12.164 3.88079 6.57656C8.37129 -0.305128 16.6087 -1.76223 28.396 2.09305C34.5865 4.17932 37.7109 9.03903 37.7109 16.4983V16.6697L37.6363 16.824C36.8274 18.4972 36.8274 19.8657 37.5881 21.0239C37.8427 21.4117 38.1489 21.8258 38.587 22.3844L38.7493 22.5904L39.3863 23.3929C40.0499 24.2325 40.3171 24.5939 40.6051 25.0497L40.682 25.1728L40.7258 25.2449C41.258 26.1291 41.4598 26.8422 41.1997 27.5016C41.0244 27.9458 40.678 28.2768 40.199 28.5405C39.8679 28.7228 39.4931 28.8658 38.9835 29.0225L38.869 29.057C38.7059 29.1057 38.4561 29.1791 38.3199 29.2194L38.203 29.2545L38.139 29.2744C38.0146 29.3134 37.9122 29.3483 37.8285 29.3803L37.8627 29.43C37.8956 29.4771 37.935 29.5324 37.9821 29.5973L38.0593 29.7032L38.1088 29.7718C38.3568 30.1185 38.4871 30.3497 38.5755 30.6562C38.7196 31.1564 38.6417 31.6608 38.3214 32.1265L38.3023 32.1538C38.2954 32.1635 38.289 32.1728 38.2832 32.1815L38.2673 32.2061L38.3098 32.2788ZM36.2119 16.13C36.1145 9.49927 33.3685 5.34783 27.9245 3.51311C16.7182 -0.152101 9.18907 1.17972 5.13391 7.39426C1.70599 12.6475 0.866204 16.2495 1.92884 19.9952C2.26537 21.1814 2.79679 22.4248 3.58061 23.9037L3.72798 24.1793C4.23375 25.119 4.61432 25.774 5.73762 27.6378L6.43777 28.7975C9.69196 34.1815 10.5919 38.9923 9.07671 43.1864C14.9201 45.2138 19.3193 46.3109 22.2473 46.4805L22.3619 46.4867C23.7463 46.5562 24.7564 46.4095 25.3805 46.0775C25.9084 45.7966 26.1518 45.39 26.1595 44.756L26.1598 44.6697C26.1692 42.8618 26.6405 41.6751 27.624 40.9734C28.0509 40.6687 28.5514 40.4709 29.1609 40.3382L29.2182 40.3259C29.5897 40.2477 29.9468 40.1996 30.5525 40.1389L31.1053 40.0848C32.2048 39.9757 32.7103 39.8996 33.3272 39.7273L33.4051 39.7053C33.9351 39.5528 34.4151 39.3487 34.8615 39.0772L34.9407 39.0286C35.8382 38.4713 36.2918 37.989 36.4483 37.5495C36.554 37.2529 36.5422 37.0017 36.4132 36.4134L36.3601 36.1746L36.3464 36.1113C36.3096 35.9397 36.2904 35.8323 36.2719 35.6952L36.2671 35.658C36.1836 34.9906 36.2943 34.4103 36.6869 33.8462L36.7315 33.7831C36.8569 33.6049 36.9448 33.4547 36.9997 33.3315C37.0376 33.2465 37.0553 33.1856 37.0602 33.1446L37.061 33.1361C37.0625 33.1172 37.0615 33.1098 37.0307 33.0558L36.9676 32.9477L36.9427 32.9043C36.6555 32.394 36.6646 31.8907 37.0635 31.3143L37.088 31.2793L37.0986 31.2635C37.1925 31.1171 37.1561 31.0065 36.8584 30.596L36.6954 30.3725L36.6424 30.2987C36.588 30.2221 36.5566 30.1744 36.5179 30.1114L36.4732 30.037C36.3442 29.8166 36.26 29.6052 36.2279 29.3742C36.2191 29.3113 36.2146 29.2481 36.2146 29.1845C36.2146 28.7092 36.4911 28.3875 36.9071 28.1583C37.1192 28.0415 37.3643 27.9481 37.7201 27.8376L37.852 27.7975C37.9696 27.7624 38.2151 27.6904 38.3883 27.6389L38.5438 27.5922L38.6158 27.5698C39.3608 27.335 39.7411 27.1215 39.8078 26.9524C39.8099 26.947 39.8123 26.932 39.8117 26.9022C39.8096 26.8499 39.7967 26.7802 39.7704 26.6947C39.7105 26.5005 39.5908 26.2555 39.411 25.9625L39.3554 25.8732C39.103 25.472 38.8596 25.1409 38.2562 24.3762L37.5758 23.5187L37.4429 23.3502L37.3285 23.2041C36.9315 22.6952 36.6365 22.2953 36.3811 21.9115L36.3374 21.8453C35.3026 20.2698 35.2666 18.4241 36.1859 16.3933L36.214 16.3317L36.2119 16.13Z" fill="#FF6800"/>
<path fill-rule="evenodd" clip-rule="evenodd" d="M5.79752 29.1851C0.796368 20.9108 -1.90187 16.8082 4.50738 6.98601C8.78021 0.437896 16.6634 -0.956567 28.1571 2.80262C34.0275 4.78104 36.9628 9.34648 36.9628 16.4989C36.0463 18.3945 36.0463 20.0399 36.9628 21.4352C38.3374 23.5283 40.9763 26.03 40.5037 27.2276C40.0312 28.4252 36.9628 28.4252 36.9628 29.1851C36.9628 29.9451 38.4221 30.694 37.6924 31.7211C36.9628 32.7482 38.5624 32.5101 37.3176 34.2507C36.0727 35.9912 39.0479 37.4072 35.2503 39.717C31.4527 42.0268 26.9079 39.1747 26.9079 44.7252C26.9079 48.4256 20.6361 48.0623 8.09257 43.6352C9.89663 39.518 9.13162 34.7013 5.79752 29.1851Z" fill="#FFFCF0"/>
<path fill-rule="evenodd" clip-rule="evenodd" d="M35.0658 15.5403C34.1925 9.84374 32.4505 6.58297 29.8398 5.75794C25.9237 4.52041 14.7072 -0.143405 8.61731 5.03423C4.55738 8.48599 2.38749 12.9393 2.10764 18.3942C2.6181 20.4816 3.88432 22.9382 5.90632 25.7641C8.93932 30.003 9.81978 29.1005 9.81978 27.3524C9.81978 25.6042 15.3879 30.2127 16.9984 23.9256C18.0721 19.7343 20.1405 18.2243 23.2037 19.3958C28.496 19.9466 31.7985 19.6128 33.1114 18.3942C34.4242 17.1756 35.0757 16.2243 35.0658 15.5403Z" fill="url(#paint0_linear_1841_16238)"/>
<path d="M18.5326 23.1228C22.1574 23.1228 25.0959 20.1843 25.0959 16.5594C25.0959 12.9346 22.1574 9.99609 18.5326 9.99609C14.9077 9.99609 11.9692 12.9346 11.9692 16.5594C11.9692 20.1843 14.9077 23.1228 18.5326 23.1228ZM18.5326 22.5107C15.2458 22.5107 12.5814 19.8462 12.5814 16.5594C12.5814 13.2727 15.2458 10.6082 18.5326 10.6082C21.8193 10.6082 24.4838 13.2727 24.4838 16.5594C24.4838 19.8462 21.8193 22.5107 18.5326 22.5107Z" fill="white"/>
<path d="M18.5323 22.5118C21.819 22.5118 24.4835 19.8474 24.4835 16.5606C24.4835 13.2738 21.819 10.6094 18.5323 10.6094C15.2455 10.6094 12.5811 13.2738 12.5811 16.5606C12.5811 19.8474 15.2455 22.5118 18.5323 22.5118Z" fill="#FF6800"/>
<path d="M20.6069 16.6348L18.5331 17.9324L16.458 16.6348L18.5331 12.9883L20.6069 16.6348ZM18.5324 18.352L16.458 17.0691L18.5324 20.1297L20.6069 17.0691L18.5324 18.352Z" fill="white"/>
<path d="M5.10808 17.6254C5.96664 15.7405 6.74144 15.5307 7.66068 16.8879L7.68858 16.9295C8.83712 18.6593 10.1648 18.6057 11.4941 16.796L11.554 16.7144L11.2898 16.1535L11.1207 16.3837C9.99584 17.9151 9.0483 17.9718 8.10581 16.5817L8.07725 16.5392C6.90842 14.7788 5.69507 15.075 4.67296 17.3189L4.63086 17.4114L4.99007 17.8844L5.10808 17.6254ZM4.96312 17.2866L4.98244 17.4599L5.00367 17.4136L5.02489 17.3679L4.96312 17.2866ZM7.76438 16.6832L7.79395 16.7273C8.88354 18.3682 10.1252 18.3134 11.3947 16.5851L11.1039 16.5568L11.1598 16.6755C10.0011 18.2079 8.98662 18.2384 8.00172 16.7859L7.97189 16.7414C6.87298 15.0864 5.76515 15.3625 4.7986 17.4844L5.08876 17.452L5.02489 17.3679C5.92314 15.4478 6.78976 15.2452 7.76438 16.6832ZM11.2032 16.7678L11.22 16.5947L11.1898 16.6354L11.1598 16.6755L11.2032 16.7678Z" fill="white"/>
<path d="M7.62468 11.0961C8.48324 9.21121 9.25804 9.00143 10.1773 10.3586L10.2052 10.4002C11.3537 12.13 12.6814 12.0764 14.0107 10.2667L14.0706 10.1851L13.8064 9.62417L13.6373 9.85445C12.5124 11.3858 11.5649 11.4425 10.6224 10.0524L10.5939 10.0099C9.42502 8.24953 8.21167 8.54575 7.18956 10.7896L7.14746 10.8821L7.50667 11.3551L7.62468 11.0961ZM7.47972 10.7573L7.49904 10.9306L7.52027 10.8843L7.54149 10.8386L7.47972 10.7573ZM10.281 10.1539L10.3106 10.198C11.4001 11.839 12.6418 11.7841 13.9113 10.0558L13.6205 10.0275L13.6764 10.1462C12.5177 11.6786 11.5032 11.7091 10.5183 10.2566L10.4885 10.2121C9.38958 8.55712 8.28175 8.83319 7.3152 10.9551L7.60536 10.9228L7.54149 10.8386C8.43974 8.9185 9.30636 8.71589 10.281 10.1539ZM13.7198 10.2385L13.7366 10.0654L13.7064 10.1061L13.6764 10.1462L13.7198 10.2385Z" fill="white"/>
<path d="M12.2674 6.66176L12.3854 6.40271L12.4537 6.25595L12.5236 6.11245C13.3252 4.50522 14.0633 4.38205 14.9292 5.65234L14.9659 5.70688C16.1003 7.41529 17.4094 7.38411 18.7222 5.63955L18.8313 5.49178L18.5672 4.93081L18.398 5.16109C17.2783 6.68554 16.3342 6.74859 15.396 5.3779L15.3546 5.3165C14.199 3.57617 13 3.84593 11.9852 6.02054L11.9082 6.1887L12.2674 6.66176ZM12.2405 6.06393L12.2598 6.23725L12.3022 6.14528L12.2405 6.06393ZM15.0334 5.44828L15.0713 5.50461C16.1609 7.14559 17.4026 7.09078 18.6721 5.3624L18.3812 5.33419L18.4371 5.45286L18.3385 5.58002C17.2259 6.97921 16.2452 6.97445 15.2925 5.58298L15.2492 5.51877C14.1503 3.86376 13.0425 4.13983 12.0759 6.26174L12.3661 6.22939L12.3022 6.14528C13.1979 4.23061 14.0622 4.0237 15.0334 5.44828ZM18.4805 5.54511L18.4973 5.37202L18.4371 5.45286L18.4805 5.54511Z" fill="white"/>
<path d="M20.9552 8.85192C21.8138 6.96707 22.5886 6.75729 23.5078 8.11449L23.5357 8.1561C24.6843 9.88586 26.012 9.83228 27.3412 8.02255L27.4011 7.941L27.137 7.38003L26.9678 7.61031C25.843 9.14171 24.8955 9.19836 23.953 7.80828L23.9244 7.76572C22.7556 6.00539 21.5422 6.30161 20.5201 8.5455L20.478 8.63792L20.8372 9.11098L20.9552 8.85192ZM20.8103 8.51315L20.8296 8.68647L20.8508 8.64016L20.8721 8.5945L20.8103 8.51315ZM23.6115 7.90975L23.6411 7.95383C24.7307 9.59481 25.9724 9.53999 27.2419 7.81162L26.951 7.78341L27.0069 7.90208C25.8482 9.43449 24.8338 9.46492 23.8489 8.01246L23.8191 7.96799C22.7201 6.31298 21.6123 6.58904 20.6458 8.71096L20.9359 8.67861L20.8721 8.5945C21.7703 6.67436 22.6369 6.47175 23.6115 7.90975ZM27.0504 7.99433L27.0672 7.82124L27.037 7.86199L27.0069 7.90208L27.0504 7.99433Z" fill="white"/>
<path d="M6.8444 24.0218C7.70297 22.137 8.47777 21.9272 9.39701 23.2844L9.42491 23.326C10.5734 25.0558 11.9011 25.0022 13.2304 23.1925L13.2903 23.1109L13.0261 22.5499L12.857 22.7802C11.7322 24.3116 10.7846 24.3683 9.84214 22.9782L9.81358 22.9356C8.64475 21.1753 7.4314 21.4715 6.40929 23.7154L6.36719 23.8078L6.7264 24.2809L6.8444 24.0218ZM6.69944 23.6831L6.71876 23.8564L6.73999 23.8101L6.76121 23.7644L6.69944 23.6831ZM9.50071 23.0797L9.53028 23.1237C10.6199 24.7647 11.8616 24.7099 13.1311 22.9815L12.8402 22.9533L12.8961 23.072C11.7374 24.6044 10.7229 24.6348 9.73805 23.1824L9.70821 23.1379C8.60931 21.4829 7.50147 21.759 6.53493 23.8809L6.82508 23.8485L6.76121 23.7644C7.65947 21.8443 8.52609 21.6417 9.50071 23.0797ZM12.9395 23.1643L12.9563 22.9912L12.9262 23.0319L12.8961 23.072L12.9395 23.1643Z" fill="white"/>
<path d="M25.4601 13.9789C26.3187 12.094 27.0935 11.8842 28.0127 13.2414L28.0406 13.2831C29.1892 15.0128 30.5169 14.9592 31.8461 13.1495L31.906 13.068L31.6419 12.507L31.4727 12.7373C30.3479 14.2687 29.4003 14.3253 28.4579 12.9352L28.4293 12.8927C27.2605 11.1323 26.0471 11.4286 25.025 13.6724L24.9829 13.7649L25.3421 14.2379L25.4601 13.9789ZM25.3152 13.6401L25.3345 13.8134L25.3557 13.7671L25.3769 13.7215L25.3152 13.6401ZM28.1164 13.0367L28.146 13.0808C29.2356 14.7218 30.4773 14.6669 31.7468 12.9386L31.4559 12.9104L31.5118 13.029C30.3531 14.5614 29.3387 14.5919 28.3538 13.1394L28.3239 13.0949C27.225 11.4399 26.1172 11.716 25.1506 13.8379L25.4408 13.8056L25.3769 13.7215C26.2752 11.8013 27.1418 11.5987 28.1164 13.0367ZM31.5553 13.1213L31.572 12.9482L31.5419 12.9889L31.5118 13.029L31.5553 13.1213Z" fill="white"/>
<defs>
<linearGradient id="paint0_linear_1841_16238" x1="7.61678" y1="15.7277" x2="26.4611" y2="9.71648" gradientUnits="userSpaceOnUse">
<stop stop-color="#FF9900"/>
<stop offset="1" stop-color="#FFC700"/>
</linearGradient>
</defs>
</svg>
