<svg width="16" height="13" viewBox="0 0 16 13" fill="none" xmlns="http://www.w3.org/2000/svg">
<path d="M14.3554 3.59321C14.3655 3.72896 14.3655 3.86473 14.3655 4.00048C14.3655 8.14092 11.066 12.9117 5.03555 12.9117C3.17767 12.9117 1.45179 12.3977 0 11.5057C0.26397 11.5348 0.517752 11.5445 0.791878 11.5445C2.32485 11.5445 3.73605 11.0499 4.86296 10.2063C3.42133 10.1772 2.2132 9.27545 1.79694 8.03428C2.00001 8.06335 2.20304 8.08275 2.41626 8.08275C2.71067 8.08275 3.00511 8.04395 3.2792 7.9761C1.77666 7.68518 0.649721 6.42463 0.649721 4.90226V4.86349C1.08625 5.09621 1.59391 5.24166 2.13195 5.26103C1.24869 4.69861 0.670034 3.73866 0.670034 2.65263C0.670034 2.07084 0.832441 1.53753 1.11672 1.07209C2.73095 2.97262 5.15736 4.21377 7.87816 4.34955C7.82741 4.11683 7.79694 3.87444 7.79694 3.63201C7.79694 1.90599 9.25888 0.5 11.0761 0.5C12.0203 0.5 12.8731 0.878167 13.4721 1.48906C14.2132 1.35331 14.9238 1.09149 15.5533 0.732721C15.3096 1.45998 14.7919 2.07087 14.1117 2.45871C14.7716 2.39087 15.4112 2.21629 16 1.9739C15.5534 2.59446 14.995 3.14714 14.3554 3.59321V3.59321Z" fill="white"/>
</svg>
